<svg width="1143" height="980" fill="none" xmlns="http://www.w3.org/2000/svg"><g clip-path="url(#a)" stroke-miterlimit="10"><path d="m586.26 452.308-40.279 5.463-14.898 37.692 25.382 32.23 40.555-5.463 14.898-37.692-25.658-32.23Z" stroke="url(#b)"/><path d="m616.884 487.542-24.83-34.142-45.245 2.732-20.692 36.326 24.554 34.142 45.246-2.458 20.967-36.6Z" stroke="url(#c)"/><path d="m595.365 529.604 22.899-36.327-23.727-39.604-46.901-3.277-23.174 36.599 24.002 39.604 46.901 3.005Z" stroke="url(#d)"/><path d="m542.393 528.239 47.729 5.189 29.244-37.965-18.761-43.428-48.004-5.463-28.968 38.239 18.76 43.428Z" stroke="url(#e)"/><path d="m518.943 480.167 17.105 45.067 52.419 10.106 35.314-35.234-17.105-45.34-52.419-9.832-35.314 35.233Z" stroke="url(#f)"/><path d="m557.016 438.652-38.073 34.688 14.622 51.076 52.419 16.934 37.797-34.415-14.347-51.349-52.418-16.934Z" stroke="url(#g)"/><path d="m616.884 455.313-52.971-19.393-45.245 34.688 7.449 54.081 52.694 19.665 45.522-34.688-7.449-54.353Z" stroke="url(#h)"/><path d="m627.919 516.221-4.966-55.719-56.556-25.947-51.591 29.498 4.966 55.719 56.557 25.948 51.59-29.499Z" stroke="url(#i)"/><path d="m571.361 551.728 54.35-27.86V462.14l-54.35-33.869-54.349 28.133.276 61.728 54.073 33.596Z" stroke="url(#j)"/><path d="m508.735 516.22 53.798 36.873 62.903-26.22 8.828-63.094-54.074-36.6-62.626 25.948-8.829 63.093Z" stroke="url(#k)"/><path d="m515.357 444.66-12.139 64.186 56.005 45.067 68.42-18.573 12.139-63.913-56.281-45.34-68.144 18.573Z" stroke="url(#l)"/><path d="m591.226 420.625-70.903 16.114-19.588 69.376 51.039 53.534 70.627-16.115 19.864-69.649-51.039-53.26Z" stroke="url(#m)"/><path d="m651.37 478.528-49.659-56.811-80.007 11.744-30.072 68.283 49.384 56.812 80.007-11.745 30.347-68.283Z" stroke="url(#n)"/><path d="m620.745 556.917 34.486-68.556-49.384-66.918-83.869 1.912-34.21 68.557 49.383 66.644 83.594-1.639Z" stroke="url(#o)"/><path d="m526.669 562.654 85.801 1.912 44.693-72.653-41.107-74.292-85.801-1.913-44.693 72.381 41.107 74.565Z" stroke="url(#p)"/><path d="m476.732 480.713 38.349 77.57 94.629 9.56 56.557-68.283-38.348-77.843-94.906-9.56-56.281 68.556Z" stroke="url(#q)"/><path d="m536.6 400.958-61.246 67.464 35.037 89.042 96.009 21.577 60.971-67.19-34.762-89.042-96.009-21.851Z" stroke="url(#r)"/><path d="m645.575 421.171-97.112-26.494-74.214 69.102 22.899 95.324 97.112 26.22 74.213-68.829-22.898-95.323Z" stroke="url(#s)"/><path d="m676.475 527.418-18.76-98.328-105.113-37.419-86.077 60.909 18.761 98.328 104.837 37.419 86.352-60.909Z" stroke="url(#t)"/><path d="m582.673 600.073 91.043-58.451L662.68 431.55l-102.354-51.622-91.318 58.45 11.311 110.073 102.354 51.622Z" stroke="url(#u)"/><path d="m464.869 546.538 102.078 57.085 106.769-56.539 4.414-113.623-102.354-57.085-106.493 56.539-4.414 113.623Z" stroke="url(#v)"/><path d="m463.766 418.166-9.932 116.082 107.596 71.56 117.528-43.974 10.208-115.808-107.596-71.834-117.804 43.974Z" stroke="url(#w)"/><path d="m593.985 363.267-122.77 39.877-22.347 126.734 100.147 87.129 122.494-39.878 22.623-127.006-100.147-86.856Z" stroke="url(#x)"/><path d="m710.96 456.678-98.215-93.138-139.599 33.322-41.383 126.734 98.215 93.138 139.599-33.595 41.383-126.461Z" stroke="url(#y)"/><path d="m670.957 601.165 48.556-127.28-99.32-111.165-148.427 16.115-48.556 127.553 99.595 111.165 148.152-16.388Z" stroke="url(#z)"/><path d="m505.149 626.293 152.566-10.105 66.212-136.294-86.076-126.187-152.566 10.379-66.213 136.293 86.077 125.914Z" stroke="url(#A)"/><path d="m401.692 488.088 81.939 132.469 169.67 1.913 88.008-130.558-82.214-132.469-169.67-1.912-87.733 130.557Z" stroke="url(#B)"/><path d="M493.562 337.045 397.277 466.51l77.8 153.228 174.085 23.489 96.285-129.465-77.8-153.227-174.085-23.49Z" stroke="url(#C)"/><path d="m690.545 355.619-176.843-31.683-119.183 134.381 57.66 166.338 177.119 31.41 119.184-134.381-57.937-166.065Z" stroke="url(#D)"/><path d="m764.208 540.256-51.039-172.347-192.57-49.983-142.081 122.09 51.039 172.074 192.845 50.257 141.806-122.091Z" stroke="url(#E)"/><path d="m611.089 684.197 151.186-118.54-39.727-194.197-190.638-75.658-151.186 118.54 39.451 194.197 190.914 75.658Z" stroke="url(#F)"/><path d="m392.587 607.72 191.466 85.491 178.775-117.447-12.415-203.211-191.466-85.763-179.051 117.72 12.691 203.21Z" stroke="url(#G)"/><path d="m367.757 379.108 3.035 208.127 203.604 110.892 200.57-97.235-2.759-207.854-203.604-110.892-200.846 96.962Z" stroke="url(#H)"/><path d="m588.468 260.568-210.226 90.407-17.105 229.432 193.121 139.297 210.226-90.68 17.105-229.431-193.121-139.025Z" stroke="url(#I)"/><path d="M813.039 408.606 622.125 258.11l-241.401 81.667-50.763 231.89 190.638 150.496 241.677-81.667 50.763-231.89Z" stroke="url(#J)"/><path d="m767.794 672.179 63.454-234.621-196.432-182.179-259.885 52.441-63.454 234.621 196.431 182.453 259.886-52.715Z" stroke="url(#K)"/><path d="m478.388 743.195 268.438-42.063L839.8 447.665 664.612 236.807l-268.438 42.335-93.25 253.194 175.464 210.859Z" stroke="url(#L)"/><path d="m270.093 513.49 169.119 223.149L740.48 713.15l132.15-246.639-169.119-222.876-301.268 23.489-132.15 246.366Z" stroke="url(#M)"/><path d="m406.106 229.705-147.599 245.82 165.532 260.568 312.856 14.476 147.324-246.092-165.257-260.296-312.856-14.476Z" stroke="url(#N)"/><path d="M758.688 231.616 439.211 203.21 251.884 461.594l132.15 286.789 319.477 28.406 187.327-258.384-132.15-286.789Z" stroke="url(#O)"/><path d="M922.29 548.997 801.175 250.19l-350.928-58.724-229.538 239.811 121.114 298.534 350.653 58.997L922.29 548.997Z" stroke="url(#P)"/><path d="m676.199 829.778 246.919-234.895L818.28 255.107l-351.756-104.61-246.919 234.894 105.113 339.504 351.481 104.883Z" stroke="url(#Q)"/><path d="m275.335 727.626 354.791 122.363 296.027-237.625-58.488-359.989-354.791-122.09L216.571 367.91l58.764 359.716Z" stroke="url(#R)"/><path d="m190.639 324.754 42.21 370.095 381 165.245 338.514-204.576-42.487-370.095-380.724-165.518-338.513 204.849Z" stroke="url(#S)"/><path d="M560.879 78.39 204.157 272.86l10.76 411.611 367.205 217.141 356.446-194.471-10.759-411.338L560.879 78.39Z" stroke="url(#T)"/><path d="M984.917 306.456 619.918 68.831 206.364 252.376l-48.556 421.17 364.998 237.899L936.637 727.9l48.28-421.444Z" stroke="url(#U)"/><path d="m952.362 783.618 70.348-427.999L641.714 62.001 190.638 196.384l-70.351 428.272 380.724 293.617 451.351-134.654Z" stroke="url(#V)"/><path d="m451.626 955.965 468.457-117.72L1039.82 372.28 691.096 24.31 222.64 142.028 102.905 607.72l348.721 348.245Z" stroke="url(#W)"/><path d="m41.383 579.588 339.893 370.368 529.979-89.315 190.365-459.955L761.724 30.045l-529.979 89.587L41.383 579.588Z" stroke="url(#X)"/><path d="M231.469 52.168 14.07 513.762l339.893 437.832 557.292-23.762L1128.65 466.51 788.761 28.679l-557.292 23.49Z" stroke="url(#Y)"/><path d="M857.181 0H285.543L0 490l285.543 490h571.638L1143 490 857.181 0Z" stroke="url(#Z)"/></g><defs><radialGradient id="b" cx="0" cy="0" r="1" gradientUnits="userSpaceOnUse" gradientTransform="matrix(0 37.6923 -40.4175 0 571.5 490)"><stop offset=".234" stop-color="#EEE"/><stop offset=".49" stop-color="#29272F"/><stop offset=".677" stop-color="#133108"/><stop offset=".927" stop-color="#9CF741"/></radialGradient><radialGradient id="c" cx="0" cy="0" r="1" gradientUnits="userSpaceOnUse" gradientTransform="matrix(0 36.5997 -45.3834 0 571.501 490)"><stop offset=".234" stop-color="#EEE"/><stop offset=".49" stop-color="#29272F"/><stop offset=".677" stop-color="#133108"/><stop offset=".927" stop-color="#9CF741"/></radialGradient><radialGradient id="d" cx="0" cy="0" r="1" gradientUnits="userSpaceOnUse" gradientTransform="matrix(0 39.6043 -46.9008 0 571.363 490)"><stop offset=".234" stop-color="#EEE"/><stop offset=".49" stop-color="#29272F"/><stop offset=".677" stop-color="#133108"/><stop offset=".927" stop-color="#9CF741"/></radialGradient><radialGradient id="e" cx="0" cy="0" r="1" gradientUnits="userSpaceOnUse" gradientTransform="matrix(0 43.428 -47.8664 0 571.499 490)"><stop offset=".234" stop-color="#EEE"/><stop offset=".49" stop-color="#29272F"/><stop offset=".677" stop-color="#133108"/><stop offset=".927" stop-color="#9CF741"/></radialGradient><radialGradient id="f" cx="0" cy="0" r="1" gradientUnits="userSpaceOnUse" gradientTransform="matrix(0 45.2034 -52.4186 0 571.362 490.137)"><stop offset=".234" stop-color="#EEE"/><stop offset=".49" stop-color="#29272F"/><stop offset=".677" stop-color="#133108"/><stop offset=".927" stop-color="#9CF741"/></radialGradient><radialGradient id="g" cx="0" cy="0" r="1" gradientUnits="userSpaceOnUse" gradientTransform="matrix(0 51.3489 -52.4186 0 571.362 490.001)"><stop offset=".234" stop-color="#EEE"/><stop offset=".49" stop-color="#29272F"/><stop offset=".677" stop-color="#133108"/><stop offset=".927" stop-color="#9CF741"/></radialGradient><radialGradient id="h" cx="0" cy="0" r="1" gradientUnits="userSpaceOnUse" gradientTransform="matrix(0 54.2168 -52.8324 0 571.5 490.137)"><stop offset=".234" stop-color="#EEE"/><stop offset=".49" stop-color="#29272F"/><stop offset=".677" stop-color="#133108"/><stop offset=".927" stop-color="#9CF741"/></radialGradient><radialGradient id="i" cx="0" cy="0" r="1" gradientUnits="userSpaceOnUse" gradientTransform="matrix(0 55.5825 -56.5569 0 571.363 490.137)"><stop offset=".234" stop-color="#EEE"/><stop offset=".49" stop-color="#29272F"/><stop offset=".677" stop-color="#133108"/><stop offset=".927" stop-color="#9CF741"/></radialGradient><radialGradient id="j" cx="0" cy="0" r="1" gradientUnits="userSpaceOnUse" gradientTransform="matrix(0 61.7281 -54.3498 0 571.361 490)"><stop offset=".234" stop-color="#EEE"/><stop offset=".49" stop-color="#29272F"/><stop offset=".677" stop-color="#133108"/><stop offset=".927" stop-color="#9CF741"/></radialGradient><radialGradient id="k" cx="0" cy="0" r="1" gradientUnits="userSpaceOnUse" gradientTransform="matrix(0 62.9571 -62.7643 0 571.5 490.136)"><stop offset=".234" stop-color="#EEE"/><stop offset=".49" stop-color="#29272F"/><stop offset=".677" stop-color="#133108"/><stop offset=".927" stop-color="#9CF741"/></radialGradient><radialGradient id="l" cx="0" cy="0" r="1" gradientUnits="userSpaceOnUse" gradientTransform="matrix(0 63.9129 -68.2821 0 571.5 490)"><stop offset=".234" stop-color="#EEE"/><stop offset=".49" stop-color="#29272F"/><stop offset=".677" stop-color="#133108"/><stop offset=".927" stop-color="#9CF741"/></radialGradient><radialGradient id="m" cx="0" cy="0" r="1" gradientUnits="userSpaceOnUse" gradientTransform="matrix(0 69.5123 -70.765 0 571.5 490.137)"><stop offset=".234" stop-color="#EEE"/><stop offset=".49" stop-color="#29272F"/><stop offset=".677" stop-color="#133108"/><stop offset=".927" stop-color="#9CF741"/></radialGradient><radialGradient id="n" cx="0" cy="0" r="1" gradientUnits="userSpaceOnUse" gradientTransform="matrix(0 68.4197 -79.8693 0 571.501 490.136)"><stop offset=".234" stop-color="#EEE"/><stop offset=".49" stop-color="#29272F"/><stop offset=".677" stop-color="#133108"/><stop offset=".927" stop-color="#9CF741"/></radialGradient><radialGradient id="o" cx="0" cy="0" r="1" gradientUnits="userSpaceOnUse" gradientTransform="matrix(0 68.5564 -83.7317 0 571.499 490)"><stop offset=".234" stop-color="#EEE"/><stop offset=".49" stop-color="#29272F"/><stop offset=".677" stop-color="#133108"/><stop offset=".927" stop-color="#9CF741"/></radialGradient><radialGradient id="p" cx="0" cy="0" r="1" gradientUnits="userSpaceOnUse" gradientTransform="matrix(0 74.4287 -85.8009 0 571.362 490.137)"><stop offset=".234" stop-color="#EEE"/><stop offset=".49" stop-color="#29272F"/><stop offset=".677" stop-color="#133108"/><stop offset=".927" stop-color="#9CF741"/></radialGradient><radialGradient id="q" cx="0" cy="0" r="1" gradientUnits="userSpaceOnUse" gradientTransform="matrix(0 77.8428 -94.7672 0 571.5 490)"><stop offset=".234" stop-color="#EEE"/><stop offset=".49" stop-color="#29272F"/><stop offset=".677" stop-color="#133108"/><stop offset=".927" stop-color="#9CF741"/></radialGradient><radialGradient id="r" cx="0" cy="0" r="1" gradientUnits="userSpaceOnUse" gradientTransform="matrix(0 89.0414 -96.0087 0 571.362 490)"><stop offset=".234" stop-color="#EEE"/><stop offset=".49" stop-color="#29272F"/><stop offset=".677" stop-color="#133108"/><stop offset=".927" stop-color="#9CF741"/></radialGradient><radialGradient id="s" cx="0" cy="0" r="1" gradientUnits="userSpaceOnUse" gradientTransform="matrix(0 95.3232 -97.1122 0 571.361 490)"><stop offset=".234" stop-color="#EEE"/><stop offset=".49" stop-color="#29272F"/><stop offset=".677" stop-color="#133108"/><stop offset=".927" stop-color="#9CF741"/></radialGradient><radialGradient id="t" cx="0" cy="0" r="1" gradientUnits="userSpaceOnUse" gradientTransform="matrix(0 98.3278 -104.975 0 571.5 489.999)"><stop offset=".234" stop-color="#EEE"/><stop offset=".49" stop-color="#29272F"/><stop offset=".677" stop-color="#133108"/><stop offset=".927" stop-color="#9CF741"/></radialGradient><radialGradient id="u" cx="0" cy="0" r="1" gradientUnits="userSpaceOnUse" gradientTransform="matrix(0 110.072 -102.354 0 571.362 490)"><stop offset=".234" stop-color="#EEE"/><stop offset=".49" stop-color="#29272F"/><stop offset=".677" stop-color="#133108"/><stop offset=".927" stop-color="#9CF741"/></radialGradient><radialGradient id="v" cx="0" cy="0" r="1" gradientUnits="userSpaceOnUse" gradientTransform="matrix(0 113.623 -106.63 0 571.5 490)"><stop offset=".234" stop-color="#EEE"/><stop offset=".49" stop-color="#29272F"/><stop offset=".677" stop-color="#133108"/><stop offset=".927" stop-color="#9CF741"/></radialGradient><radialGradient id="w" cx="0" cy="0" r="1" gradientUnits="userSpaceOnUse" gradientTransform="matrix(0 115.808 -117.666 0 571.5 490)"><stop offset=".234" stop-color="#EEE"/><stop offset=".49" stop-color="#29272F"/><stop offset=".677" stop-color="#133108"/><stop offset=".927" stop-color="#9CF741"/></radialGradient><radialGradient id="x" cx="0" cy="0" r="1" gradientUnits="userSpaceOnUse" gradientTransform="matrix(0 126.87 -122.632 0 571.5 490.137)"><stop offset=".234" stop-color="#EEE"/><stop offset=".49" stop-color="#29272F"/><stop offset=".677" stop-color="#133108"/><stop offset=".927" stop-color="#9CF741"/></radialGradient><radialGradient id="y" cx="0" cy="0" r="1" gradientUnits="userSpaceOnUse" gradientTransform="matrix(0 126.597 -139.599 0 571.362 490.137)"><stop offset=".234" stop-color="#EEE"/><stop offset=".49" stop-color="#29272F"/><stop offset=".677" stop-color="#133108"/><stop offset=".927" stop-color="#9CF741"/></radialGradient><radialGradient id="z" cx="0" cy="0" r="1" gradientUnits="userSpaceOnUse" gradientTransform="matrix(0 127.416 -148.151 0 571.361 490.136)"><stop offset=".234" stop-color="#EEE"/><stop offset=".49" stop-color="#29272F"/><stop offset=".677" stop-color="#133108"/><stop offset=".927" stop-color="#9CF741"/></radialGradient><radialGradient id="A" cx="0" cy="0" r="1" gradientUnits="userSpaceOnUse" gradientTransform="matrix(0 136.293 -152.428 0 571.5 490)"><stop offset=".234" stop-color="#EEE"/><stop offset=".49" stop-color="#29272F"/><stop offset=".677" stop-color="#133108"/><stop offset=".927" stop-color="#9CF741"/></radialGradient><radialGradient id="B" cx="0" cy="0" r="1" gradientUnits="userSpaceOnUse" gradientTransform="matrix(0 132.469 -169.809 0 571.501 490)"><stop offset=".234" stop-color="#EEE"/><stop offset=".49" stop-color="#29272F"/><stop offset=".677" stop-color="#133108"/><stop offset=".927" stop-color="#9CF741"/></radialGradient><radialGradient id="C" cx="0" cy="0" r="1" gradientUnits="userSpaceOnUse" gradientTransform="matrix(0 153.091 -174.085 0 571.362 490.136)"><stop offset=".234" stop-color="#EEE"/><stop offset=".49" stop-color="#29272F"/><stop offset=".677" stop-color="#133108"/><stop offset=".927" stop-color="#9CF741"/></radialGradient><radialGradient id="D" cx="0" cy="0" r="1" gradientUnits="userSpaceOnUse" gradientTransform="matrix(0 166.065 -176.982 0 571.5 490)"><stop offset=".234" stop-color="#EEE"/><stop offset=".49" stop-color="#29272F"/><stop offset=".677" stop-color="#133108"/><stop offset=".927" stop-color="#9CF741"/></radialGradient><radialGradient id="E" cx="0" cy="0" r="1" gradientUnits="userSpaceOnUse" gradientTransform="matrix(0 172.21 -192.845 0 571.363 490.136)"><stop offset=".234" stop-color="#EEE"/><stop offset=".49" stop-color="#29272F"/><stop offset=".677" stop-color="#133108"/><stop offset=".927" stop-color="#9CF741"/></radialGradient><radialGradient id="F" cx="0" cy="0" r="1" gradientUnits="userSpaceOnUse" gradientTransform="matrix(0 194.197 -190.776 0 571.5 490)"><stop offset=".234" stop-color="#EEE"/><stop offset=".49" stop-color="#29272F"/><stop offset=".677" stop-color="#133108"/><stop offset=".927" stop-color="#9CF741"/></radialGradient><radialGradient id="G" cx="0" cy="0" r="1" gradientUnits="userSpaceOnUse" gradientTransform="matrix(0 203.211 -191.466 0 571.362 490)"><stop offset=".234" stop-color="#EEE"/><stop offset=".49" stop-color="#29272F"/><stop offset=".677" stop-color="#133108"/><stop offset=".927" stop-color="#9CF741"/></radialGradient><radialGradient id="H" cx="0" cy="0" r="1" gradientUnits="userSpaceOnUse" gradientTransform="matrix(0 207.991 -203.605 0 571.361 490.137)"><stop offset=".234" stop-color="#EEE"/><stop offset=".49" stop-color="#29272F"/><stop offset=".677" stop-color="#133108"/><stop offset=".927" stop-color="#9CF741"/></radialGradient><radialGradient id="I" cx="0" cy="0" r="1" gradientUnits="userSpaceOnUse" gradientTransform="matrix(0 229.568 -210.226 0 571.363 490.136)"><stop offset=".234" stop-color="#EEE"/><stop offset=".49" stop-color="#29272F"/><stop offset=".677" stop-color="#133108"/><stop offset=".927" stop-color="#9CF741"/></radialGradient><radialGradient id="J" cx="0" cy="0" r="1" gradientUnits="userSpaceOnUse" gradientTransform="matrix(0 232.026 -241.539 0 571.5 490.137)"><stop offset=".234" stop-color="#EEE"/><stop offset=".49" stop-color="#29272F"/><stop offset=".677" stop-color="#133108"/><stop offset=".927" stop-color="#9CF741"/></radialGradient><radialGradient id="K" cx="0" cy="0" r="1" gradientUnits="userSpaceOnUse" gradientTransform="matrix(0 234.758 -259.886 0 571.362 490.137)"><stop offset=".234" stop-color="#EEE"/><stop offset=".49" stop-color="#29272F"/><stop offset=".677" stop-color="#133108"/><stop offset=".927" stop-color="#9CF741"/></radialGradient><radialGradient id="L" cx="0" cy="0" r="1" gradientUnits="userSpaceOnUse" gradientTransform="matrix(0 253.194 -268.438 0 571.362 490.001)"><stop offset=".234" stop-color="#EEE"/><stop offset=".49" stop-color="#29272F"/><stop offset=".677" stop-color="#133108"/><stop offset=".927" stop-color="#9CF741"/></radialGradient><radialGradient id="M" cx="0" cy="0" r="1" gradientUnits="userSpaceOnUse" gradientTransform="matrix(0 246.502 -301.269 0 571.362 490.137)"><stop offset=".234" stop-color="#EEE"/><stop offset=".49" stop-color="#29272F"/><stop offset=".677" stop-color="#133108"/><stop offset=".927" stop-color="#9CF741"/></radialGradient><radialGradient id="N" cx="0" cy="0" r="1" gradientUnits="userSpaceOnUse" gradientTransform="matrix(0 260.432 -312.856 0 571.363 490.137)"><stop offset=".234" stop-color="#EEE"/><stop offset=".49" stop-color="#29272F"/><stop offset=".677" stop-color="#133108"/><stop offset=".927" stop-color="#9CF741"/></radialGradient><radialGradient id="O" cx="0" cy="0" r="1" gradientUnits="userSpaceOnUse" gradientTransform="matrix(0 286.789 -319.477 0 571.361 490)"><stop offset=".234" stop-color="#EEE"/><stop offset=".49" stop-color="#29272F"/><stop offset=".677" stop-color="#133108"/><stop offset=".927" stop-color="#9CF741"/></radialGradient><radialGradient id="P" cx="0" cy="0" r="1" gradientUnits="userSpaceOnUse" gradientTransform="matrix(0 298.671 -350.79 0 571.499 490.137)"><stop offset=".234" stop-color="#EEE"/><stop offset=".49" stop-color="#29272F"/><stop offset=".677" stop-color="#133108"/><stop offset=".927" stop-color="#9CF741"/></radialGradient><radialGradient id="Q" cx="0" cy="0" r="1" gradientUnits="userSpaceOnUse" gradientTransform="matrix(0 339.641 -351.756 0 571.361 490.137)"><stop offset=".234" stop-color="#EEE"/><stop offset=".49" stop-color="#29272F"/><stop offset=".677" stop-color="#133108"/><stop offset=".927" stop-color="#9CF741"/></radialGradient><radialGradient id="R" cx="0" cy="0" r="1" gradientUnits="userSpaceOnUse" gradientTransform="matrix(0 359.852 -354.791 0 571.362 490.137)"><stop offset=".234" stop-color="#EEE"/><stop offset=".49" stop-color="#29272F"/><stop offset=".677" stop-color="#133108"/><stop offset=".927" stop-color="#9CF741"/></radialGradient><radialGradient id="S" cx="0" cy="0" r="1" gradientUnits="userSpaceOnUse" gradientTransform="matrix(0 370.095 -380.862 0 571.501 490)"><stop offset=".234" stop-color="#EEE"/><stop offset=".49" stop-color="#29272F"/><stop offset=".677" stop-color="#133108"/><stop offset=".927" stop-color="#9CF741"/></radialGradient><radialGradient id="T" cx="0" cy="0" r="1" gradientUnits="userSpaceOnUse" gradientTransform="matrix(0 411.611 -367.206 0 571.363 490.001)"><stop offset=".234" stop-color="#EEE"/><stop offset=".49" stop-color="#29272F"/><stop offset=".677" stop-color="#133108"/><stop offset=".927" stop-color="#9CF741"/></radialGradient><radialGradient id="U" cx="0" cy="0" r="1" gradientUnits="userSpaceOnUse" gradientTransform="matrix(0 421.307 -413.555 0 571.362 490.138)"><stop offset=".234" stop-color="#EEE"/><stop offset=".49" stop-color="#29272F"/><stop offset=".677" stop-color="#133108"/><stop offset=".927" stop-color="#9CF741"/></radialGradient><radialGradient id="V" cx="0" cy="0" r="1" gradientUnits="userSpaceOnUse" gradientTransform="matrix(0 428.136 -451.213 0 571.5 490.137)"><stop offset=".234" stop-color="#EEE"/><stop offset=".49" stop-color="#29272F"/><stop offset=".677" stop-color="#133108"/><stop offset=".927" stop-color="#9CF741"/></radialGradient><radialGradient id="W" cx="0" cy="0" r="1" gradientUnits="userSpaceOnUse" gradientTransform="matrix(0 465.828 -468.456 0 571.361 490.137)"><stop offset=".234" stop-color="#EEE"/><stop offset=".49" stop-color="#29272F"/><stop offset=".677" stop-color="#133108"/><stop offset=".927" stop-color="#9CF741"/></radialGradient><radialGradient id="X" cx="0" cy="0" r="1" gradientUnits="userSpaceOnUse" gradientTransform="matrix(0 459.955 -530.117 0 571.5 490)"><stop offset=".234" stop-color="#EEE"/><stop offset=".49" stop-color="#29272F"/><stop offset=".677" stop-color="#133108"/><stop offset=".927" stop-color="#9CF741"/></radialGradient><radialGradient id="Y" cx="0" cy="0" r="1" gradientUnits="userSpaceOnUse" gradientTransform="matrix(0 461.458 -557.292 0 571.362 490.137)"><stop offset=".234" stop-color="#EEE"/><stop offset=".49" stop-color="#29272F"/><stop offset=".677" stop-color="#133108"/><stop offset=".927" stop-color="#9CF741"/></radialGradient><radialGradient id="Z" cx="0" cy="0" r="1" gradientUnits="userSpaceOnUse" gradientTransform="matrix(0 490 -571.5 0 571.5 490)"><stop offset=".234" stop-color="#EEE"/><stop offset=".49" stop-color="#29272F"/><stop offset=".677" stop-color="#133108"/><stop offset=".927" stop-color="#9CF741"/></radialGradient><clipPath id="a"><path fill="#fff" d="M0 0h1143v980H0z"/></clipPath></defs></svg>