<svg width="614" height="667" viewBox="0 0 614 667" fill="none" xmlns="http://www.w3.org/2000/svg">
<g clip-path="url(#clip0_419_127)">
<path d="M310.9 342.015C333.788 331.12 350.502 318.422 348.232 313.654C345.962 308.886 325.568 313.852 302.681 324.747C279.793 335.642 263.079 348.34 265.349 353.108C267.619 357.876 288.013 352.909 310.9 342.015Z" stroke="url(#paint0_linear_419_127)" stroke-width="2" stroke-miterlimit="10"/>
<path d="M311.237 342.239C335.716 329.99 353.581 316.104 351.139 311.224C348.697 306.343 326.873 312.317 302.394 324.567C277.915 336.816 260.05 350.702 262.492 355.582C264.934 360.462 286.758 354.488 311.237 342.239Z" stroke="url(#paint1_linear_419_127)" stroke-width="2" stroke-miterlimit="10"/>
<path d="M311.677 342.402C337.868 328.666 356.979 313.486 354.363 308.497C351.746 303.508 328.393 310.6 302.202 324.337C276.011 338.073 256.9 353.253 259.517 358.242C262.133 363.231 285.486 356.139 311.677 342.402Z" stroke="url(#paint2_linear_419_127)" stroke-width="2" stroke-miterlimit="10"/>
<path d="M311.741 342.692C339.679 327.376 360.063 310.831 357.27 305.737C354.478 300.644 329.567 308.931 301.629 324.247C273.692 339.562 253.308 356.108 256.1 361.201C258.892 366.295 283.804 358.008 311.741 342.692Z" stroke="url(#paint3_linear_419_127)" stroke-width="2" stroke-miterlimit="10"/>
<path d="M312.242 342.864C341.964 325.868 363.651 307.879 360.68 302.683C357.709 297.487 331.205 307.053 301.483 324.049C271.76 341.044 250.073 359.034 253.044 364.23C256.015 369.426 282.519 359.86 312.242 342.864Z" stroke="url(#paint4_linear_419_127)" stroke-width="2" stroke-miterlimit="10"/>
<path d="M312.502 342.955C344.115 324.137 367.188 304.59 364.036 299.296C360.885 294.002 332.703 304.965 301.089 323.784C269.476 342.602 246.403 362.15 249.555 367.444C252.706 372.738 280.889 361.774 312.502 342.955Z" stroke="url(#paint5_linear_419_127)" stroke-width="2" stroke-miterlimit="10"/>
<path d="M312.76 343.363C346.293 322.622 370.736 301.379 367.357 295.915C363.977 290.451 334.054 302.835 300.521 323.576C266.989 344.317 242.545 365.561 245.925 371.025C249.305 376.489 279.228 364.104 312.76 343.363Z" stroke="url(#paint6_linear_419_127)" stroke-width="2" stroke-miterlimit="10"/>
<path d="M313.187 343.621C348.739 320.803 374.631 297.742 371.018 292.113C367.405 286.483 335.655 300.418 300.103 323.237C264.551 346.055 238.659 369.117 242.272 374.746C245.885 380.375 277.635 366.44 313.187 343.621Z" stroke="url(#paint7_linear_419_127)" stroke-width="2" stroke-miterlimit="10"/>
<path d="M313.732 343.836C351.253 318.879 378.548 293.953 374.697 288.164C370.846 282.375 337.307 297.913 299.786 322.871C262.266 347.828 234.97 372.753 238.821 378.543C242.672 384.332 276.211 368.793 313.732 343.836Z" stroke="url(#paint8_linear_419_127)" stroke-width="2" stroke-miterlimit="10"/>
<path d="M314.202 344.336C353.786 317.086 382.557 290.177 378.465 284.232C374.373 278.288 338.966 295.558 299.382 322.808C259.799 350.057 231.028 376.966 235.12 382.911C239.212 388.856 274.619 371.585 314.202 344.336Z" stroke="url(#paint9_linear_419_127)" stroke-width="2" stroke-miterlimit="10"/>
<path d="M314.896 344.532C356.627 314.819 386.897 285.734 382.507 279.567C378.116 273.401 340.728 292.489 298.997 322.201C257.266 351.914 226.996 380.999 231.386 387.166C235.777 393.332 273.165 374.244 314.896 344.532Z" stroke="url(#paint10_linear_419_127)" stroke-width="2" stroke-miterlimit="10"/>
<path d="M315.238 345.057C359.052 312.826 390.765 281.525 386.072 275.144C381.378 268.763 342.054 289.719 298.24 321.95C254.426 354.182 222.713 385.483 227.407 391.863C232.101 398.244 271.424 377.288 315.238 345.057Z" stroke="url(#paint11_linear_419_127)" stroke-width="2" stroke-miterlimit="10"/>
<path d="M315.675 345.342C361.648 310.418 394.859 276.766 389.855 270.178C384.85 263.591 343.525 286.562 297.552 321.487C251.579 356.411 218.367 390.063 223.372 396.651C228.376 403.238 269.702 380.267 315.675 345.342Z" stroke="url(#paint12_linear_419_127)" stroke-width="2" stroke-miterlimit="10"/>
<path d="M316.413 345.633C364.552 307.891 399.262 271.792 393.94 265.004C388.618 258.216 345.28 283.31 297.141 321.052C249.002 358.794 214.292 394.892 219.614 401.68C224.936 408.468 268.274 383.375 316.413 345.633Z" stroke="url(#paint13_linear_419_127)" stroke-width="2" stroke-miterlimit="10"/>
<path d="M317.172 346.213C367.543 305.478 403.755 266.742 398.054 259.693C392.353 252.644 346.899 279.951 296.528 320.686C246.158 361.421 209.945 400.157 215.646 407.206C221.347 414.255 266.801 386.948 317.172 346.213Z" stroke="url(#paint14_linear_419_127)" stroke-width="2" stroke-miterlimit="10"/>
<path d="M317.888 346.793C370.408 302.993 408.003 261.514 401.859 254.147C395.715 246.779 348.158 276.313 295.637 320.112C243.117 363.911 205.522 405.391 211.666 412.758C217.811 420.126 265.368 390.592 317.888 346.793Z" stroke="url(#paint15_linear_419_127)" stroke-width="2" stroke-miterlimit="10"/>
<path d="M318.846 347.266C373.506 300.267 412.467 255.945 405.868 248.27C399.269 240.595 349.608 272.473 294.948 319.472C240.288 366.471 201.327 410.793 207.927 418.468C214.526 426.143 264.187 394.265 318.846 347.266Z" stroke="url(#paint16_linear_419_127)" stroke-width="2" stroke-miterlimit="10"/>
<path d="M319.681 347.788C376.459 297.46 416.76 250.201 409.696 242.231C402.631 234.261 350.877 268.598 294.099 318.926C237.321 369.253 197.02 416.512 204.084 424.482C211.149 432.452 262.904 398.115 319.681 347.788Z" stroke="url(#paint17_linear_419_127)" stroke-width="2" stroke-miterlimit="10"/>
<path d="M320.518 348.56C379.452 294.715 421.068 244.323 413.469 236.006C405.87 227.689 351.934 264.596 293 318.442C234.066 372.287 192.45 422.679 200.049 430.996C207.648 439.313 261.584 402.406 320.518 348.56Z" stroke="url(#paint18_linear_419_127)" stroke-width="2" stroke-miterlimit="10"/>
<path d="M321.582 349.104C382.512 291.712 425.3 238.175 417.153 229.526C409.006 220.876 353.008 260.39 292.079 317.782C231.149 375.174 188.36 428.711 196.508 437.36C204.655 446.01 260.652 406.496 321.582 349.104Z" stroke="url(#paint19_linear_419_127)" stroke-width="2" stroke-miterlimit="10"/>
<path d="M322.749 349.803C385.694 288.663 429.562 231.729 420.731 222.638C411.901 213.546 353.715 255.74 290.771 316.88C227.826 378.021 183.958 434.954 192.788 444.046C201.619 453.137 259.804 410.943 322.749 349.803Z" stroke="url(#paint20_linear_419_127)" stroke-width="2" stroke-miterlimit="10"/>
<path d="M323.95 350.544C388.805 285.574 433.705 225.244 424.237 215.792C414.768 206.341 354.517 251.347 289.662 316.317C224.807 381.287 179.907 441.617 189.375 451.069C198.844 460.52 259.095 415.514 323.95 350.544Z" stroke="url(#paint21_linear_419_127)" stroke-width="2" stroke-miterlimit="10"/>
<path d="M325.271 351.224C391.911 282.334 437.625 218.452 427.377 208.538C417.129 198.625 354.799 246.435 288.16 315.325C221.52 384.215 175.806 448.098 186.054 458.011C196.302 467.925 258.632 420.114 325.271 351.224Z" stroke="url(#paint22_linear_419_127)" stroke-width="2" stroke-miterlimit="10"/>
<path d="M326.95 352.336C395.323 279.381 441.744 211.799 430.633 201.387C419.523 190.974 355.09 241.675 286.717 314.629C218.344 387.584 171.924 455.166 183.034 465.578C194.144 475.991 258.577 425.29 326.95 352.336Z" stroke="url(#paint23_linear_419_127)" stroke-width="2" stroke-miterlimit="10"/>
<path d="M328.416 353.171C398.316 276.124 445.259 204.845 433.265 193.964C421.272 183.082 354.883 236.72 284.983 313.766C215.083 390.812 168.14 462.092 180.134 472.973C192.127 483.855 258.515 430.217 328.416 353.171Z" stroke="url(#paint24_linear_419_127)" stroke-width="2" stroke-miterlimit="10"/>
<path d="M330.35 353.954C401.697 272.648 448.97 197.466 435.937 186.03C422.904 174.593 354.501 231.234 283.154 312.539C211.808 393.845 164.535 469.027 177.568 480.464C190.6 491.9 259.003 435.26 330.35 353.954Z" stroke="url(#paint25_linear_419_127)" stroke-width="2" stroke-miterlimit="10"/>
<path d="M332.408 355.104C404.996 269.524 452.36 190.41 438.197 178.397C424.035 166.384 353.709 226.022 281.12 311.602C208.531 397.183 161.168 476.297 175.33 488.31C189.493 500.323 259.819 440.685 332.408 355.104Z" stroke="url(#paint26_linear_419_127)" stroke-width="2" stroke-miterlimit="10"/>
<path d="M334.731 356.424C408.401 266.478 455.592 183.3 440.135 170.641C424.679 157.982 352.428 220.635 278.759 310.581C205.089 400.527 157.898 483.705 173.354 496.364C188.811 509.024 261.061 446.37 334.731 356.424Z" stroke="url(#paint27_linear_419_127)" stroke-width="2" stroke-miterlimit="10"/>
<path d="M337.106 357.413C411.569 263.135 458.327 175.962 441.543 162.706C424.76 149.45 350.79 215.131 276.328 309.409C201.865 403.687 155.107 490.86 171.89 504.116C188.674 517.372 262.643 451.691 337.106 357.413Z" stroke="url(#paint28_linear_419_127)" stroke-width="2" stroke-miterlimit="10"/>
<path d="M339.865 358.665C414.939 259.966 460.921 168.638 442.568 154.678C424.215 140.718 348.477 209.413 273.403 308.112C198.329 406.811 152.347 498.139 170.7 512.099C189.052 526.059 264.79 457.364 339.865 358.665Z" stroke="url(#paint29_linear_419_127)" stroke-width="2" stroke-miterlimit="10"/>
<path d="M343.165 359.925C418.611 256.773 463.475 161.231 443.37 146.527C423.265 131.822 345.806 203.522 270.36 306.674C194.913 409.826 150.05 505.368 170.155 520.073C190.259 534.778 267.719 463.077 343.165 359.925Z" stroke="url(#paint30_linear_419_127)" stroke-width="2" stroke-miterlimit="10"/>
<path d="M346.639 361.233C422.201 253.61 465.645 153.86 443.674 138.434C421.703 123.008 342.637 197.748 267.075 305.37C191.513 412.992 148.069 512.743 170.04 528.168C192.011 543.594 271.077 468.855 346.639 361.233Z" stroke="url(#paint31_linear_419_127)" stroke-width="2" stroke-miterlimit="10"/>
<path d="M350.606 362.76C425.912 250.799 467.362 146.855 443.188 130.595C419.013 114.335 338.369 191.917 263.063 303.878C187.757 415.84 146.306 519.784 170.481 536.044C194.655 552.303 275.3 474.722 350.606 362.76Z" stroke="url(#paint32_linear_419_127)" stroke-width="2" stroke-miterlimit="10"/>
<path d="M354.842 364.28C429.621 247.97 468.754 139.869 442.25 122.828C415.745 105.787 333.639 186.261 258.86 302.57C184.082 418.88 144.948 526.982 171.453 544.022C197.957 561.063 280.064 480.589 354.842 364.28Z" stroke="url(#paint33_linear_419_127)" stroke-width="2" stroke-miterlimit="10"/>
<path d="M359.482 365.768C433.383 245.178 469.629 132.919 440.438 115.03C411.247 97.141 327.675 180.396 253.773 300.986C179.871 421.576 143.626 533.835 172.816 551.725C202.007 569.614 285.58 486.358 359.482 365.768Z" stroke="url(#paint34_linear_419_127)" stroke-width="2" stroke-miterlimit="10"/>
<path d="M365.172 367.544C437.877 242.749 470.676 126.353 438.432 107.568C406.187 88.7826 321.109 174.721 248.404 299.516C175.699 424.312 142.9 540.707 175.145 559.492C207.389 578.278 292.467 492.34 365.172 367.544Z" stroke="url(#paint35_linear_419_127)" stroke-width="2" stroke-miterlimit="10"/>
<path d="M371.319 369.031C442.422 240.185 471.202 119.808 435.6 100.161C399.998 80.5138 313.496 169.037 242.392 297.882C171.288 426.728 142.509 547.105 178.111 566.752C213.713 586.399 300.215 497.876 371.319 369.031Z" stroke="url(#paint36_linear_419_127)" stroke-width="2" stroke-miterlimit="10"/>
<path d="M378.262 370.557C447.407 237.762 471.501 113.469 432.076 92.9411C392.652 72.4129 304.638 163.423 235.492 296.218C166.347 429.013 142.253 553.306 181.678 573.834C221.102 594.362 309.116 503.352 378.262 370.557Z" stroke="url(#paint37_linear_419_127)" stroke-width="2" stroke-miterlimit="10"/>
<path d="M385.707 372.021C452.486 235.478 471.241 107.485 427.598 86.1402C383.955 64.7957 294.44 158.182 227.661 294.725C160.882 431.268 142.127 559.261 185.77 580.606C229.413 601.95 318.928 508.563 385.707 372.021Z" stroke="url(#paint38_linear_419_127)" stroke-width="2" stroke-miterlimit="10"/>
<path d="M394.53 373.652C458.559 233.573 471.141 102.043 422.634 79.8705C374.126 57.6983 282.898 153.281 218.869 293.36C154.841 433.439 142.259 564.97 190.766 587.142C239.273 609.314 330.502 513.732 394.53 373.652Z" stroke="url(#paint39_linear_419_127)" stroke-width="2" stroke-miterlimit="10"/>
<path d="M404.227 374.803C465.103 231.408 470.778 96.622 416.903 73.7508C363.029 50.8797 270.006 148.584 209.131 291.979C148.255 435.374 142.58 570.16 196.455 593.031C250.329 615.902 343.352 518.198 404.227 374.803Z" stroke="url(#paint40_linear_419_127)" stroke-width="2" stroke-miterlimit="10"/>
<path d="M415.34 376.01C472.686 229.56 470.543 91.7966 410.554 68.3062C350.564 44.8158 255.445 144.494 198.099 290.944C140.753 437.393 142.896 575.157 202.885 598.647C262.875 622.138 357.994 522.46 415.34 376.01Z" stroke="url(#paint41_linear_419_127)" stroke-width="2" stroke-miterlimit="10"/>
<path d="M427.834 376.773C481.275 227.54 470.389 87.1504 403.52 63.2044C336.651 39.2584 239.121 140.824 185.68 290.057C132.239 439.29 143.125 579.679 209.994 603.625C276.863 627.571 374.393 526.006 427.834 376.773Z" stroke="url(#paint42_linear_419_127)" stroke-width="2" stroke-miterlimit="10"/>
<path d="M441.671 377.18C490.873 225.392 470.286 82.7421 395.69 58.5619C321.094 34.3817 220.736 137.828 171.534 289.616C122.332 441.404 142.919 584.054 217.515 608.234C292.111 632.415 392.469 528.968 441.671 377.18Z" stroke="url(#paint43_linear_419_127)" stroke-width="2" stroke-miterlimit="10"/>
<path d="M457.535 377.121C502.183 223.1 470.876 78.6739 387.61 54.5368C304.344 30.3997 200.649 135.691 156.002 289.713C111.354 443.734 142.661 588.16 225.927 612.297C309.193 636.434 412.888 531.142 457.535 377.121Z" stroke="url(#paint44_linear_419_127)" stroke-width="2" stroke-miterlimit="10"/>
<path d="M475.041 376.352C514.823 220.459 471.717 74.853 378.761 51.1319C285.805 27.4108 178.2 134.557 138.418 290.45C98.6363 446.343 141.742 591.949 234.698 615.671C327.654 639.392 435.26 532.245 475.041 376.352Z" stroke="url(#paint45_linear_419_127)" stroke-width="2" stroke-miterlimit="10"/>
<path d="M494.858 374.899C529.555 217.349 473.442 71.0778 369.526 48.1928C265.61 25.3078 153.242 134.475 118.545 292.025C83.8489 449.575 139.962 595.846 243.878 618.731C347.794 641.616 460.162 532.449 494.858 374.899Z" stroke="url(#paint46_linear_419_127)" stroke-width="2" stroke-miterlimit="10"/>
<path d="M516.892 372.185C546.291 213.284 476.038 67.0615 359.978 45.5886C243.917 24.1156 125.999 135.523 96.6 294.425C67.2009 453.326 137.454 599.548 253.514 621.021C369.574 642.494 487.492 531.086 516.892 372.185Z" stroke="url(#paint47_linear_419_127)" stroke-width="2" stroke-miterlimit="10"/>
<path d="M541.269 368.559C565.205 208.666 479.546 63.3184 349.942 43.9165C220.339 24.5146 95.8708 138.405 71.9344 298.299C47.998 458.192 133.658 603.539 263.261 622.941C392.864 642.343 517.333 528.452 541.269 368.559Z" stroke="url(#paint48_linear_419_127)" stroke-width="2" stroke-miterlimit="10"/>
<path d="M568.691 363.275C587.08 202.548 484.736 58.8374 340.098 42.2894C195.461 25.7415 63.302 142.622 44.9131 303.35C26.5243 464.077 128.869 607.788 273.506 624.336C418.144 640.884 550.303 524.003 568.691 363.275Z" stroke="url(#paint49_linear_419_127)" stroke-width="2" stroke-miterlimit="10"/>
<path d="M293.86 626.04C455.473 633.172 592.268 507.941 599.401 346.328C606.533 184.715 481.302 47.9198 319.689 40.7874C158.076 33.655 21.2805 158.886 14.1482 320.499C7.01575 482.112 132.247 618.908 293.86 626.04Z" stroke="url(#paint50_linear_419_127)" stroke-width="2" stroke-miterlimit="10"/>
</g>
<defs>
<linearGradient id="paint0_linear_419_127" x1="302.681" y1="324.747" x2="310.9" y2="342.015" gradientUnits="userSpaceOnUse">
<stop stop-color="#4E9942"/>
<stop offset="1" stop-color="#7B6E78"/>
</linearGradient>
<linearGradient id="paint1_linear_419_127" x1="302.394" y1="324.567" x2="311.237" y2="342.239" gradientUnits="userSpaceOnUse">
<stop stop-color="#4E9942"/>
<stop offset="1" stop-color="#7B6E78"/>
</linearGradient>
<linearGradient id="paint2_linear_419_127" x1="302.202" y1="324.337" x2="311.677" y2="342.402" gradientUnits="userSpaceOnUse">
<stop stop-color="#4E9942"/>
<stop offset="1" stop-color="#7B6E78"/>
</linearGradient>
<linearGradient id="paint3_linear_419_127" x1="301.629" y1="324.247" x2="311.741" y2="342.692" gradientUnits="userSpaceOnUse">
<stop stop-color="#4E9942"/>
<stop offset="1" stop-color="#7B6E78"/>
</linearGradient>
<linearGradient id="paint4_linear_419_127" x1="301.483" y1="324.049" x2="312.242" y2="342.864" gradientUnits="userSpaceOnUse">
<stop stop-color="#4E9942"/>
<stop offset="1" stop-color="#7B6E78"/>
</linearGradient>
<linearGradient id="paint5_linear_419_127" x1="301.089" y1="323.784" x2="312.502" y2="342.956" gradientUnits="userSpaceOnUse">
<stop stop-color="#4E9942"/>
<stop offset="1" stop-color="#7B6E78"/>
</linearGradient>
<linearGradient id="paint6_linear_419_127" x1="300.521" y1="323.576" x2="312.76" y2="343.363" gradientUnits="userSpaceOnUse">
<stop stop-color="#4E9942"/>
<stop offset="1" stop-color="#7B6E78"/>
</linearGradient>
<linearGradient id="paint7_linear_419_127" x1="300.103" y1="323.237" x2="313.187" y2="343.621" gradientUnits="userSpaceOnUse">
<stop stop-color="#4E9942"/>
<stop offset="1" stop-color="#7B6E78"/>
</linearGradient>
<linearGradient id="paint8_linear_419_127" x1="299.786" y1="322.871" x2="313.732" y2="343.836" gradientUnits="userSpaceOnUse">
<stop stop-color="#4E9942"/>
<stop offset="1" stop-color="#7B6E78"/>
</linearGradient>
<linearGradient id="paint9_linear_419_127" x1="299.382" y1="322.808" x2="314.202" y2="344.336" gradientUnits="userSpaceOnUse">
<stop stop-color="#4E9942"/>
<stop offset="1" stop-color="#7B6E78"/>
</linearGradient>
<linearGradient id="paint10_linear_419_127" x1="298.997" y1="322.201" x2="314.896" y2="344.532" gradientUnits="userSpaceOnUse">
<stop stop-color="#4E9942"/>
<stop offset="1" stop-color="#7B6E78"/>
</linearGradient>
<linearGradient id="paint11_linear_419_127" x1="298.24" y1="321.95" x2="315.238" y2="345.057" gradientUnits="userSpaceOnUse">
<stop stop-color="#4E9942"/>
<stop offset="1" stop-color="#7B6E78"/>
</linearGradient>
<linearGradient id="paint12_linear_419_127" x1="297.552" y1="321.487" x2="315.675" y2="345.342" gradientUnits="userSpaceOnUse">
<stop stop-color="#4E9942"/>
<stop offset="1" stop-color="#7B6E78"/>
</linearGradient>
<linearGradient id="paint13_linear_419_127" x1="297.141" y1="321.052" x2="316.413" y2="345.633" gradientUnits="userSpaceOnUse">
<stop stop-color="#4E9942"/>
<stop offset="1" stop-color="#7B6E78"/>
</linearGradient>
<linearGradient id="paint14_linear_419_127" x1="296.528" y1="320.686" x2="317.172" y2="346.213" gradientUnits="userSpaceOnUse">
<stop stop-color="#4E9942"/>
<stop offset="1" stop-color="#7B6E78"/>
</linearGradient>
<linearGradient id="paint15_linear_419_127" x1="295.637" y1="320.112" x2="317.888" y2="346.793" gradientUnits="userSpaceOnUse">
<stop stop-color="#4E9942"/>
<stop offset="1" stop-color="#7B6E78"/>
</linearGradient>
<linearGradient id="paint16_linear_419_127" x1="294.948" y1="319.472" x2="318.846" y2="347.266" gradientUnits="userSpaceOnUse">
<stop stop-color="#4E9942"/>
<stop offset="1" stop-color="#7B6E78"/>
</linearGradient>
<linearGradient id="paint17_linear_419_127" x1="294.099" y1="318.926" x2="319.681" y2="347.788" gradientUnits="userSpaceOnUse">
<stop stop-color="#4E9942"/>
<stop offset="1" stop-color="#7B6E78"/>
</linearGradient>
<linearGradient id="paint18_linear_419_127" x1="293" y1="318.442" x2="320.518" y2="348.56" gradientUnits="userSpaceOnUse">
<stop stop-color="#4E9942"/>
<stop offset="1" stop-color="#7B6E78"/>
</linearGradient>
<linearGradient id="paint19_linear_419_127" x1="292.079" y1="317.782" x2="321.582" y2="349.104" gradientUnits="userSpaceOnUse">
<stop stop-color="#4E9942"/>
<stop offset="1" stop-color="#7B6E78"/>
</linearGradient>
<linearGradient id="paint20_linear_419_127" x1="290.77" y1="316.88" x2="322.749" y2="349.803" gradientUnits="userSpaceOnUse">
<stop stop-color="#4E9942"/>
<stop offset="1" stop-color="#7B6E78"/>
</linearGradient>
<linearGradient id="paint21_linear_419_127" x1="289.662" y1="316.317" x2="323.95" y2="350.544" gradientUnits="userSpaceOnUse">
<stop stop-color="#4E9942"/>
<stop offset="1" stop-color="#7B6E78"/>
</linearGradient>
<linearGradient id="paint22_linear_419_127" x1="288.16" y1="315.325" x2="325.271" y2="351.224" gradientUnits="userSpaceOnUse">
<stop stop-color="#4E9942"/>
<stop offset="1" stop-color="#7B6E78"/>
</linearGradient>
<linearGradient id="paint23_linear_419_127" x1="286.717" y1="314.629" x2="326.95" y2="352.336" gradientUnits="userSpaceOnUse">
<stop stop-color="#4E9942"/>
<stop offset="1" stop-color="#7B6E78"/>
</linearGradient>
<linearGradient id="paint24_linear_419_127" x1="284.983" y1="313.766" x2="328.416" y2="353.171" gradientUnits="userSpaceOnUse">
<stop stop-color="#4E9942"/>
<stop offset="1" stop-color="#7B6E78"/>
</linearGradient>
<linearGradient id="paint25_linear_419_127" x1="283.154" y1="312.539" x2="330.35" y2="353.954" gradientUnits="userSpaceOnUse">
<stop stop-color="#4E9942"/>
<stop offset="1" stop-color="#7B6E78"/>
</linearGradient>
<linearGradient id="paint26_linear_419_127" x1="281.12" y1="311.602" x2="332.408" y2="355.104" gradientUnits="userSpaceOnUse">
<stop stop-color="#4E9942"/>
<stop offset="1" stop-color="#7B6E78"/>
</linearGradient>
<linearGradient id="paint27_linear_419_127" x1="278.759" y1="310.581" x2="334.731" y2="356.424" gradientUnits="userSpaceOnUse">
<stop stop-color="#4E9942"/>
<stop offset="1" stop-color="#7B6E78"/>
</linearGradient>
<linearGradient id="paint28_linear_419_127" x1="276.328" y1="309.409" x2="337.106" y2="357.413" gradientUnits="userSpaceOnUse">
<stop stop-color="#4E9942"/>
<stop offset="1" stop-color="#7B6E78"/>
</linearGradient>
<linearGradient id="paint29_linear_419_127" x1="273.403" y1="308.112" x2="339.865" y2="358.665" gradientUnits="userSpaceOnUse">
<stop stop-color="#4E9942"/>
<stop offset="1" stop-color="#7B6E78"/>
</linearGradient>
<linearGradient id="paint30_linear_419_127" x1="270.36" y1="306.675" x2="343.165" y2="359.925" gradientUnits="userSpaceOnUse">
<stop stop-color="#4E9942"/>
<stop offset="1" stop-color="#7B6E78"/>
</linearGradient>
<linearGradient id="paint31_linear_419_127" x1="267.075" y1="305.37" x2="346.639" y2="361.233" gradientUnits="userSpaceOnUse">
<stop stop-color="#4E9942"/>
<stop offset="1" stop-color="#7B6E78"/>
</linearGradient>
<linearGradient id="paint32_linear_419_127" x1="263.063" y1="303.878" x2="350.606" y2="362.76" gradientUnits="userSpaceOnUse">
<stop stop-color="#4E9942"/>
<stop offset="1" stop-color="#7B6E78"/>
</linearGradient>
<linearGradient id="paint33_linear_419_127" x1="258.86" y1="302.57" x2="354.842" y2="364.28" gradientUnits="userSpaceOnUse">
<stop stop-color="#4E9942"/>
<stop offset="1" stop-color="#7B6E78"/>
</linearGradient>
<linearGradient id="paint34_linear_419_127" x1="253.773" y1="300.986" x2="359.482" y2="365.768" gradientUnits="userSpaceOnUse">
<stop stop-color="#4E9942"/>
<stop offset="1" stop-color="#7B6E78"/>
</linearGradient>
<linearGradient id="paint35_linear_419_127" x1="248.404" y1="299.516" x2="365.172" y2="367.544" gradientUnits="userSpaceOnUse">
<stop stop-color="#4E9942"/>
<stop offset="1" stop-color="#7B6E78"/>
</linearGradient>
<linearGradient id="paint36_linear_419_127" x1="242.392" y1="297.882" x2="371.319" y2="369.031" gradientUnits="userSpaceOnUse">
<stop stop-color="#4E9942"/>
<stop offset="1" stop-color="#7B6E78"/>
</linearGradient>
<linearGradient id="paint37_linear_419_127" x1="235.492" y1="296.218" x2="378.262" y2="370.557" gradientUnits="userSpaceOnUse">
<stop stop-color="#4E9942"/>
<stop offset="1" stop-color="#7B6E78"/>
</linearGradient>
<linearGradient id="paint38_linear_419_127" x1="227.661" y1="294.725" x2="385.707" y2="372.021" gradientUnits="userSpaceOnUse">
<stop stop-color="#4E9942"/>
<stop offset="1" stop-color="#7B6E78"/>
</linearGradient>
<linearGradient id="paint39_linear_419_127" x1="218.869" y1="293.36" x2="394.53" y2="373.652" gradientUnits="userSpaceOnUse">
<stop stop-color="#4E9942"/>
<stop offset="1" stop-color="#7B6E78"/>
</linearGradient>
<linearGradient id="paint40_linear_419_127" x1="209.131" y1="291.979" x2="404.227" y2="374.803" gradientUnits="userSpaceOnUse">
<stop stop-color="#4E9942"/>
<stop offset="1" stop-color="#7B6E78"/>
</linearGradient>
<linearGradient id="paint41_linear_419_127" x1="198.099" y1="290.944" x2="415.34" y2="376.01" gradientUnits="userSpaceOnUse">
<stop stop-color="#4E9942"/>
<stop offset="1" stop-color="#7B6E78"/>
</linearGradient>
<linearGradient id="paint42_linear_419_127" x1="185.68" y1="290.057" x2="427.834" y2="376.773" gradientUnits="userSpaceOnUse">
<stop stop-color="#4E9942"/>
<stop offset="1" stop-color="#7B6E78"/>
</linearGradient>
<linearGradient id="paint43_linear_419_127" x1="171.534" y1="289.616" x2="441.671" y2="377.18" gradientUnits="userSpaceOnUse">
<stop stop-color="#4E9942"/>
<stop offset="1" stop-color="#7B6E78"/>
</linearGradient>
<linearGradient id="paint44_linear_419_127" x1="156.002" y1="289.713" x2="457.535" y2="377.121" gradientUnits="userSpaceOnUse">
<stop stop-color="#4E9942"/>
<stop offset="1" stop-color="#7B6E78"/>
</linearGradient>
<linearGradient id="paint45_linear_419_127" x1="138.418" y1="290.45" x2="475.041" y2="376.352" gradientUnits="userSpaceOnUse">
<stop stop-color="#4E9942"/>
<stop offset="1" stop-color="#7B6E78"/>
</linearGradient>
<linearGradient id="paint46_linear_419_127" x1="118.545" y1="292.025" x2="494.858" y2="374.899" gradientUnits="userSpaceOnUse">
<stop stop-color="#4E9942"/>
<stop offset="1" stop-color="#7B6E78"/>
</linearGradient>
<linearGradient id="paint47_linear_419_127" x1="96.6" y1="294.425" x2="516.892" y2="372.185" gradientUnits="userSpaceOnUse">
<stop stop-color="#4E9942"/>
<stop offset="1" stop-color="#7B6E78"/>
</linearGradient>
<linearGradient id="paint48_linear_419_127" x1="71.9344" y1="298.299" x2="541.269" y2="368.559" gradientUnits="userSpaceOnUse">
<stop stop-color="#4E9942"/>
<stop offset="1" stop-color="#7B6E78"/>
</linearGradient>
<linearGradient id="paint49_linear_419_127" x1="44.9131" y1="303.35" x2="568.691" y2="363.275" gradientUnits="userSpaceOnUse">
<stop stop-color="#4E9942"/>
<stop offset="1" stop-color="#7B6E78"/>
</linearGradient>
<linearGradient id="paint50_linear_419_127" x1="319.689" y1="40.7874" x2="293.86" y2="626.04" gradientUnits="userSpaceOnUse">
<stop stop-color="#4E9942"/>
<stop offset="1" stop-color="#7B6E78"/>
</linearGradient>
<clipPath id="clip0_419_127">
<rect width="585.822" height="641.725" fill="white" transform="translate(28.293) rotate(2.52697)"/>
</clipPath>
</defs>
</svg>
