<svg width="1143" height="980" viewBox="0 0 1143 980" fill="none" xmlns="http://www.w3.org/2000/svg">
<g clip-path="url(#clip0_419_24)">
<path d="M586.26 452.308L545.981 457.771L531.083 495.463L556.465 527.693L597.02 522.23L611.918 484.538L586.26 452.308Z" stroke="url(#paint0_angular_419_24)" stroke-miterlimit="10"/>
<path d="M616.884 487.542L592.054 453.4L546.809 456.132L526.117 492.458L550.671 526.6L595.917 524.142L616.884 487.542Z" stroke="url(#paint1_angular_419_24)" stroke-miterlimit="10"/>
<path d="M595.365 529.604L618.264 493.277L594.537 453.673L547.636 450.396L524.462 486.995L548.464 526.599L595.365 529.604Z" stroke="url(#paint2_angular_419_24)" stroke-miterlimit="10"/>
<path d="M542.393 528.239L590.122 533.428L619.366 495.463L600.605 452.035L552.601 446.572L523.633 484.811L542.393 528.239Z" stroke="url(#paint3_angular_419_24)" stroke-miterlimit="10"/>
<path d="M518.943 480.167L536.048 525.234L588.467 535.34L623.781 500.106L606.676 454.766L554.257 444.934L518.943 480.167Z" stroke="url(#paint4_angular_419_24)" stroke-miterlimit="10"/>
<path d="M557.016 438.652L518.943 473.34L533.565 524.416L585.984 541.35L623.781 506.935L609.434 455.586L557.016 438.652Z" stroke="url(#paint5_angular_419_24)" stroke-miterlimit="10"/>
<path d="M616.884 455.313L563.913 435.92L518.668 470.608L526.117 524.689L578.811 544.354L624.333 509.666L616.884 455.313Z" stroke="url(#paint6_angular_419_24)" stroke-miterlimit="10"/>
<path d="M627.919 516.221L622.953 460.502L566.397 434.555L514.806 464.053L519.772 519.772L576.329 545.72L627.919 516.221Z" stroke="url(#paint7_angular_419_24)" stroke-miterlimit="10"/>
<path d="M571.361 551.728L625.711 523.868V462.14L571.361 428.271L517.012 456.404L517.288 518.132L571.361 551.728Z" stroke="url(#paint8_angular_419_24)" stroke-miterlimit="10"/>
<path d="M508.735 516.22L562.533 553.093L625.436 526.873L634.264 463.779L580.19 427.179L517.564 453.127L508.735 516.22Z" stroke="url(#paint9_angular_419_24)" stroke-miterlimit="10"/>
<path d="M515.357 444.66L503.218 508.846L559.223 553.913L627.643 535.34L639.782 471.427L583.501 426.087L515.357 444.66Z" stroke="url(#paint10_angular_419_24)" stroke-miterlimit="10"/>
<path d="M591.226 420.625L520.323 436.739L500.735 506.115L551.774 559.649L622.401 543.534L642.265 473.885L591.226 420.625Z" stroke="url(#paint11_angular_419_24)" stroke-miterlimit="10"/>
<path d="M651.37 478.528L601.711 421.717L521.704 433.461L491.632 501.744L541.016 558.556L621.023 546.811L651.37 478.528Z" stroke="url(#paint12_angular_419_24)" stroke-miterlimit="10"/>
<path d="M620.745 556.917L655.231 488.361L605.847 421.443L521.978 423.355L487.768 491.912L537.151 558.556L620.745 556.917Z" stroke="url(#paint13_angular_419_24)" stroke-miterlimit="10"/>
<path d="M526.669 562.654L612.47 564.566L657.163 491.913L616.056 417.621L530.255 415.708L485.562 488.089L526.669 562.654Z" stroke="url(#paint14_angular_419_24)" stroke-miterlimit="10"/>
<path d="M476.732 480.713L515.081 558.283L609.71 567.843L666.267 499.56L627.919 421.717L533.013 412.157L476.732 480.713Z" stroke="url(#paint15_angular_419_24)" stroke-miterlimit="10"/>
<path d="M536.6 400.958L475.354 468.422L510.391 557.464L606.4 579.041L667.371 511.851L632.609 422.809L536.6 400.958Z" stroke="url(#paint16_angular_419_24)" stroke-miterlimit="10"/>
<path d="M645.575 421.171L548.463 394.677L474.249 463.779L497.148 559.103L594.26 585.323L668.473 516.494L645.575 421.171Z" stroke="url(#paint17_angular_419_24)" stroke-miterlimit="10"/>
<path d="M676.475 527.418L657.715 429.09L552.602 391.671L466.525 452.58L485.286 550.908L590.123 588.327L676.475 527.418Z" stroke="url(#paint18_angular_419_24)" stroke-miterlimit="10"/>
<path d="M582.673 600.073L673.716 541.622L662.68 431.55L560.326 379.928L469.008 438.378L480.319 548.451L582.673 600.073Z" stroke="url(#paint19_angular_419_24)" stroke-miterlimit="10"/>
<path d="M464.869 546.538L566.947 603.623L673.716 547.084L678.13 433.461L575.776 376.376L469.283 432.915L464.869 546.538Z" stroke="url(#paint20_angular_419_24)" stroke-miterlimit="10"/>
<path d="M463.766 418.166L453.834 534.248L561.43 605.808L678.958 561.834L689.166 446.026L581.57 374.192L463.766 418.166Z" stroke="url(#paint21_angular_419_24)" stroke-miterlimit="10"/>
<path d="M593.985 363.267L471.215 403.144L448.868 529.878L549.015 617.007L671.509 577.129L694.132 450.123L593.985 363.267Z" stroke="url(#paint22_angular_419_24)" stroke-miterlimit="10"/>
<path d="M710.96 456.678L612.745 363.54L473.146 396.862L431.763 523.596L529.978 616.734L669.577 583.139L710.96 456.678Z" stroke="url(#paint23_angular_419_24)" stroke-miterlimit="10"/>
<path d="M670.957 601.165L719.513 473.885L620.193 362.72L471.766 378.835L423.21 506.388L522.805 617.553L670.957 601.165Z" stroke="url(#paint24_angular_419_24)" stroke-miterlimit="10"/>
<path d="M505.149 626.293L657.715 616.188L723.927 479.894L637.851 353.707L485.285 364.086L419.072 500.379L505.149 626.293Z" stroke="url(#paint25_angular_419_24)" stroke-miterlimit="10"/>
<path d="M401.692 488.088L483.631 620.557L653.301 622.47L741.309 491.912L659.095 359.443L489.425 357.531L401.692 488.088Z" stroke="url(#paint26_angular_419_24)" stroke-miterlimit="10"/>
<path d="M493.562 337.045L397.277 466.51L475.077 619.738L649.162 643.227L745.447 513.762L667.647 360.535L493.562 337.045Z" stroke="url(#paint27_angular_419_24)" stroke-miterlimit="10"/>
<path d="M690.545 355.619L513.702 323.936L394.519 458.317L452.179 624.655L629.298 656.065L748.482 521.684L690.545 355.619Z" stroke="url(#paint28_angular_419_24)" stroke-miterlimit="10"/>
<path d="M764.208 540.256L713.169 367.909L520.599 317.926L378.518 440.016L429.557 612.09L622.402 662.347L764.208 540.256Z" stroke="url(#paint29_angular_419_24)" stroke-miterlimit="10"/>
<path d="M611.089 684.197L762.275 565.657L722.548 371.46L531.91 295.802L380.724 414.342L420.175 608.539L611.089 684.197Z" stroke="url(#paint30_angular_419_24)" stroke-miterlimit="10"/>
<path d="M392.587 607.72L584.053 693.211L762.828 575.764L750.413 372.553L558.947 286.79L379.896 404.51L392.587 607.72Z" stroke="url(#paint31_angular_419_24)" stroke-miterlimit="10"/>
<path d="M367.757 379.108L370.792 587.235L574.396 698.127L774.966 600.892L772.207 393.038L568.603 282.146L367.757 379.108Z" stroke="url(#paint32_angular_419_24)" stroke-miterlimit="10"/>
<path d="M588.468 260.568L378.242 350.975L361.137 580.407L554.258 719.704L764.484 629.024L781.589 399.593L588.468 260.568Z" stroke="url(#paint33_angular_419_24)" stroke-miterlimit="10"/>
<path d="M813.039 408.606L622.125 258.11L380.724 339.777L329.961 571.667L520.599 722.163L762.276 640.496L813.039 408.606Z" stroke="url(#paint34_angular_419_24)" stroke-miterlimit="10"/>
<path d="M767.794 672.179L831.248 437.558L634.816 255.379L374.931 307.82L311.477 542.441L507.908 724.894L767.794 672.179Z" stroke="url(#paint35_angular_419_24)" stroke-miterlimit="10"/>
<path d="M478.388 743.195L746.826 701.132L839.8 447.665L664.612 236.807L396.174 279.142L302.924 532.336L478.388 743.195Z" stroke="url(#paint36_angular_419_24)" stroke-miterlimit="10"/>
<path d="M270.093 513.49L439.212 736.639L740.48 713.15L872.63 466.511L703.511 243.635L402.243 267.124L270.093 513.49Z" stroke="url(#paint37_angular_419_24)" stroke-miterlimit="10"/>
<path d="M406.106 229.705L258.507 475.525L424.039 736.093L736.895 750.569L884.219 504.477L718.962 244.181L406.106 229.705Z" stroke="url(#paint38_angular_419_24)" stroke-miterlimit="10"/>
<path d="M758.688 231.616L439.211 203.21L251.884 461.594L384.034 748.383L703.511 776.789L890.838 518.405L758.688 231.616Z" stroke="url(#paint39_angular_419_24)" stroke-miterlimit="10"/>
<path d="M922.29 548.997L801.175 250.19L450.247 191.466L220.709 431.277L341.823 729.811L692.476 788.808L922.29 548.997Z" stroke="url(#paint40_angular_419_24)" stroke-miterlimit="10"/>
<path d="M676.199 829.778L923.118 594.883L818.28 255.107L466.524 150.497L219.605 385.391L324.718 724.895L676.199 829.778Z" stroke="url(#paint41_angular_419_24)" stroke-miterlimit="10"/>
<path d="M275.335 727.626L630.126 849.989L926.153 612.364L867.665 252.375L512.874 130.285L216.571 367.91L275.335 727.626Z" stroke="url(#paint42_angular_419_24)" stroke-miterlimit="10"/>
<path d="M190.639 324.754L232.849 694.849L613.849 860.094L952.363 655.518L909.876 285.423L529.152 119.905L190.639 324.754Z" stroke="url(#paint43_angular_419_24)" stroke-miterlimit="10"/>
<path d="M560.879 78.3896L204.157 272.86L214.917 684.471L582.122 901.612L938.568 707.141L927.809 295.803L560.879 78.3896Z" stroke="url(#paint44_angular_419_24)" stroke-miterlimit="10"/>
<path d="M984.917 306.456L619.918 68.8306L206.364 252.376L157.808 673.546L522.806 911.445L936.637 727.9L984.917 306.456Z" stroke="url(#paint45_angular_419_24)" stroke-miterlimit="10"/>
<path d="M952.362 783.618L1022.71 355.619L641.714 62.0015L190.638 196.383L120.287 624.655L501.011 918.272L952.362 783.618Z" stroke="url(#paint46_angular_419_24)" stroke-miterlimit="10"/>
<path d="M451.626 955.965L920.083 838.245L1039.82 372.28L691.096 24.3091L222.64 142.029L102.905 607.72L451.626 955.965Z" stroke="url(#paint47_angular_419_24)" stroke-miterlimit="10"/>
<path d="M41.3828 579.588L381.276 949.956L911.255 860.641L1101.62 400.686L761.724 30.0449L231.745 119.632L41.3828 579.588Z" stroke="url(#paint48_angular_419_24)" stroke-miterlimit="10"/>
<path d="M231.469 52.1681L14.0703 513.762L353.963 951.594L911.255 927.832L1128.65 466.51L788.761 28.6787L231.469 52.1681Z" stroke="url(#paint49_angular_419_24)" stroke-miterlimit="10"/>
<path d="M857.181 0H285.543L0 490L285.543 980H857.181L1143 490L857.181 0Z" stroke="url(#paint50_angular_419_24)" stroke-miterlimit="10"/>
</g>
<defs>
<radialGradient id="paint0_angular_419_24" cx="0" cy="0" r="1" gradientUnits="userSpaceOnUse" gradientTransform="translate(571.5 490) rotate(90) scale(37.6923 40.4175)">
<stop offset="0.234375" stop-color="#EEEEEE"/>
<stop offset="0.489583" stop-color="#29272F"/>
<stop offset="0.677083" stop-color="#133108"/>
<stop offset="0.927083" stop-color="#9CF741"/>
</radialGradient>
<radialGradient id="paint1_angular_419_24" cx="0" cy="0" r="1" gradientUnits="userSpaceOnUse" gradientTransform="translate(571.501 490) rotate(90) scale(36.5997 45.3834)">
<stop offset="0.234375" stop-color="#EEEEEE"/>
<stop offset="0.489583" stop-color="#29272F"/>
<stop offset="0.677083" stop-color="#133108"/>
<stop offset="0.927083" stop-color="#9CF741"/>
</radialGradient>
<radialGradient id="paint2_angular_419_24" cx="0" cy="0" r="1" gradientUnits="userSpaceOnUse" gradientTransform="translate(571.363 490) rotate(90) scale(39.6043 46.9008)">
<stop offset="0.234375" stop-color="#EEEEEE"/>
<stop offset="0.489583" stop-color="#29272F"/>
<stop offset="0.677083" stop-color="#133108"/>
<stop offset="0.927083" stop-color="#9CF741"/>
</radialGradient>
<radialGradient id="paint3_angular_419_24" cx="0" cy="0" r="1" gradientUnits="userSpaceOnUse" gradientTransform="translate(571.499 490) rotate(90) scale(43.428 47.8664)">
<stop offset="0.234375" stop-color="#EEEEEE"/>
<stop offset="0.489583" stop-color="#29272F"/>
<stop offset="0.677083" stop-color="#133108"/>
<stop offset="0.927083" stop-color="#9CF741"/>
</radialGradient>
<radialGradient id="paint4_angular_419_24" cx="0" cy="0" r="1" gradientUnits="userSpaceOnUse" gradientTransform="translate(571.362 490.137) rotate(90) scale(45.2034 52.4186)">
<stop offset="0.234375" stop-color="#EEEEEE"/>
<stop offset="0.489583" stop-color="#29272F"/>
<stop offset="0.677083" stop-color="#133108"/>
<stop offset="0.927083" stop-color="#9CF741"/>
</radialGradient>
<radialGradient id="paint5_angular_419_24" cx="0" cy="0" r="1" gradientUnits="userSpaceOnUse" gradientTransform="translate(571.362 490.001) rotate(90) scale(51.3489 52.4186)">
<stop offset="0.234375" stop-color="#EEEEEE"/>
<stop offset="0.489583" stop-color="#29272F"/>
<stop offset="0.677083" stop-color="#133108"/>
<stop offset="0.927083" stop-color="#9CF741"/>
</radialGradient>
<radialGradient id="paint6_angular_419_24" cx="0" cy="0" r="1" gradientUnits="userSpaceOnUse" gradientTransform="translate(571.5 490.137) rotate(90) scale(54.2168 52.8324)">
<stop offset="0.234375" stop-color="#EEEEEE"/>
<stop offset="0.489583" stop-color="#29272F"/>
<stop offset="0.677083" stop-color="#133108"/>
<stop offset="0.927083" stop-color="#9CF741"/>
</radialGradient>
<radialGradient id="paint7_angular_419_24" cx="0" cy="0" r="1" gradientUnits="userSpaceOnUse" gradientTransform="translate(571.363 490.137) rotate(90) scale(55.5825 56.5569)">
<stop offset="0.234375" stop-color="#EEEEEE"/>
<stop offset="0.489583" stop-color="#29272F"/>
<stop offset="0.677083" stop-color="#133108"/>
<stop offset="0.927083" stop-color="#9CF741"/>
</radialGradient>
<radialGradient id="paint8_angular_419_24" cx="0" cy="0" r="1" gradientUnits="userSpaceOnUse" gradientTransform="translate(571.361 490) rotate(90) scale(61.7281 54.3498)">
<stop offset="0.234375" stop-color="#EEEEEE"/>
<stop offset="0.489583" stop-color="#29272F"/>
<stop offset="0.677083" stop-color="#133108"/>
<stop offset="0.927083" stop-color="#9CF741"/>
</radialGradient>
<radialGradient id="paint9_angular_419_24" cx="0" cy="0" r="1" gradientUnits="userSpaceOnUse" gradientTransform="translate(571.5 490.136) rotate(90) scale(62.9571 62.7643)">
<stop offset="0.234375" stop-color="#EEEEEE"/>
<stop offset="0.489583" stop-color="#29272F"/>
<stop offset="0.677083" stop-color="#133108"/>
<stop offset="0.927083" stop-color="#9CF741"/>
</radialGradient>
<radialGradient id="paint10_angular_419_24" cx="0" cy="0" r="1" gradientUnits="userSpaceOnUse" gradientTransform="translate(571.5 490) rotate(90) scale(63.9129 68.2821)">
<stop offset="0.234375" stop-color="#EEEEEE"/>
<stop offset="0.489583" stop-color="#29272F"/>
<stop offset="0.677083" stop-color="#133108"/>
<stop offset="0.927083" stop-color="#9CF741"/>
</radialGradient>
<radialGradient id="paint11_angular_419_24" cx="0" cy="0" r="1" gradientUnits="userSpaceOnUse" gradientTransform="translate(571.5 490.137) rotate(90) scale(69.5123 70.765)">
<stop offset="0.234375" stop-color="#EEEEEE"/>
<stop offset="0.489583" stop-color="#29272F"/>
<stop offset="0.677083" stop-color="#133108"/>
<stop offset="0.927083" stop-color="#9CF741"/>
</radialGradient>
<radialGradient id="paint12_angular_419_24" cx="0" cy="0" r="1" gradientUnits="userSpaceOnUse" gradientTransform="translate(571.501 490.136) rotate(90) scale(68.4197 79.8693)">
<stop offset="0.234375" stop-color="#EEEEEE"/>
<stop offset="0.489583" stop-color="#29272F"/>
<stop offset="0.677083" stop-color="#133108"/>
<stop offset="0.927083" stop-color="#9CF741"/>
</radialGradient>
<radialGradient id="paint13_angular_419_24" cx="0" cy="0" r="1" gradientUnits="userSpaceOnUse" gradientTransform="translate(571.499 490) rotate(90) scale(68.5564 83.7317)">
<stop offset="0.234375" stop-color="#EEEEEE"/>
<stop offset="0.489583" stop-color="#29272F"/>
<stop offset="0.677083" stop-color="#133108"/>
<stop offset="0.927083" stop-color="#9CF741"/>
</radialGradient>
<radialGradient id="paint14_angular_419_24" cx="0" cy="0" r="1" gradientUnits="userSpaceOnUse" gradientTransform="translate(571.362 490.137) rotate(90) scale(74.4287 85.8009)">
<stop offset="0.234375" stop-color="#EEEEEE"/>
<stop offset="0.489583" stop-color="#29272F"/>
<stop offset="0.677083" stop-color="#133108"/>
<stop offset="0.927083" stop-color="#9CF741"/>
</radialGradient>
<radialGradient id="paint15_angular_419_24" cx="0" cy="0" r="1" gradientUnits="userSpaceOnUse" gradientTransform="translate(571.5 490) rotate(90) scale(77.8428 94.7672)">
<stop offset="0.234375" stop-color="#EEEEEE"/>
<stop offset="0.489583" stop-color="#29272F"/>
<stop offset="0.677083" stop-color="#133108"/>
<stop offset="0.927083" stop-color="#9CF741"/>
</radialGradient>
<radialGradient id="paint16_angular_419_24" cx="0" cy="0" r="1" gradientUnits="userSpaceOnUse" gradientTransform="translate(571.362 490) rotate(90) scale(89.0414 96.0087)">
<stop offset="0.234375" stop-color="#EEEEEE"/>
<stop offset="0.489583" stop-color="#29272F"/>
<stop offset="0.677083" stop-color="#133108"/>
<stop offset="0.927083" stop-color="#9CF741"/>
</radialGradient>
<radialGradient id="paint17_angular_419_24" cx="0" cy="0" r="1" gradientUnits="userSpaceOnUse" gradientTransform="translate(571.361 490) rotate(90) scale(95.3232 97.1122)">
<stop offset="0.234375" stop-color="#EEEEEE"/>
<stop offset="0.489583" stop-color="#29272F"/>
<stop offset="0.677083" stop-color="#133108"/>
<stop offset="0.927083" stop-color="#9CF741"/>
</radialGradient>
<radialGradient id="paint18_angular_419_24" cx="0" cy="0" r="1" gradientUnits="userSpaceOnUse" gradientTransform="translate(571.5 489.999) rotate(90) scale(98.3278 104.975)">
<stop offset="0.234375" stop-color="#EEEEEE"/>
<stop offset="0.489583" stop-color="#29272F"/>
<stop offset="0.677083" stop-color="#133108"/>
<stop offset="0.927083" stop-color="#9CF741"/>
</radialGradient>
<radialGradient id="paint19_angular_419_24" cx="0" cy="0" r="1" gradientUnits="userSpaceOnUse" gradientTransform="translate(571.362 490) rotate(90) scale(110.072 102.354)">
<stop offset="0.234375" stop-color="#EEEEEE"/>
<stop offset="0.489583" stop-color="#29272F"/>
<stop offset="0.677083" stop-color="#133108"/>
<stop offset="0.927083" stop-color="#9CF741"/>
</radialGradient>
<radialGradient id="paint20_angular_419_24" cx="0" cy="0" r="1" gradientUnits="userSpaceOnUse" gradientTransform="translate(571.5 490) rotate(90) scale(113.623 106.63)">
<stop offset="0.234375" stop-color="#EEEEEE"/>
<stop offset="0.489583" stop-color="#29272F"/>
<stop offset="0.677083" stop-color="#133108"/>
<stop offset="0.927083" stop-color="#9CF741"/>
</radialGradient>
<radialGradient id="paint21_angular_419_24" cx="0" cy="0" r="1" gradientUnits="userSpaceOnUse" gradientTransform="translate(571.5 490) rotate(90) scale(115.808 117.666)">
<stop offset="0.234375" stop-color="#EEEEEE"/>
<stop offset="0.489583" stop-color="#29272F"/>
<stop offset="0.677083" stop-color="#133108"/>
<stop offset="0.927083" stop-color="#9CF741"/>
</radialGradient>
<radialGradient id="paint22_angular_419_24" cx="0" cy="0" r="1" gradientUnits="userSpaceOnUse" gradientTransform="translate(571.5 490.137) rotate(90) scale(126.87 122.632)">
<stop offset="0.234375" stop-color="#EEEEEE"/>
<stop offset="0.489583" stop-color="#29272F"/>
<stop offset="0.677083" stop-color="#133108"/>
<stop offset="0.927083" stop-color="#9CF741"/>
</radialGradient>
<radialGradient id="paint23_angular_419_24" cx="0" cy="0" r="1" gradientUnits="userSpaceOnUse" gradientTransform="translate(571.362 490.137) rotate(90) scale(126.597 139.599)">
<stop offset="0.234375" stop-color="#EEEEEE"/>
<stop offset="0.489583" stop-color="#29272F"/>
<stop offset="0.677083" stop-color="#133108"/>
<stop offset="0.927083" stop-color="#9CF741"/>
</radialGradient>
<radialGradient id="paint24_angular_419_24" cx="0" cy="0" r="1" gradientUnits="userSpaceOnUse" gradientTransform="translate(571.361 490.136) rotate(90) scale(127.416 148.151)">
<stop offset="0.234375" stop-color="#EEEEEE"/>
<stop offset="0.489583" stop-color="#29272F"/>
<stop offset="0.677083" stop-color="#133108"/>
<stop offset="0.927083" stop-color="#9CF741"/>
</radialGradient>
<radialGradient id="paint25_angular_419_24" cx="0" cy="0" r="1" gradientUnits="userSpaceOnUse" gradientTransform="translate(571.5 490) rotate(90) scale(136.293 152.428)">
<stop offset="0.234375" stop-color="#EEEEEE"/>
<stop offset="0.489583" stop-color="#29272F"/>
<stop offset="0.677083" stop-color="#133108"/>
<stop offset="0.927083" stop-color="#9CF741"/>
</radialGradient>
<radialGradient id="paint26_angular_419_24" cx="0" cy="0" r="1" gradientUnits="userSpaceOnUse" gradientTransform="translate(571.501 490) rotate(90) scale(132.469 169.809)">
<stop offset="0.234375" stop-color="#EEEEEE"/>
<stop offset="0.489583" stop-color="#29272F"/>
<stop offset="0.677083" stop-color="#133108"/>
<stop offset="0.927083" stop-color="#9CF741"/>
</radialGradient>
<radialGradient id="paint27_angular_419_24" cx="0" cy="0" r="1" gradientUnits="userSpaceOnUse" gradientTransform="translate(571.362 490.136) rotate(90) scale(153.091 174.085)">
<stop offset="0.234375" stop-color="#EEEEEE"/>
<stop offset="0.489583" stop-color="#29272F"/>
<stop offset="0.677083" stop-color="#133108"/>
<stop offset="0.927083" stop-color="#9CF741"/>
</radialGradient>
<radialGradient id="paint28_angular_419_24" cx="0" cy="0" r="1" gradientUnits="userSpaceOnUse" gradientTransform="translate(571.5 490) rotate(90) scale(166.065 176.982)">
<stop offset="0.234375" stop-color="#EEEEEE"/>
<stop offset="0.489583" stop-color="#29272F"/>
<stop offset="0.677083" stop-color="#133108"/>
<stop offset="0.927083" stop-color="#9CF741"/>
</radialGradient>
<radialGradient id="paint29_angular_419_24" cx="0" cy="0" r="1" gradientUnits="userSpaceOnUse" gradientTransform="translate(571.363 490.136) rotate(90) scale(172.21 192.845)">
<stop offset="0.234375" stop-color="#EEEEEE"/>
<stop offset="0.489583" stop-color="#29272F"/>
<stop offset="0.677083" stop-color="#133108"/>
<stop offset="0.927083" stop-color="#9CF741"/>
</radialGradient>
<radialGradient id="paint30_angular_419_24" cx="0" cy="0" r="1" gradientUnits="userSpaceOnUse" gradientTransform="translate(571.5 490) rotate(90) scale(194.197 190.776)">
<stop offset="0.234375" stop-color="#EEEEEE"/>
<stop offset="0.489583" stop-color="#29272F"/>
<stop offset="0.677083" stop-color="#133108"/>
<stop offset="0.927083" stop-color="#9CF741"/>
</radialGradient>
<radialGradient id="paint31_angular_419_24" cx="0" cy="0" r="1" gradientUnits="userSpaceOnUse" gradientTransform="translate(571.362 490) rotate(90) scale(203.211 191.466)">
<stop offset="0.234375" stop-color="#EEEEEE"/>
<stop offset="0.489583" stop-color="#29272F"/>
<stop offset="0.677083" stop-color="#133108"/>
<stop offset="0.927083" stop-color="#9CF741"/>
</radialGradient>
<radialGradient id="paint32_angular_419_24" cx="0" cy="0" r="1" gradientUnits="userSpaceOnUse" gradientTransform="translate(571.361 490.137) rotate(90) scale(207.991 203.605)">
<stop offset="0.234375" stop-color="#EEEEEE"/>
<stop offset="0.489583" stop-color="#29272F"/>
<stop offset="0.677083" stop-color="#133108"/>
<stop offset="0.927083" stop-color="#9CF741"/>
</radialGradient>
<radialGradient id="paint33_angular_419_24" cx="0" cy="0" r="1" gradientUnits="userSpaceOnUse" gradientTransform="translate(571.363 490.136) rotate(90) scale(229.568 210.226)">
<stop offset="0.234375" stop-color="#EEEEEE"/>
<stop offset="0.489583" stop-color="#29272F"/>
<stop offset="0.677083" stop-color="#133108"/>
<stop offset="0.927083" stop-color="#9CF741"/>
</radialGradient>
<radialGradient id="paint34_angular_419_24" cx="0" cy="0" r="1" gradientUnits="userSpaceOnUse" gradientTransform="translate(571.5 490.137) rotate(90) scale(232.026 241.539)">
<stop offset="0.234375" stop-color="#EEEEEE"/>
<stop offset="0.489583" stop-color="#29272F"/>
<stop offset="0.677083" stop-color="#133108"/>
<stop offset="0.927083" stop-color="#9CF741"/>
</radialGradient>
<radialGradient id="paint35_angular_419_24" cx="0" cy="0" r="1" gradientUnits="userSpaceOnUse" gradientTransform="translate(571.362 490.137) rotate(90) scale(234.758 259.886)">
<stop offset="0.234375" stop-color="#EEEEEE"/>
<stop offset="0.489583" stop-color="#29272F"/>
<stop offset="0.677083" stop-color="#133108"/>
<stop offset="0.927083" stop-color="#9CF741"/>
</radialGradient>
<radialGradient id="paint36_angular_419_24" cx="0" cy="0" r="1" gradientUnits="userSpaceOnUse" gradientTransform="translate(571.362 490.001) rotate(90) scale(253.194 268.438)">
<stop offset="0.234375" stop-color="#EEEEEE"/>
<stop offset="0.489583" stop-color="#29272F"/>
<stop offset="0.677083" stop-color="#133108"/>
<stop offset="0.927083" stop-color="#9CF741"/>
</radialGradient>
<radialGradient id="paint37_angular_419_24" cx="0" cy="0" r="1" gradientUnits="userSpaceOnUse" gradientTransform="translate(571.362 490.137) rotate(90) scale(246.502 301.269)">
<stop offset="0.234375" stop-color="#EEEEEE"/>
<stop offset="0.489583" stop-color="#29272F"/>
<stop offset="0.677083" stop-color="#133108"/>
<stop offset="0.927083" stop-color="#9CF741"/>
</radialGradient>
<radialGradient id="paint38_angular_419_24" cx="0" cy="0" r="1" gradientUnits="userSpaceOnUse" gradientTransform="translate(571.363 490.137) rotate(90) scale(260.432 312.856)">
<stop offset="0.234375" stop-color="#EEEEEE"/>
<stop offset="0.489583" stop-color="#29272F"/>
<stop offset="0.677083" stop-color="#133108"/>
<stop offset="0.927083" stop-color="#9CF741"/>
</radialGradient>
<radialGradient id="paint39_angular_419_24" cx="0" cy="0" r="1" gradientUnits="userSpaceOnUse" gradientTransform="translate(571.361 490) rotate(90) scale(286.789 319.477)">
<stop offset="0.234375" stop-color="#EEEEEE"/>
<stop offset="0.489583" stop-color="#29272F"/>
<stop offset="0.677083" stop-color="#133108"/>
<stop offset="0.927083" stop-color="#9CF741"/>
</radialGradient>
<radialGradient id="paint40_angular_419_24" cx="0" cy="0" r="1" gradientUnits="userSpaceOnUse" gradientTransform="translate(571.499 490.137) rotate(90) scale(298.671 350.79)">
<stop offset="0.234375" stop-color="#EEEEEE"/>
<stop offset="0.489583" stop-color="#29272F"/>
<stop offset="0.677083" stop-color="#133108"/>
<stop offset="0.927083" stop-color="#9CF741"/>
</radialGradient>
<radialGradient id="paint41_angular_419_24" cx="0" cy="0" r="1" gradientUnits="userSpaceOnUse" gradientTransform="translate(571.361 490.137) rotate(90) scale(339.641 351.756)">
<stop offset="0.234375" stop-color="#EEEEEE"/>
<stop offset="0.489583" stop-color="#29272F"/>
<stop offset="0.677083" stop-color="#133108"/>
<stop offset="0.927083" stop-color="#9CF741"/>
</radialGradient>
<radialGradient id="paint42_angular_419_24" cx="0" cy="0" r="1" gradientUnits="userSpaceOnUse" gradientTransform="translate(571.362 490.137) rotate(90) scale(359.852 354.791)">
<stop offset="0.234375" stop-color="#EEEEEE"/>
<stop offset="0.489583" stop-color="#29272F"/>
<stop offset="0.677083" stop-color="#133108"/>
<stop offset="0.927083" stop-color="#9CF741"/>
</radialGradient>
<radialGradient id="paint43_angular_419_24" cx="0" cy="0" r="1" gradientUnits="userSpaceOnUse" gradientTransform="translate(571.501 490) rotate(90) scale(370.095 380.862)">
<stop offset="0.234375" stop-color="#EEEEEE"/>
<stop offset="0.489583" stop-color="#29272F"/>
<stop offset="0.677083" stop-color="#133108"/>
<stop offset="0.927083" stop-color="#9CF741"/>
</radialGradient>
<radialGradient id="paint44_angular_419_24" cx="0" cy="0" r="1" gradientUnits="userSpaceOnUse" gradientTransform="translate(571.363 490.001) rotate(90) scale(411.611 367.206)">
<stop offset="0.234375" stop-color="#EEEEEE"/>
<stop offset="0.489583" stop-color="#29272F"/>
<stop offset="0.677083" stop-color="#133108"/>
<stop offset="0.927083" stop-color="#9CF741"/>
</radialGradient>
<radialGradient id="paint45_angular_419_24" cx="0" cy="0" r="1" gradientUnits="userSpaceOnUse" gradientTransform="translate(571.362 490.138) rotate(90) scale(421.307 413.555)">
<stop offset="0.234375" stop-color="#EEEEEE"/>
<stop offset="0.489583" stop-color="#29272F"/>
<stop offset="0.677083" stop-color="#133108"/>
<stop offset="0.927083" stop-color="#9CF741"/>
</radialGradient>
<radialGradient id="paint46_angular_419_24" cx="0" cy="0" r="1" gradientUnits="userSpaceOnUse" gradientTransform="translate(571.5 490.137) rotate(90) scale(428.136 451.213)">
<stop offset="0.234375" stop-color="#EEEEEE"/>
<stop offset="0.489583" stop-color="#29272F"/>
<stop offset="0.677083" stop-color="#133108"/>
<stop offset="0.927083" stop-color="#9CF741"/>
</radialGradient>
<radialGradient id="paint47_angular_419_24" cx="0" cy="0" r="1" gradientUnits="userSpaceOnUse" gradientTransform="translate(571.361 490.137) rotate(90) scale(465.828 468.456)">
<stop offset="0.234375" stop-color="#EEEEEE"/>
<stop offset="0.489583" stop-color="#29272F"/>
<stop offset="0.677083" stop-color="#133108"/>
<stop offset="0.927083" stop-color="#9CF741"/>
</radialGradient>
<radialGradient id="paint48_angular_419_24" cx="0" cy="0" r="1" gradientUnits="userSpaceOnUse" gradientTransform="translate(571.5 490) rotate(90) scale(459.955 530.117)">
<stop offset="0.234375" stop-color="#EEEEEE"/>
<stop offset="0.489583" stop-color="#29272F"/>
<stop offset="0.677083" stop-color="#133108"/>
<stop offset="0.927083" stop-color="#9CF741"/>
</radialGradient>
<radialGradient id="paint49_angular_419_24" cx="0" cy="0" r="1" gradientUnits="userSpaceOnUse" gradientTransform="translate(571.362 490.137) rotate(90) scale(461.458 557.292)">
<stop offset="0.234375" stop-color="#EEEEEE"/>
<stop offset="0.489583" stop-color="#29272F"/>
<stop offset="0.677083" stop-color="#133108"/>
<stop offset="0.927083" stop-color="#9CF741"/>
</radialGradient>
<radialGradient id="paint50_angular_419_24" cx="0" cy="0" r="1" gradientUnits="userSpaceOnUse" gradientTransform="translate(571.5 490) rotate(90) scale(490 571.5)">
<stop offset="0.234375" stop-color="#EEEEEE"/>
<stop offset="0.489583" stop-color="#29272F"/>
<stop offset="0.677083" stop-color="#133108"/>
<stop offset="0.927083" stop-color="#9CF741"/>
</radialGradient>
<clipPath id="clip0_419_24">
<rect width="1143" height="980" fill="white"/>
</clipPath>
</defs>
</svg>
