<svg width="614" height="667" fill="none" xmlns="http://www.w3.org/2000/svg"><g clip-path="url(#a)" stroke-width="2" stroke-miterlimit="10"><path d="M310.9 342.015c22.888-10.895 39.602-23.593 37.332-28.361-2.27-4.768-22.664.198-45.551 11.093-22.888 10.895-39.602 23.593-37.332 28.361 2.27 4.768 22.664-.199 45.551-11.093Z" stroke="url(#b)"/><path d="M311.237 342.239c24.479-12.249 42.344-26.135 39.902-31.015-2.442-4.881-24.266 1.093-48.745 13.343-24.479 12.249-42.344 26.135-39.902 31.015 2.442 4.88 24.266-1.094 48.745-13.343Z" stroke="url(#c)"/><path d="M311.677 342.402c26.191-13.736 45.302-28.916 42.686-33.905-2.617-4.989-25.97 2.103-52.161 15.84-26.191 13.736-45.302 28.916-42.685 33.905 2.616 4.989 25.969-2.103 52.16-15.84Z" stroke="url(#d)"/><path d="M311.741 342.692c27.938-15.316 48.322-31.861 45.529-36.955-2.792-5.093-27.703 3.194-55.641 18.51-27.937 15.315-48.321 31.861-45.529 36.954 2.792 5.094 27.704-3.193 55.641-18.509Z" stroke="url(#e)"/><path d="M312.242 342.864c29.722-16.996 51.409-34.985 48.438-40.181-2.971-5.196-29.475 4.37-59.197 21.366-29.723 16.995-51.41 34.985-48.439 40.181 2.971 5.196 29.475-4.37 59.198-21.366Z" stroke="url(#f)"/><path d="M312.502 342.955c31.613-18.818 54.686-38.365 51.534-43.659-3.151-5.294-31.333 5.669-62.947 24.488-31.613 18.818-54.686 38.366-51.534 43.66 3.151 5.294 31.334-5.67 62.947-24.489Z" stroke="url(#g)"/><path d="M312.76 343.363c33.533-20.741 57.976-41.984 54.597-47.448-3.38-5.464-33.303 6.92-66.836 27.661-33.532 20.741-57.976 41.985-54.596 47.449 3.38 5.464 33.303-6.921 66.835-27.662Z" stroke="url(#h)"/><path d="M313.187 343.621c35.552-22.818 61.444-45.879 57.831-51.508-3.613-5.63-35.363 8.305-70.915 31.124-35.552 22.818-61.444 45.88-57.831 51.509 3.613 5.629 35.363-8.306 70.915-31.125Z" stroke="url(#i)"/><path d="M313.732 343.836c37.521-24.957 64.816-49.883 60.965-55.672-3.851-5.789-37.39 9.749-74.911 34.707-37.52 24.957-64.816 49.882-60.965 55.672 3.851 5.789 37.39-9.75 74.911-34.707Z" stroke="url(#j)"/><path d="M314.202 344.336c39.584-27.25 68.355-54.159 64.263-60.104-4.092-5.944-39.499 11.326-79.083 38.576-39.583 27.249-68.354 54.158-64.262 60.103 4.092 5.945 39.499-11.326 79.082-38.575Z" stroke="url(#k)"/><path d="M314.896 344.532c41.731-29.713 72.001-58.798 67.611-64.965-4.391-6.166-41.779 12.922-83.51 42.634-41.731 29.713-72.001 58.798-67.611 64.965 4.391 6.166 41.779-12.922 83.51-42.634Z" stroke="url(#l)"/><path d="M315.238 345.057c43.814-32.231 75.527-63.532 70.834-69.913-4.694-6.381-44.018 14.575-87.832 46.806-43.814 32.232-75.527 63.533-70.833 69.913 4.694 6.381 44.017-14.575 87.831-46.806Z" stroke="url(#m)"/><path d="M315.675 345.342c45.973-34.924 79.184-68.576 74.18-75.164-5.005-6.587-46.33 16.384-92.303 51.309-45.973 34.924-79.185 68.576-74.18 75.164 5.004 6.587 46.33-16.384 92.303-51.309Z" stroke="url(#n)"/><path d="M316.413 345.633c48.139-37.742 82.849-73.841 77.527-80.629-5.322-6.788-48.66 18.306-96.799 56.048-48.139 37.742-82.849 73.84-77.527 80.628 5.322 6.788 48.66-18.305 96.799-56.047Z" stroke="url(#o)"/><path d="M317.172 346.213c50.371-40.735 86.583-79.471 80.882-86.52-5.701-7.049-51.155 20.258-101.526 60.993-50.37 40.735-86.583 79.471-80.882 86.52 5.701 7.049 51.155-20.258 101.526-60.993Z" stroke="url(#p)"/><path d="M317.888 346.793c52.52-43.8 90.115-85.279 83.971-92.646-6.144-7.368-53.701 22.166-106.222 65.965-52.52 43.799-90.115 85.279-83.971 92.646 6.145 7.368 53.702-22.166 106.222-65.965Z" stroke="url(#q)"/><path d="M318.846 347.266c54.66-46.999 93.621-91.321 87.022-98.996-6.599-7.675-56.26 24.203-110.92 71.202-54.66 46.999-93.621 91.321-87.021 98.996 6.599 7.675 56.26-24.203 110.919-71.202Z" stroke="url(#r)"/><path d="M319.681 347.788c56.778-50.328 97.079-97.587 90.015-105.557-7.065-7.97-58.819 26.367-115.597 76.695-56.778 50.327-97.079 97.586-90.015 105.556 7.065 7.97 58.82-26.367 115.597-76.694Z" stroke="url(#s)"/><path d="M320.518 348.56c58.934-53.845 100.55-104.237 92.951-112.554-7.599-8.317-61.535 28.59-120.469 82.436-58.934 53.845-100.55 104.237-92.951 112.554 7.599 8.317 61.535-28.59 120.469-82.436Z" stroke="url(#t)"/><path d="M321.582 349.104c60.93-57.392 103.718-110.929 95.571-119.578-8.147-8.65-64.145 30.864-125.074 88.256-60.93 57.392-103.719 110.929-95.571 119.578 8.147 8.65 64.144-30.864 125.074-88.256Z" stroke="url(#u)"/><path d="M322.749 349.803c62.945-61.14 106.813-118.074 97.982-127.165-8.83-9.092-67.016 33.102-129.96 94.242-62.945 61.141-106.813 118.074-97.983 127.166 8.831 9.091 67.016-33.103 129.961-94.243Z" stroke="url(#v)"/><path d="M323.95 350.544c64.855-64.97 109.755-125.3 100.287-134.752-9.469-9.451-69.72 35.555-134.575 100.525-64.855 64.97-109.755 125.3-100.287 134.752 9.469 9.451 69.72-35.555 134.575-100.525Z" stroke="url(#w)"/><path d="M325.271 351.224c66.64-68.89 112.354-132.772 102.106-142.686-10.248-9.913-72.578 37.897-139.217 106.787-66.64 68.89-112.354 132.773-102.106 142.686 10.248 9.914 72.578-37.897 139.217-106.787Z" stroke="url(#x)"/><path d="M326.95 352.336c68.373-72.955 114.794-140.537 103.683-150.949-11.11-10.413-75.543 40.288-143.916 113.242-68.373 72.955-114.793 140.537-103.683 150.949 11.11 10.413 75.543-40.288 143.916-113.242Z" stroke="url(#y)"/><path d="M328.416 353.171c69.9-77.047 116.843-148.326 104.849-159.207-11.993-10.882-78.382 42.756-148.282 119.802S168.14 462.092 180.134 472.973c11.993 10.882 78.381-42.756 148.282-119.802Z" stroke="url(#z)"/><path d="M330.35 353.954c71.347-81.306 118.62-156.488 105.587-167.924-13.033-11.437-81.436 45.204-152.783 126.509-71.346 81.306-118.619 156.488-105.586 167.925C190.6 491.9 259.003 435.26 330.35 353.954Z" stroke="url(#A)"/><path d="M332.408 355.104c72.588-85.58 119.952-164.694 105.789-176.707-14.162-12.013-84.488 47.625-157.077 133.205-72.589 85.581-119.952 164.695-105.79 176.708 14.163 12.013 84.489-47.625 157.078-133.206Z" stroke="url(#B)"/><path d="M334.731 356.424c73.67-89.946 120.861-173.124 105.404-185.783-15.456-12.659-87.707 49.994-161.376 139.94-73.67 89.946-120.861 173.124-105.405 185.783 15.457 12.66 87.707-49.994 161.377-139.94Z" stroke="url(#C)"/><path d="M337.106 357.413c74.463-94.278 121.221-181.451 104.437-194.707-16.783-13.256-90.753 52.425-165.215 146.703-74.463 94.278-121.221 181.451-104.438 194.707 16.784 13.256 90.753-52.425 165.216-146.703Z" stroke="url(#D)"/><path d="M339.865 358.665c75.074-98.699 121.056-190.027 102.703-203.987-18.353-13.96-94.091 54.735-169.165 153.434S152.347 498.139 170.7 512.099c18.352 13.96 94.09-54.735 169.165-153.434Z" stroke="url(#E)"/><path d="M343.165 359.925c75.446-103.152 120.31-198.694 100.205-213.398-20.105-14.705-97.564 56.995-173.01 160.147-75.447 103.152-120.31 198.694-100.205 213.399 20.104 14.705 97.564-56.996 173.01-160.148Z" stroke="url(#F)"/><path d="M346.639 361.233c75.562-107.623 119.006-207.373 97.035-222.799-21.971-15.426-101.037 59.314-176.599 166.936-75.562 107.622-119.006 207.373-97.035 222.798 21.971 15.426 101.037-59.313 176.599-166.935Z" stroke="url(#G)"/><path d="M350.606 362.76c75.306-111.961 116.756-215.905 92.582-232.165-24.175-16.26-104.819 61.322-180.125 173.283-75.306 111.962-116.757 215.906-92.582 232.166 24.174 16.259 104.819-61.322 180.125-173.284Z" stroke="url(#H)"/><path d="M354.842 364.28c74.779-116.31 113.912-224.411 87.408-241.452-26.505-17.041-108.611 63.433-183.39 179.742-74.778 116.31-113.912 224.412-87.407 241.452 26.504 17.041 108.611-63.433 183.389-179.742Z" stroke="url(#I)"/><path d="M359.482 365.768c73.901-120.59 110.147-232.849 80.956-250.738-29.191-17.889-112.763 65.366-186.665 185.956-73.902 120.59-110.147 232.849-80.957 250.739 29.191 17.889 112.764-65.367 186.666-185.957Z" stroke="url(#J)"/><path d="M365.172 367.544c72.705-124.795 105.504-241.191 73.26-259.976-32.245-18.785-117.323 67.153-190.028 191.948-72.705 124.796-105.504 241.191-73.259 259.976 32.244 18.786 117.322-67.152 190.027-191.948Z" stroke="url(#K)"/><path d="M371.319 369.031c71.103-128.846 99.883-249.223 64.281-268.87-35.602-19.647-122.104 68.876-193.208 197.721-71.104 128.846-99.883 249.223-64.281 268.87 35.602 19.647 122.104-68.876 193.208-197.721Z" stroke="url(#L)"/><path d="M378.262 370.557c69.145-132.795 93.239-257.088 53.814-277.616-39.424-20.528-127.438 70.482-196.584 203.277-69.145 132.795-93.239 257.088-53.814 277.616 39.424 20.528 127.438-70.482 196.584-203.277Z" stroke="url(#M)"/><path d="M385.707 372.021c66.779-136.543 85.534-264.536 41.891-285.88-43.643-21.345-133.158 72.041-199.937 208.584-66.779 136.543-85.534 264.536-41.891 285.881 43.643 21.344 133.158-72.043 199.937-208.585Z" stroke="url(#N)"/><path d="M394.53 373.652c64.029-140.079 76.611-271.609 28.104-293.781-48.508-22.173-139.736 73.41-203.765 213.489-64.028 140.079-76.61 271.61-28.103 293.782 48.507 22.172 139.736-73.41 203.764-213.49Z" stroke="url(#O)"/><path d="M404.227 374.803c60.876-143.395 66.551-278.181 12.676-301.052-53.874-22.871-146.897 74.833-207.772 218.228-60.876 143.395-66.551 278.181-12.676 301.052 53.874 22.871 146.897-74.833 207.772-218.228Z" stroke="url(#P)"/><path d="M415.34 376.01c57.346-146.45 55.203-284.213-4.786-307.704-59.99-23.49-155.109 76.188-212.455 222.638-57.346 146.449-55.203 284.213 4.786 307.703 59.99 23.491 155.109-76.187 212.455-222.637Z" stroke="url(#Q)"/><path d="M427.834 376.773C481.275 227.54 470.389 87.15 403.52 63.204c-66.869-23.946-164.399 77.62-217.84 226.853s-42.555 289.622 24.314 313.568c66.869 23.946 164.399-77.619 217.84-226.852Z" stroke="url(#R)"/><path d="M441.671 377.18c49.202-151.788 28.615-294.438-45.981-318.618-74.596-24.18-174.954 79.266-224.156 231.054s-28.615 294.438 45.981 318.618c74.596 24.181 174.954-79.266 224.156-231.054Z" stroke="url(#S)"/><path d="M457.535 377.121C502.183 223.1 470.876 78.674 387.61 54.537 304.344 30.4 200.649 135.69 156.002 289.713c-44.648 154.021-13.341 298.447 69.925 322.584 83.266 24.137 186.961-81.155 231.608-235.176Z" stroke="url(#T)"/><path d="M475.041 376.352c39.782-155.893-3.324-301.499-96.28-325.22C285.805 27.41 178.2 134.557 138.418 290.45c-39.782 155.893 3.324 301.499 96.28 325.221 92.956 23.721 200.562-83.426 240.343-239.319Z" stroke="url(#U)"/><path d="M494.858 374.899c34.697-157.55-21.416-303.821-125.332-326.706-103.916-22.885-216.284 86.282-250.981 243.832-34.696 157.55 21.417 303.821 125.333 326.706 103.916 22.885 216.284-86.282 250.98-243.832Z" stroke="url(#V)"/><path d="M516.892 372.185c29.399-158.901-40.854-305.124-156.914-326.596C243.917 24.116 125.999 135.523 96.6 294.425c-29.4 158.901 40.854 305.123 156.914 326.596 116.06 21.473 233.978-89.935 263.378-248.836Z" stroke="url(#W)"/><path d="M541.269 368.559c23.936-159.893-61.723-305.24-191.327-324.643C220.339 24.515 95.871 138.405 71.934 298.3c-23.936 159.893 61.724 305.24 191.327 324.642 129.603 19.402 254.072-94.489 278.008-254.382Z" stroke="url(#X)"/><path d="M568.691 363.275C587.08 202.548 484.736 58.837 340.098 42.289 195.461 25.741 63.302 142.622 44.913 303.35 26.524 464.077 128.87 607.788 273.506 624.336c144.638 16.548 276.797-100.333 295.185-261.061Z" stroke="url(#Y)"/><path d="M293.86 626.04c161.613 7.132 298.408-118.099 305.541-279.712 7.132-161.613-118.099-298.408-279.712-305.54C158.076 33.654 21.28 158.885 14.149 320.498 7.015 482.112 132.246 618.908 293.86 626.04Z" stroke="url(#Z)"/></g><defs><linearGradient id="b" x1="302.681" y1="324.747" x2="310.9" y2="342.015" gradientUnits="userSpaceOnUse"><stop stop-color="#4E9942"/><stop offset="1" stop-color="#7B6E78"/></linearGradient><linearGradient id="c" x1="302.394" y1="324.567" x2="311.237" y2="342.239" gradientUnits="userSpaceOnUse"><stop stop-color="#4E9942"/><stop offset="1" stop-color="#7B6E78"/></linearGradient><linearGradient id="d" x1="302.202" y1="324.337" x2="311.677" y2="342.402" gradientUnits="userSpaceOnUse"><stop stop-color="#4E9942"/><stop offset="1" stop-color="#7B6E78"/></linearGradient><linearGradient id="e" x1="301.629" y1="324.247" x2="311.741" y2="342.692" gradientUnits="userSpaceOnUse"><stop stop-color="#4E9942"/><stop offset="1" stop-color="#7B6E78"/></linearGradient><linearGradient id="f" x1="301.483" y1="324.049" x2="312.242" y2="342.864" gradientUnits="userSpaceOnUse"><stop stop-color="#4E9942"/><stop offset="1" stop-color="#7B6E78"/></linearGradient><linearGradient id="g" x1="301.089" y1="323.784" x2="312.502" y2="342.956" gradientUnits="userSpaceOnUse"><stop stop-color="#4E9942"/><stop offset="1" stop-color="#7B6E78"/></linearGradient><linearGradient id="h" x1="300.521" y1="323.576" x2="312.76" y2="343.363" gradientUnits="userSpaceOnUse"><stop stop-color="#4E9942"/><stop offset="1" stop-color="#7B6E78"/></linearGradient><linearGradient id="i" x1="300.103" y1="323.237" x2="313.187" y2="343.621" gradientUnits="userSpaceOnUse"><stop stop-color="#4E9942"/><stop offset="1" stop-color="#7B6E78"/></linearGradient><linearGradient id="j" x1="299.786" y1="322.871" x2="313.732" y2="343.836" gradientUnits="userSpaceOnUse"><stop stop-color="#4E9942"/><stop offset="1" stop-color="#7B6E78"/></linearGradient><linearGradient id="k" x1="299.382" y1="322.808" x2="314.202" y2="344.336" gradientUnits="userSpaceOnUse"><stop stop-color="#4E9942"/><stop offset="1" stop-color="#7B6E78"/></linearGradient><linearGradient id="l" x1="298.997" y1="322.201" x2="314.896" y2="344.532" gradientUnits="userSpaceOnUse"><stop stop-color="#4E9942"/><stop offset="1" stop-color="#7B6E78"/></linearGradient><linearGradient id="m" x1="298.24" y1="321.95" x2="315.238" y2="345.057" gradientUnits="userSpaceOnUse"><stop stop-color="#4E9942"/><stop offset="1" stop-color="#7B6E78"/></linearGradient><linearGradient id="n" x1="297.552" y1="321.487" x2="315.675" y2="345.342" gradientUnits="userSpaceOnUse"><stop stop-color="#4E9942"/><stop offset="1" stop-color="#7B6E78"/></linearGradient><linearGradient id="o" x1="297.141" y1="321.052" x2="316.413" y2="345.633" gradientUnits="userSpaceOnUse"><stop stop-color="#4E9942"/><stop offset="1" stop-color="#7B6E78"/></linearGradient><linearGradient id="p" x1="296.528" y1="320.686" x2="317.172" y2="346.213" gradientUnits="userSpaceOnUse"><stop stop-color="#4E9942"/><stop offset="1" stop-color="#7B6E78"/></linearGradient><linearGradient id="q" x1="295.637" y1="320.112" x2="317.888" y2="346.793" gradientUnits="userSpaceOnUse"><stop stop-color="#4E9942"/><stop offset="1" stop-color="#7B6E78"/></linearGradient><linearGradient id="r" x1="294.948" y1="319.472" x2="318.846" y2="347.266" gradientUnits="userSpaceOnUse"><stop stop-color="#4E9942"/><stop offset="1" stop-color="#7B6E78"/></linearGradient><linearGradient id="s" x1="294.099" y1="318.926" x2="319.681" y2="347.788" gradientUnits="userSpaceOnUse"><stop stop-color="#4E9942"/><stop offset="1" stop-color="#7B6E78"/></linearGradient><linearGradient id="t" x1="293" y1="318.442" x2="320.518" y2="348.56" gradientUnits="userSpaceOnUse"><stop stop-color="#4E9942"/><stop offset="1" stop-color="#7B6E78"/></linearGradient><linearGradient id="u" x1="292.079" y1="317.782" x2="321.582" y2="349.104" gradientUnits="userSpaceOnUse"><stop stop-color="#4E9942"/><stop offset="1" stop-color="#7B6E78"/></linearGradient><linearGradient id="v" x1="290.77" y1="316.88" x2="322.749" y2="349.803" gradientUnits="userSpaceOnUse"><stop stop-color="#4E9942"/><stop offset="1" stop-color="#7B6E78"/></linearGradient><linearGradient id="w" x1="289.662" y1="316.317" x2="323.95" y2="350.544" gradientUnits="userSpaceOnUse"><stop stop-color="#4E9942"/><stop offset="1" stop-color="#7B6E78"/></linearGradient><linearGradient id="x" x1="288.16" y1="315.325" x2="325.271" y2="351.224" gradientUnits="userSpaceOnUse"><stop stop-color="#4E9942"/><stop offset="1" stop-color="#7B6E78"/></linearGradient><linearGradient id="y" x1="286.717" y1="314.629" x2="326.95" y2="352.336" gradientUnits="userSpaceOnUse"><stop stop-color="#4E9942"/><stop offset="1" stop-color="#7B6E78"/></linearGradient><linearGradient id="z" x1="284.983" y1="313.766" x2="328.416" y2="353.171" gradientUnits="userSpaceOnUse"><stop stop-color="#4E9942"/><stop offset="1" stop-color="#7B6E78"/></linearGradient><linearGradient id="A" x1="283.154" y1="312.539" x2="330.35" y2="353.954" gradientUnits="userSpaceOnUse"><stop stop-color="#4E9942"/><stop offset="1" stop-color="#7B6E78"/></linearGradient><linearGradient id="B" x1="281.12" y1="311.602" x2="332.408" y2="355.104" gradientUnits="userSpaceOnUse"><stop stop-color="#4E9942"/><stop offset="1" stop-color="#7B6E78"/></linearGradient><linearGradient id="C" x1="278.759" y1="310.581" x2="334.731" y2="356.424" gradientUnits="userSpaceOnUse"><stop stop-color="#4E9942"/><stop offset="1" stop-color="#7B6E78"/></linearGradient><linearGradient id="D" x1="276.328" y1="309.409" x2="337.106" y2="357.413" gradientUnits="userSpaceOnUse"><stop stop-color="#4E9942"/><stop offset="1" stop-color="#7B6E78"/></linearGradient><linearGradient id="E" x1="273.403" y1="308.112" x2="339.865" y2="358.665" gradientUnits="userSpaceOnUse"><stop stop-color="#4E9942"/><stop offset="1" stop-color="#7B6E78"/></linearGradient><linearGradient id="F" x1="270.36" y1="306.675" x2="343.165" y2="359.925" gradientUnits="userSpaceOnUse"><stop stop-color="#4E9942"/><stop offset="1" stop-color="#7B6E78"/></linearGradient><linearGradient id="G" x1="267.075" y1="305.37" x2="346.639" y2="361.233" gradientUnits="userSpaceOnUse"><stop stop-color="#4E9942"/><stop offset="1" stop-color="#7B6E78"/></linearGradient><linearGradient id="H" x1="263.063" y1="303.878" x2="350.606" y2="362.76" gradientUnits="userSpaceOnUse"><stop stop-color="#4E9942"/><stop offset="1" stop-color="#7B6E78"/></linearGradient><linearGradient id="I" x1="258.86" y1="302.57" x2="354.842" y2="364.28" gradientUnits="userSpaceOnUse"><stop stop-color="#4E9942"/><stop offset="1" stop-color="#7B6E78"/></linearGradient><linearGradient id="J" x1="253.773" y1="300.986" x2="359.482" y2="365.768" gradientUnits="userSpaceOnUse"><stop stop-color="#4E9942"/><stop offset="1" stop-color="#7B6E78"/></linearGradient><linearGradient id="K" x1="248.404" y1="299.516" x2="365.172" y2="367.544" gradientUnits="userSpaceOnUse"><stop stop-color="#4E9942"/><stop offset="1" stop-color="#7B6E78"/></linearGradient><linearGradient id="L" x1="242.392" y1="297.882" x2="371.319" y2="369.031" gradientUnits="userSpaceOnUse"><stop stop-color="#4E9942"/><stop offset="1" stop-color="#7B6E78"/></linearGradient><linearGradient id="M" x1="235.492" y1="296.218" x2="378.262" y2="370.557" gradientUnits="userSpaceOnUse"><stop stop-color="#4E9942"/><stop offset="1" stop-color="#7B6E78"/></linearGradient><linearGradient id="N" x1="227.661" y1="294.725" x2="385.707" y2="372.021" gradientUnits="userSpaceOnUse"><stop stop-color="#4E9942"/><stop offset="1" stop-color="#7B6E78"/></linearGradient><linearGradient id="O" x1="218.869" y1="293.36" x2="394.53" y2="373.652" gradientUnits="userSpaceOnUse"><stop stop-color="#4E9942"/><stop offset="1" stop-color="#7B6E78"/></linearGradient><linearGradient id="P" x1="209.131" y1="291.979" x2="404.227" y2="374.803" gradientUnits="userSpaceOnUse"><stop stop-color="#4E9942"/><stop offset="1" stop-color="#7B6E78"/></linearGradient><linearGradient id="Q" x1="198.099" y1="290.944" x2="415.34" y2="376.01" gradientUnits="userSpaceOnUse"><stop stop-color="#4E9942"/><stop offset="1" stop-color="#7B6E78"/></linearGradient><linearGradient id="R" x1="185.68" y1="290.057" x2="427.834" y2="376.773" gradientUnits="userSpaceOnUse"><stop stop-color="#4E9942"/><stop offset="1" stop-color="#7B6E78"/></linearGradient><linearGradient id="S" x1="171.534" y1="289.616" x2="441.671" y2="377.18" gradientUnits="userSpaceOnUse"><stop stop-color="#4E9942"/><stop offset="1" stop-color="#7B6E78"/></linearGradient><linearGradient id="T" x1="156.002" y1="289.713" x2="457.535" y2="377.121" gradientUnits="userSpaceOnUse"><stop stop-color="#4E9942"/><stop offset="1" stop-color="#7B6E78"/></linearGradient><linearGradient id="U" x1="138.418" y1="290.45" x2="475.041" y2="376.352" gradientUnits="userSpaceOnUse"><stop stop-color="#4E9942"/><stop offset="1" stop-color="#7B6E78"/></linearGradient><linearGradient id="V" x1="118.545" y1="292.025" x2="494.858" y2="374.899" gradientUnits="userSpaceOnUse"><stop stop-color="#4E9942"/><stop offset="1" stop-color="#7B6E78"/></linearGradient><linearGradient id="W" x1="96.6" y1="294.425" x2="516.892" y2="372.185" gradientUnits="userSpaceOnUse"><stop stop-color="#4E9942"/><stop offset="1" stop-color="#7B6E78"/></linearGradient><linearGradient id="X" x1="71.934" y1="298.299" x2="541.269" y2="368.559" gradientUnits="userSpaceOnUse"><stop stop-color="#4E9942"/><stop offset="1" stop-color="#7B6E78"/></linearGradient><linearGradient id="Y" x1="44.913" y1="303.35" x2="568.691" y2="363.275" gradientUnits="userSpaceOnUse"><stop stop-color="#4E9942"/><stop offset="1" stop-color="#7B6E78"/></linearGradient><linearGradient id="Z" x1="319.689" y1="40.787" x2="293.86" y2="626.04" gradientUnits="userSpaceOnUse"><stop stop-color="#4E9942"/><stop offset="1" stop-color="#7B6E78"/></linearGradient><clipPath id="a"><path fill="#fff" transform="rotate(2.527 14.147 641.403)" d="M0 0h585.822v641.725H0z"/></clipPath></defs></svg>