<svg width="541" height="588" viewBox="0 0 541 588" fill="none" xmlns="http://www.w3.org/2000/svg">
<path d="M273.723 301.116C293.874 291.524 308.589 280.345 306.591 276.147C304.592 271.949 286.637 276.321 266.486 285.913C246.336 295.505 231.62 306.684 233.619 310.882C235.617 315.081 253.572 310.708 273.723 301.116Z" stroke="url(#paint0_linear_28_129)" stroke-width="2" stroke-miterlimit="10"/>
<path d="M274.018 301.314C295.57 290.529 311.299 278.304 309.149 274.007C306.999 269.711 287.785 274.97 266.233 285.755C244.681 296.539 228.952 308.765 231.102 313.061C233.252 317.358 252.466 312.098 274.018 301.314Z" stroke="url(#paint1_linear_28_129)" stroke-width="2" stroke-miterlimit="10"/>
<path d="M274.407 301.457C297.465 289.363 314.291 275.998 311.987 271.606C309.684 267.214 289.123 273.458 266.064 285.552C243.005 297.646 226.18 311.01 228.484 315.402C230.787 319.795 251.348 313.551 274.407 301.457Z" stroke="url(#paint2_linear_28_129)" stroke-width="2" stroke-miterlimit="10"/>
<path d="M274.463 301.712C299.06 288.228 317.006 273.661 314.548 269.177C312.089 264.692 290.157 271.988 265.56 285.472C240.963 298.957 223.017 313.524 225.475 318.008C227.934 322.493 249.866 315.197 274.463 301.712Z" stroke="url(#paint3_linear_28_129)" stroke-width="2" stroke-miterlimit="10"/>
<path d="M274.904 301.864C301.072 286.901 320.165 271.062 317.55 266.488C314.934 261.913 291.6 270.335 265.431 285.298C239.263 300.262 220.17 316.1 222.785 320.675C225.401 325.249 248.735 316.827 274.904 301.864Z" stroke="url(#paint4_linear_28_129)" stroke-width="2" stroke-miterlimit="10"/>
<path d="M275.133 301.944C302.966 285.376 323.279 268.166 320.505 263.505C317.73 258.844 292.918 268.497 265.085 285.065C237.252 301.633 216.939 318.843 219.713 323.504C222.488 328.165 247.3 318.512 275.133 301.944Z" stroke="url(#paint5_linear_28_129)" stroke-width="2" stroke-miterlimit="10"/>
<path d="M275.361 302.303C304.883 284.042 326.404 265.339 323.428 260.529C320.453 255.718 294.108 266.622 264.586 284.883C235.063 303.143 213.543 321.847 216.518 326.657C219.494 331.468 245.838 320.564 275.361 302.303Z" stroke="url(#paint6_linear_28_129)" stroke-width="2" stroke-miterlimit="10"/>
<path d="M275.735 302.531C307.036 282.441 329.832 262.137 326.651 257.181C323.47 252.226 295.517 264.494 264.216 284.584C232.916 304.673 210.12 324.977 213.301 329.933C216.482 334.889 244.435 322.621 275.735 302.531Z" stroke="url(#paint7_linear_28_129)" stroke-width="2" stroke-miterlimit="10"/>
<path d="M276.215 302.719C309.249 280.747 333.28 258.802 329.89 253.705C326.5 248.608 296.972 262.288 263.938 284.261C230.904 306.234 206.872 328.179 210.263 333.276C213.653 338.373 243.181 324.692 276.215 302.719Z" stroke="url(#paint8_linear_28_129)" stroke-width="2" stroke-miterlimit="10"/>
<path d="M276.629 303.16C311.48 279.169 336.81 255.477 333.207 250.244C329.604 245.01 298.432 260.215 263.582 284.206C228.732 308.197 203.401 331.888 207.004 337.122C210.607 342.356 241.779 327.15 276.629 303.16Z" stroke="url(#paint9_linear_28_129)" stroke-width="2" stroke-miterlimit="10"/>
<path d="M277.24 303.332C313.981 277.173 340.631 251.565 336.765 246.136C332.9 240.707 299.982 257.512 263.242 283.672C226.501 309.831 199.851 335.439 203.716 340.868C207.582 346.297 240.5 329.491 277.24 303.332Z" stroke="url(#paint10_linear_28_129)" stroke-width="2" stroke-miterlimit="10"/>
<path d="M277.542 303.794C316.117 275.418 344.038 247.86 339.905 242.242C335.772 236.624 301.152 255.074 262.577 283.451C224.002 311.828 196.082 339.386 200.214 345.004C204.347 350.621 238.968 332.171 277.542 303.794Z" stroke="url(#paint11_linear_28_129)" stroke-width="2" stroke-miterlimit="10"/>
<path d="M277.926 304.046C318.401 273.298 347.641 243.67 343.235 237.87C338.829 232.07 302.446 252.295 261.97 283.043C221.495 313.791 192.255 343.419 196.661 349.218C201.067 355.018 237.45 334.794 277.926 304.046Z" stroke="url(#paint12_linear_28_129)" stroke-width="2" stroke-miterlimit="10"/>
<path d="M278.576 304.301C320.958 271.073 351.517 239.291 346.832 233.315C342.146 227.338 303.99 249.431 261.608 282.66C219.226 315.888 188.666 347.67 193.352 353.647C198.037 359.623 236.193 337.53 278.576 304.301Z" stroke="url(#paint13_linear_28_129)" stroke-width="2" stroke-miterlimit="10"/>
<path d="M279.244 304.812C323.591 268.949 355.473 234.845 350.454 228.639C345.435 222.433 305.416 246.474 261.069 282.338C216.722 318.201 184.84 352.306 189.859 358.512C194.878 364.718 234.897 340.676 279.244 304.812Z" stroke="url(#paint14_linear_28_129)" stroke-width="2" stroke-miterlimit="10"/>
<path d="M279.875 305.323C326.115 266.761 359.214 230.242 353.805 223.755C348.395 217.269 306.525 243.271 260.285 281.832C214.045 320.394 180.946 356.913 186.355 363.4C191.765 369.887 233.635 343.884 279.875 305.323Z" stroke="url(#paint15_linear_28_129)" stroke-width="2" stroke-miterlimit="10"/>
<path d="M280.719 305.739C328.843 264.361 363.144 225.339 357.334 218.582C351.524 211.824 307.802 239.89 259.678 281.269C211.555 322.647 177.253 361.669 183.063 368.427C188.873 375.184 232.595 347.118 280.719 305.739Z" stroke="url(#paint16_linear_28_129)" stroke-width="2" stroke-miterlimit="10"/>
<path d="M281.454 306.199C331.442 261.89 366.924 220.282 360.704 213.265C354.484 206.248 308.919 236.479 258.93 280.788C208.942 325.097 173.461 366.705 179.68 373.722C185.9 380.739 231.466 350.508 281.454 306.199Z" stroke="url(#paint17_linear_28_129)" stroke-width="2" stroke-miterlimit="10"/>
<path d="M282.19 306.879C334.077 259.472 370.716 215.106 364.026 207.784C357.336 200.461 309.85 232.955 257.963 280.362C206.076 327.768 169.437 372.134 176.127 379.457C182.818 386.779 230.304 354.285 282.19 306.879Z" stroke="url(#paint18_linear_28_129)" stroke-width="2" stroke-miterlimit="10"/>
<path d="M283.126 307.357C336.77 256.829 374.442 209.694 367.269 202.079C360.096 194.464 310.795 229.252 257.151 279.781C203.508 330.31 165.836 377.445 173.009 385.06C180.181 392.675 229.483 357.886 283.126 307.357Z" stroke="url(#paint19_linear_28_129)" stroke-width="2" stroke-miterlimit="10"/>
<path d="M284.154 307.973C339.572 254.144 378.194 204.019 370.42 196.014C362.645 188.01 311.418 225.158 256 278.987C200.582 332.816 161.96 382.942 169.735 390.946C177.509 398.95 228.737 361.802 284.154 307.973Z" stroke="url(#paint20_linear_28_129)" stroke-width="2" stroke-miterlimit="10"/>
<path d="M285.211 308.625C342.311 251.425 381.841 198.309 373.505 189.988C365.169 181.666 312.123 221.291 255.024 278.491C197.924 335.692 158.393 388.808 166.729 397.129C175.065 405.45 228.112 365.826 285.211 308.625Z" stroke="url(#paint21_linear_28_129)" stroke-width="2" stroke-miterlimit="10"/>
<path d="M286.375 309.224C345.046 248.572 385.293 192.329 376.271 183.601C367.248 174.873 312.372 216.966 253.701 277.618C195.031 338.27 154.783 394.513 163.806 403.241C172.828 411.969 227.704 369.876 286.375 309.224Z" stroke="url(#paint22_linear_28_129)" stroke-width="2" stroke-miterlimit="10"/>
<path d="M287.853 310.203C348.05 245.972 388.919 186.472 379.138 177.305C369.356 168.137 312.628 212.775 252.431 277.005C192.235 341.236 151.365 400.736 161.147 409.903C170.928 419.071 227.657 374.433 287.853 310.203Z" stroke="url(#paint23_linear_28_129)" stroke-width="2" stroke-miterlimit="10"/>
<path d="M289.144 310.938C350.685 243.105 392.014 180.349 381.455 170.769C370.895 161.189 312.446 208.412 250.904 276.245C189.363 344.078 148.034 406.834 158.593 416.414C169.153 425.994 227.602 378.771 289.144 310.938Z" stroke="url(#paint24_linear_28_129)" stroke-width="2" stroke-miterlimit="10"/>
<path d="M290.847 311.628C353.662 240.045 395.282 173.853 383.807 163.784C372.333 153.715 312.11 203.582 249.295 275.165C186.48 346.748 144.86 412.94 156.335 423.009C167.809 433.078 228.032 383.211 290.847 311.628Z" stroke="url(#paint25_linear_28_129)" stroke-width="2" stroke-miterlimit="10"/>
<path d="M292.658 312.64C356.566 237.294 398.266 167.64 385.797 157.064C373.328 146.488 311.412 198.994 247.503 274.341C183.595 349.687 141.895 419.341 154.364 429.917C166.833 440.493 228.75 387.987 292.658 312.64Z" stroke="url(#paint26_linear_28_129)" stroke-width="2" stroke-miterlimit="10"/>
<path d="M294.703 313.802C359.563 234.612 401.111 161.381 387.503 150.235C373.895 139.09 310.284 194.251 245.424 273.441C180.564 352.631 139.016 425.862 152.624 437.008C166.232 448.153 229.843 392.992 294.703 313.802Z" stroke="url(#paint27_linear_28_129)" stroke-width="2" stroke-miterlimit="10"/>
<path d="M296.794 314.673C362.353 231.669 403.519 154.92 388.743 143.249C373.966 131.578 308.842 189.405 243.284 272.409C177.726 355.413 136.559 432.162 151.335 443.833C166.112 455.504 231.236 397.677 296.794 314.673Z" stroke="url(#paint28_linear_28_129)" stroke-width="2" stroke-miterlimit="10"/>
<path d="M299.224 315.775C365.32 228.879 405.804 148.472 389.645 136.181C373.487 123.891 306.806 184.371 240.71 271.267C174.613 358.164 134.13 438.571 150.288 450.861C166.446 463.152 233.127 402.672 299.224 315.775Z" stroke="url(#paint29_linear_28_129)" stroke-width="2" stroke-miterlimit="10"/>
<path d="M302.129 316.885C368.553 226.068 408.051 141.951 390.351 129.005C372.65 116.059 304.454 179.185 238.03 270.002C171.605 360.819 132.107 444.935 149.807 457.882C167.508 470.828 235.705 407.702 302.129 316.885Z" stroke="url(#paint30_linear_28_129)" stroke-width="2" stroke-miterlimit="10"/>
<path d="M305.187 318.036C371.713 223.283 409.962 135.462 390.618 121.88C371.275 108.299 301.663 174.101 235.137 268.854C168.611 363.606 130.362 451.428 149.706 465.009C169.05 478.59 238.661 412.788 305.187 318.036Z" stroke="url(#paint31_linear_28_129)" stroke-width="2" stroke-miterlimit="10"/>
<path d="M308.68 319.381C374.981 220.808 411.475 129.294 390.191 114.978C368.908 100.663 297.907 168.967 231.606 267.54C165.305 366.113 128.811 457.627 150.095 471.942C171.378 486.258 242.379 417.954 308.68 319.381Z" stroke="url(#paint32_linear_28_129)" stroke-width="2" stroke-miterlimit="10"/>
<path d="M312.409 320.718C378.245 218.317 412.699 123.143 389.364 108.14C366.029 93.1373 293.741 163.987 227.905 266.388C162.069 368.789 127.615 463.964 150.95 478.967C174.285 493.97 246.573 423.119 312.409 320.718Z" stroke="url(#paint33_linear_28_129)" stroke-width="2" stroke-miterlimit="10"/>
<path d="M316.495 322.029C381.559 215.86 413.47 117.024 387.77 101.275C362.07 85.5248 288.491 158.824 223.427 264.994C158.362 371.163 126.451 469.998 152.151 485.748C177.851 501.498 251.43 428.198 316.495 322.029Z" stroke="url(#paint34_linear_28_129)" stroke-width="2" stroke-miterlimit="10"/>
<path d="M321.504 323.592C385.515 213.72 414.392 111.244 386.003 94.7048C357.615 78.1659 282.71 153.827 218.7 263.7C154.69 373.572 125.812 476.048 154.201 492.587C182.59 509.126 257.494 433.465 321.504 323.592Z" stroke="url(#paint35_linear_28_129)" stroke-width="2" stroke-miterlimit="10"/>
<path d="M326.916 324.901C389.517 211.463 414.855 105.481 383.51 88.1834C352.165 70.8858 276.008 148.823 213.407 262.261C150.806 375.699 125.468 481.681 156.812 498.979C188.157 516.276 264.315 438.339 326.916 324.901Z" stroke="url(#paint36_linear_28_129)" stroke-width="2" stroke-miterlimit="10"/>
<path d="M333.029 326.245C393.906 209.33 415.118 99.9008 380.408 81.8273C345.698 63.7539 268.209 143.881 207.332 260.796C146.455 377.711 125.243 487.14 159.953 505.214C194.663 523.287 272.152 443.16 333.029 326.245Z" stroke="url(#paint37_linear_28_129)" stroke-width="2" stroke-miterlimit="10"/>
<path d="M339.584 327.534C398.377 207.319 414.889 94.6315 376.465 75.8395C338.041 57.0474 259.231 139.267 200.437 259.481C141.644 379.696 125.131 492.383 163.556 511.176C201.98 529.968 280.79 447.748 339.584 327.534Z" stroke="url(#paint38_linear_28_129)" stroke-width="2" stroke-miterlimit="10"/>
<path d="M347.353 328.971C403.724 205.642 414.802 89.8406 372.095 70.3198C329.389 50.7991 249.07 134.952 192.698 258.28C136.326 381.608 125.248 497.41 167.955 516.93C210.662 536.451 290.981 452.299 347.353 328.971Z" stroke="url(#paint39_linear_28_129)" stroke-width="2" stroke-miterlimit="10"/>
<path d="M355.889 329.983C409.485 203.735 414.481 85.0679 367.049 64.9317C319.617 44.7955 237.718 130.816 184.122 257.064C130.527 383.311 125.53 501.979 172.962 522.115C220.394 542.251 302.294 456.231 355.889 329.983Z" stroke="url(#paint40_linear_28_129)" stroke-width="2" stroke-miterlimit="10"/>
<path d="M365.673 331.046C416.162 202.109 414.275 80.8193 361.459 60.138C308.643 39.4566 224.899 127.215 174.41 256.152C123.922 385.089 125.808 506.378 178.624 527.06C231.44 547.741 315.185 459.983 365.673 331.046Z" stroke="url(#paint41_linear_28_129)" stroke-width="2" stroke-miterlimit="10"/>
<path d="M376.673 331.717C423.723 200.33 414.139 76.7288 355.266 55.6463C296.394 34.5639 210.526 123.984 163.476 255.371C116.426 386.759 126.01 510.36 184.883 531.442C243.755 552.525 329.623 463.105 376.673 331.717Z" stroke="url(#paint42_linear_28_129)" stroke-width="2" stroke-miterlimit="10"/>
<path d="M388.855 332.076C432.174 198.439 414.049 72.8477 348.373 51.559C282.697 30.2703 194.34 121.346 151.022 254.983C107.704 388.62 125.829 514.212 191.505 535.5C257.18 556.789 345.537 465.713 388.855 332.076Z" stroke="url(#paint43_linear_28_129)" stroke-width="2" stroke-miterlimit="10"/>
<path d="M402.823 332.024C442.131 196.421 414.569 69.266 341.26 48.0152C267.951 26.7645 176.656 119.465 137.348 255.068C98.0392 390.671 125.602 517.826 198.911 539.077C272.22 560.328 363.514 467.627 402.823 332.024Z" stroke="url(#paint44_linear_28_129)" stroke-width="2" stroke-miterlimit="10"/>
<path d="M418.235 331.347C453.26 194.096 415.308 65.9023 333.468 45.0178C251.628 24.1334 156.891 118.467 121.866 255.718C86.8413 392.969 124.793 521.163 206.633 542.048C288.473 562.932 383.21 468.598 418.235 331.347Z" stroke="url(#paint45_linear_28_129)" stroke-width="2" stroke-miterlimit="10"/>
<path d="M435.682 330.068C466.23 191.358 416.827 62.5782 325.337 42.4298C233.848 22.2815 134.917 118.394 104.37 257.104C73.8223 395.814 123.225 524.594 214.715 544.742C306.204 564.89 405.135 468.777 435.682 330.068Z" stroke="url(#paint46_linear_28_129)" stroke-width="2" stroke-miterlimit="10"/>
<path d="M455.081 327.678C480.965 187.779 419.113 59.0422 316.931 40.1371C214.75 21.2319 110.932 119.317 85.0489 259.217C59.1654 399.116 121.017 527.853 223.199 546.758C325.38 565.663 429.197 467.578 455.081 327.678Z" stroke="url(#paint47_linear_28_129)" stroke-width="2" stroke-miterlimit="10"/>
<path d="M476.544 324.486C497.618 183.713 422.201 55.7471 308.096 38.6653C193.991 21.5835 84.4072 121.855 63.3332 262.628C42.2592 403.401 117.676 531.367 231.781 548.449C345.885 565.531 455.47 465.259 476.544 324.486Z" stroke="url(#paint48_linear_28_129)" stroke-width="2" stroke-miterlimit="10"/>
<path d="M500.686 319.834C516.876 178.327 426.77 51.8019 299.429 37.2328C172.087 22.6637 55.7322 125.567 39.5424 267.075C23.3525 408.582 113.459 535.107 240.8 549.677C368.141 564.246 484.496 461.342 500.686 319.834Z" stroke="url(#paint49_linear_28_129)" stroke-width="2" stroke-miterlimit="10"/>
<path d="M258.721 551.177C401.008 557.456 521.444 447.2 527.724 304.913C534.003 162.626 423.748 42.1895 281.461 35.9101C139.174 29.6306 18.7366 139.886 12.4571 282.173C6.17764 424.46 116.434 544.897 258.721 551.177Z" stroke="url(#paint50_linear_28_129)" stroke-width="2" stroke-miterlimit="10"/>
<defs>
<linearGradient id="paint0_linear_28_129" x1="266.486" y1="285.913" x2="273.723" y2="301.116" gradientUnits="userSpaceOnUse">
<stop stop-color="#04FF2C"/>
<stop offset="0.515625" stop-color="#FFFBFE"/>
<stop offset="1" stop-color="#FF00C7"/>
</linearGradient>
<linearGradient id="paint1_linear_28_129" x1="266.233" y1="285.755" x2="274.018" y2="301.314" gradientUnits="userSpaceOnUse">
<stop stop-color="#04FF2C"/>
<stop offset="0.515625" stop-color="#FFFBFE"/>
<stop offset="1" stop-color="#FF00C7"/>
</linearGradient>
<linearGradient id="paint2_linear_28_129" x1="266.064" y1="285.552" x2="274.407" y2="301.457" gradientUnits="userSpaceOnUse">
<stop stop-color="#04FF2C"/>
<stop offset="0.515625" stop-color="#FFFBFE"/>
<stop offset="1" stop-color="#FF00C7"/>
</linearGradient>
<linearGradient id="paint3_linear_28_129" x1="265.56" y1="285.473" x2="274.463" y2="301.712" gradientUnits="userSpaceOnUse">
<stop stop-color="#04FF2C"/>
<stop offset="0.515625" stop-color="#FFFBFE"/>
<stop offset="1" stop-color="#FF00C7"/>
</linearGradient>
<linearGradient id="paint4_linear_28_129" x1="265.431" y1="285.298" x2="274.904" y2="301.864" gradientUnits="userSpaceOnUse">
<stop stop-color="#04FF2C"/>
<stop offset="0.515625" stop-color="#FFFBFE"/>
<stop offset="1" stop-color="#FF00C7"/>
</linearGradient>
<linearGradient id="paint5_linear_28_129" x1="265.085" y1="285.065" x2="275.133" y2="301.944" gradientUnits="userSpaceOnUse">
<stop stop-color="#04FF2C"/>
<stop offset="0.515625" stop-color="#FFFBFE"/>
<stop offset="1" stop-color="#FF00C7"/>
</linearGradient>
<linearGradient id="paint6_linear_28_129" x1="264.586" y1="284.883" x2="275.361" y2="302.303" gradientUnits="userSpaceOnUse">
<stop stop-color="#04FF2C"/>
<stop offset="0.515625" stop-color="#FFFBFE"/>
<stop offset="1" stop-color="#FF00C7"/>
</linearGradient>
<linearGradient id="paint7_linear_28_129" x1="264.216" y1="284.584" x2="275.735" y2="302.531" gradientUnits="userSpaceOnUse">
<stop stop-color="#04FF2C"/>
<stop offset="0.515625" stop-color="#FFFBFE"/>
<stop offset="1" stop-color="#FF00C7"/>
</linearGradient>
<linearGradient id="paint8_linear_28_129" x1="263.938" y1="284.261" x2="276.215" y2="302.72" gradientUnits="userSpaceOnUse">
<stop stop-color="#04FF2C"/>
<stop offset="0.515625" stop-color="#FFFBFE"/>
<stop offset="1" stop-color="#FF00C7"/>
</linearGradient>
<linearGradient id="paint9_linear_28_129" x1="263.582" y1="284.206" x2="276.629" y2="303.16" gradientUnits="userSpaceOnUse">
<stop stop-color="#04FF2C"/>
<stop offset="0.515625" stop-color="#FFFBFE"/>
<stop offset="1" stop-color="#FF00C7"/>
</linearGradient>
<linearGradient id="paint10_linear_28_129" x1="263.242" y1="283.672" x2="277.24" y2="303.332" gradientUnits="userSpaceOnUse">
<stop stop-color="#04FF2C"/>
<stop offset="0.515625" stop-color="#FFFBFE"/>
<stop offset="1" stop-color="#FF00C7"/>
</linearGradient>
<linearGradient id="paint11_linear_28_129" x1="262.577" y1="283.451" x2="277.542" y2="303.795" gradientUnits="userSpaceOnUse">
<stop stop-color="#04FF2C"/>
<stop offset="0.515625" stop-color="#FFFBFE"/>
<stop offset="1" stop-color="#FF00C7"/>
</linearGradient>
<linearGradient id="paint12_linear_28_129" x1="261.97" y1="283.043" x2="277.926" y2="304.046" gradientUnits="userSpaceOnUse">
<stop stop-color="#04FF2C"/>
<stop offset="0.515625" stop-color="#FFFBFE"/>
<stop offset="1" stop-color="#FF00C7"/>
</linearGradient>
<linearGradient id="paint13_linear_28_129" x1="261.608" y1="282.66" x2="278.576" y2="304.301" gradientUnits="userSpaceOnUse">
<stop stop-color="#04FF2C"/>
<stop offset="0.515625" stop-color="#FFFBFE"/>
<stop offset="1" stop-color="#FF00C7"/>
</linearGradient>
<linearGradient id="paint14_linear_28_129" x1="261.069" y1="282.338" x2="279.244" y2="304.812" gradientUnits="userSpaceOnUse">
<stop stop-color="#04FF2C"/>
<stop offset="0.515625" stop-color="#FFFBFE"/>
<stop offset="1" stop-color="#FF00C7"/>
</linearGradient>
<linearGradient id="paint15_linear_28_129" x1="260.285" y1="281.833" x2="279.875" y2="305.323" gradientUnits="userSpaceOnUse">
<stop stop-color="#04FF2C"/>
<stop offset="0.515625" stop-color="#FFFBFE"/>
<stop offset="1" stop-color="#FF00C7"/>
</linearGradient>
<linearGradient id="paint16_linear_28_129" x1="259.678" y1="281.269" x2="280.719" y2="305.739" gradientUnits="userSpaceOnUse">
<stop stop-color="#04FF2C"/>
<stop offset="0.515625" stop-color="#FFFBFE"/>
<stop offset="1" stop-color="#FF00C7"/>
</linearGradient>
<linearGradient id="paint17_linear_28_129" x1="258.93" y1="280.788" x2="281.454" y2="306.199" gradientUnits="userSpaceOnUse">
<stop stop-color="#04FF2C"/>
<stop offset="0.515625" stop-color="#FFFBFE"/>
<stop offset="1" stop-color="#FF00C7"/>
</linearGradient>
<linearGradient id="paint18_linear_28_129" x1="257.963" y1="280.362" x2="282.19" y2="306.879" gradientUnits="userSpaceOnUse">
<stop stop-color="#04FF2C"/>
<stop offset="0.515625" stop-color="#FFFBFE"/>
<stop offset="1" stop-color="#FF00C7"/>
</linearGradient>
<linearGradient id="paint19_linear_28_129" x1="257.151" y1="279.781" x2="283.126" y2="307.357" gradientUnits="userSpaceOnUse">
<stop stop-color="#04FF2C"/>
<stop offset="0.515625" stop-color="#FFFBFE"/>
<stop offset="1" stop-color="#FF00C7"/>
</linearGradient>
<linearGradient id="paint20_linear_28_129" x1="256" y1="278.987" x2="284.154" y2="307.973" gradientUnits="userSpaceOnUse">
<stop stop-color="#04FF2C"/>
<stop offset="0.515625" stop-color="#FFFBFE"/>
<stop offset="1" stop-color="#FF00C7"/>
</linearGradient>
<linearGradient id="paint21_linear_28_129" x1="255.024" y1="278.491" x2="285.211" y2="308.626" gradientUnits="userSpaceOnUse">
<stop stop-color="#04FF2C"/>
<stop offset="0.515625" stop-color="#FFFBFE"/>
<stop offset="1" stop-color="#FF00C7"/>
</linearGradient>
<linearGradient id="paint22_linear_28_129" x1="253.701" y1="277.618" x2="286.375" y2="309.224" gradientUnits="userSpaceOnUse">
<stop stop-color="#04FF2C"/>
<stop offset="0.515625" stop-color="#FFFBFE"/>
<stop offset="1" stop-color="#FF00C7"/>
</linearGradient>
<linearGradient id="paint23_linear_28_129" x1="252.431" y1="277.005" x2="287.853" y2="310.203" gradientUnits="userSpaceOnUse">
<stop stop-color="#04FF2C"/>
<stop offset="0.515625" stop-color="#FFFBFE"/>
<stop offset="1" stop-color="#FF00C7"/>
</linearGradient>
<linearGradient id="paint24_linear_28_129" x1="250.904" y1="276.245" x2="289.144" y2="310.938" gradientUnits="userSpaceOnUse">
<stop stop-color="#04FF2C"/>
<stop offset="0.515625" stop-color="#FFFBFE"/>
<stop offset="1" stop-color="#FF00C7"/>
</linearGradient>
<linearGradient id="paint25_linear_28_129" x1="249.295" y1="275.165" x2="290.847" y2="311.628" gradientUnits="userSpaceOnUse">
<stop stop-color="#04FF2C"/>
<stop offset="0.515625" stop-color="#FFFBFE"/>
<stop offset="1" stop-color="#FF00C7"/>
</linearGradient>
<linearGradient id="paint26_linear_28_129" x1="247.503" y1="274.341" x2="292.658" y2="312.64" gradientUnits="userSpaceOnUse">
<stop stop-color="#04FF2C"/>
<stop offset="0.515625" stop-color="#FFFBFE"/>
<stop offset="1" stop-color="#FF00C7"/>
</linearGradient>
<linearGradient id="paint27_linear_28_129" x1="245.424" y1="273.441" x2="294.703" y2="313.802" gradientUnits="userSpaceOnUse">
<stop stop-color="#04FF2C"/>
<stop offset="0.515625" stop-color="#FFFBFE"/>
<stop offset="1" stop-color="#FF00C7"/>
</linearGradient>
<linearGradient id="paint28_linear_28_129" x1="243.284" y1="272.409" x2="296.794" y2="314.673" gradientUnits="userSpaceOnUse">
<stop stop-color="#04FF2C"/>
<stop offset="0.515625" stop-color="#FFFBFE"/>
<stop offset="1" stop-color="#FF00C7"/>
</linearGradient>
<linearGradient id="paint29_linear_28_129" x1="240.71" y1="271.267" x2="299.224" y2="315.775" gradientUnits="userSpaceOnUse">
<stop stop-color="#04FF2C"/>
<stop offset="0.515625" stop-color="#FFFBFE"/>
<stop offset="1" stop-color="#FF00C7"/>
</linearGradient>
<linearGradient id="paint30_linear_28_129" x1="238.03" y1="270.002" x2="302.129" y2="316.885" gradientUnits="userSpaceOnUse">
<stop stop-color="#04FF2C"/>
<stop offset="0.515625" stop-color="#FFFBFE"/>
<stop offset="1" stop-color="#FF00C7"/>
</linearGradient>
<linearGradient id="paint31_linear_28_129" x1="235.137" y1="268.854" x2="305.187" y2="318.036" gradientUnits="userSpaceOnUse">
<stop stop-color="#04FF2C"/>
<stop offset="0.515625" stop-color="#FFFBFE"/>
<stop offset="1" stop-color="#FF00C7"/>
</linearGradient>
<linearGradient id="paint32_linear_28_129" x1="231.606" y1="267.54" x2="308.68" y2="319.381" gradientUnits="userSpaceOnUse">
<stop stop-color="#04FF2C"/>
<stop offset="0.515625" stop-color="#FFFBFE"/>
<stop offset="1" stop-color="#FF00C7"/>
</linearGradient>
<linearGradient id="paint33_linear_28_129" x1="227.905" y1="266.388" x2="312.409" y2="320.718" gradientUnits="userSpaceOnUse">
<stop stop-color="#04FF2C"/>
<stop offset="0.515625" stop-color="#FFFBFE"/>
<stop offset="1" stop-color="#FF00C7"/>
</linearGradient>
<linearGradient id="paint34_linear_28_129" x1="223.427" y1="264.994" x2="316.495" y2="322.029" gradientUnits="userSpaceOnUse">
<stop stop-color="#04FF2C"/>
<stop offset="0.515625" stop-color="#FFFBFE"/>
<stop offset="1" stop-color="#FF00C7"/>
</linearGradient>
<linearGradient id="paint35_linear_28_129" x1="218.7" y1="263.7" x2="321.504" y2="323.592" gradientUnits="userSpaceOnUse">
<stop stop-color="#04FF2C"/>
<stop offset="0.515625" stop-color="#FFFBFE"/>
<stop offset="1" stop-color="#FF00C7"/>
</linearGradient>
<linearGradient id="paint36_linear_28_129" x1="213.407" y1="262.261" x2="326.916" y2="324.901" gradientUnits="userSpaceOnUse">
<stop stop-color="#04FF2C"/>
<stop offset="0.515625" stop-color="#FFFBFE"/>
<stop offset="1" stop-color="#FF00C7"/>
</linearGradient>
<linearGradient id="paint37_linear_28_129" x1="207.332" y1="260.796" x2="333.029" y2="326.245" gradientUnits="userSpaceOnUse">
<stop stop-color="#04FF2C"/>
<stop offset="0.515625" stop-color="#FFFBFE"/>
<stop offset="1" stop-color="#FF00C7"/>
</linearGradient>
<linearGradient id="paint38_linear_28_129" x1="200.437" y1="259.481" x2="339.583" y2="327.534" gradientUnits="userSpaceOnUse">
<stop stop-color="#04FF2C"/>
<stop offset="0.515625" stop-color="#FFFBFE"/>
<stop offset="1" stop-color="#FF00C7"/>
</linearGradient>
<linearGradient id="paint39_linear_28_129" x1="192.698" y1="258.28" x2="347.353" y2="328.971" gradientUnits="userSpaceOnUse">
<stop stop-color="#04FF2C"/>
<stop offset="0.515625" stop-color="#FFFBFE"/>
<stop offset="1" stop-color="#FF00C7"/>
</linearGradient>
<linearGradient id="paint40_linear_28_129" x1="184.122" y1="257.064" x2="355.889" y2="329.983" gradientUnits="userSpaceOnUse">
<stop stop-color="#04FF2C"/>
<stop offset="0.515625" stop-color="#FFFBFE"/>
<stop offset="1" stop-color="#FF00C7"/>
</linearGradient>
<linearGradient id="paint41_linear_28_129" x1="174.41" y1="256.152" x2="365.673" y2="331.046" gradientUnits="userSpaceOnUse">
<stop stop-color="#04FF2C"/>
<stop offset="0.515625" stop-color="#FFFBFE"/>
<stop offset="1" stop-color="#FF00C7"/>
</linearGradient>
<linearGradient id="paint42_linear_28_129" x1="163.476" y1="255.371" x2="376.673" y2="331.717" gradientUnits="userSpaceOnUse">
<stop stop-color="#04FF2C"/>
<stop offset="0.515625" stop-color="#FFFBFE"/>
<stop offset="1" stop-color="#FF00C7"/>
</linearGradient>
<linearGradient id="paint43_linear_28_129" x1="151.022" y1="254.983" x2="388.855" y2="332.076" gradientUnits="userSpaceOnUse">
<stop stop-color="#04FF2C"/>
<stop offset="0.515625" stop-color="#FFFBFE"/>
<stop offset="1" stop-color="#FF00C7"/>
</linearGradient>
<linearGradient id="paint44_linear_28_129" x1="137.348" y1="255.068" x2="402.823" y2="332.024" gradientUnits="userSpaceOnUse">
<stop stop-color="#04FF2C"/>
<stop offset="0.515625" stop-color="#FFFBFE"/>
<stop offset="1" stop-color="#FF00C7"/>
</linearGradient>
<linearGradient id="paint45_linear_28_129" x1="121.866" y1="255.718" x2="418.235" y2="331.347" gradientUnits="userSpaceOnUse">
<stop stop-color="#04FF2C"/>
<stop offset="0.515625" stop-color="#FFFBFE"/>
<stop offset="1" stop-color="#FF00C7"/>
</linearGradient>
<linearGradient id="paint46_linear_28_129" x1="104.37" y1="257.104" x2="435.682" y2="330.068" gradientUnits="userSpaceOnUse">
<stop stop-color="#04FF2C"/>
<stop offset="0.515625" stop-color="#FFFBFE"/>
<stop offset="1" stop-color="#FF00C7"/>
</linearGradient>
<linearGradient id="paint47_linear_28_129" x1="85.0489" y1="259.217" x2="455.081" y2="327.678" gradientUnits="userSpaceOnUse">
<stop stop-color="#04FF2C"/>
<stop offset="0.515625" stop-color="#FFFBFE"/>
<stop offset="1" stop-color="#FF00C7"/>
</linearGradient>
<linearGradient id="paint48_linear_28_129" x1="63.3332" y1="262.628" x2="476.544" y2="324.486" gradientUnits="userSpaceOnUse">
<stop stop-color="#04FF2C"/>
<stop offset="0.515625" stop-color="#FFFBFE"/>
<stop offset="1" stop-color="#FF00C7"/>
</linearGradient>
<linearGradient id="paint49_linear_28_129" x1="39.5424" y1="267.075" x2="500.686" y2="319.834" gradientUnits="userSpaceOnUse">
<stop stop-color="#04FF2C"/>
<stop offset="0.515625" stop-color="#FFFBFE"/>
<stop offset="1" stop-color="#FF00C7"/>
</linearGradient>
<linearGradient id="paint50_linear_28_129" x1="281.46" y1="35.9101" x2="258.72" y2="551.177" gradientUnits="userSpaceOnUse">
<stop stop-color="#04FF2C"/>
<stop offset="0.515625" stop-color="#FFFBFE"/>
<stop offset="1" stop-color="#FF00C7"/>
</linearGradient>
</defs>
</svg>
