<svg width="382" height="383" viewBox="0 0 382 383" fill="none" xmlns="http://www.w3.org/2000/svg">
<path d="M162.5 157.06L174.6 171.26L157.2 149.245L175.2 171.451L164.8 157.537L181.8 179.171L182.4 178.789L191.9 191.56L203.2 204.807L201.6 203.854L219.3 225.679L207.2 211.383L224.6 233.399L206.6 211.288L217 225.107L200 203.473L199.4 203.95L189.9 191.084L178.6 177.932L180.2 178.789L162.5 157.06Z" stroke="url(#paint0_angular_28_6)" stroke-miterlimit="10"/>
<path d="M161.5 155.631L174 170.498L156.1 147.625L174.7 170.689L164 156.298L181.5 178.694L182.2 178.408L192 191.656L203.7 205.379L202 204.426L220.3 227.013L207.8 212.241L225.7 235.019L207.1 212.051L217.8 226.346L200.2 203.95L199.6 204.331L189.8 191.084L178.1 177.36L179.8 178.313L161.5 155.631Z" stroke="url(#paint1_angular_28_6)" stroke-miterlimit="10"/>
<path d="M160.4 154.296L173.4 169.64L154.9 146.005L174.2 169.831L163.2 155.059L181.3 178.313L182 177.932L192.1 191.656L204.2 205.951L202.4 204.903L221.3 228.443L208.3 213.004L226.8 236.734L207.6 212.813L218.6 227.681L200.5 204.426L199.7 204.712L189.7 190.988L177.5 176.693L179.4 177.741L160.4 154.296Z" stroke="url(#paint2_angular_28_6)" stroke-miterlimit="10"/>
<path d="M159.3 152.771L172.8 168.782L153.8 144.289L173.6 169.068L162.4 153.724L181 177.836L181.9 177.55L192.2 191.751L204.8 206.618L202.8 205.474L222.4 229.872L208.9 213.861L228 238.45L208.1 213.575L219.4 229.015L200.7 204.903L199.9 205.188L189.6 190.988L177 176.025L178.9 177.169L159.3 152.771Z" stroke="url(#paint3_angular_28_6)" stroke-miterlimit="10"/>
<path d="M158.2 151.246L172.2 167.925L152.6 142.479L173.1 168.211L161.6 152.295L180.8 177.36L181.7 177.074L192.3 191.751L205.4 207.285L203.3 206.046L223.5 231.397L209.5 214.719L229.2 240.165L208.7 214.433L220.2 230.349L201 205.379L200 205.57L189.5 190.893L176.4 175.358L178.5 176.597L158.2 151.246Z" stroke="url(#paint4_angular_28_6)" stroke-miterlimit="10"/>
<path d="M157.1 149.721L171.6 167.067L151.4 140.572L172.6 167.353L160.7 150.96L180.5 176.883L181.6 176.692L192.4 191.846L206 208.048L203.7 206.618L224.7 233.017L210.1 215.577L230.4 242.071L209.2 215.291L221 231.778L201.3 205.856L200.2 206.046L189.3 190.798L175.8 174.691L178 176.025L157.1 149.721Z" stroke="url(#paint5_angular_28_6)" stroke-miterlimit="10"/>
<path d="M156 148.101L171 166.114L150.1 138.762L172 166.495L159.9 149.436L180.3 176.312L181.5 176.216L192.6 191.941L206.7 208.715L204.2 207.285L225.8 234.638L210.8 216.53L231.6 243.978L209.7 216.149L221.9 233.208L201.5 206.332L200.3 206.428L189.2 190.703L175.1 173.929L177.6 175.359L156 148.101Z" stroke="url(#paint6_angular_28_6)" stroke-miterlimit="10"/>
<path d="M154.8 146.386L170.3 165.161L148.9 136.76L171.5 165.637L159 148.006L180 175.835L181.4 175.74L192.7 192.037L207.3 209.477L204.7 207.952L227 236.258L211.4 217.483L232.9 245.884L210.3 217.102L222.7 234.733L201.8 206.809L200.4 206.904L189.1 190.702L174.4 173.166L177.1 174.787L154.8 146.386Z" stroke="url(#paint7_angular_28_6)" stroke-miterlimit="10"/>
<path d="M153.5 144.67L169.7 164.208L147.6 134.759L170.9 164.684L158.2 146.481L179.8 175.358H181.3L192.9 192.132L208 210.335L205.2 208.62L228.2 238.069L212.1 218.531L234.2 247.98L210.9 218.055L223.6 236.258L202 207.381H200.5L188.9 190.607L173.8 172.404L176.6 174.119L153.5 144.67Z" stroke="url(#paint8_angular_28_6)" stroke-miterlimit="10"/>
<path d="M152.3 142.86L169 163.159L146.3 132.662L170.4 163.731L157.4 144.861L179.5 174.787L181.2 174.882L193 192.227L208.7 211.098L205.7 209.287L229.5 239.784L212.7 219.484L235.5 249.982L211.4 219.008L224.4 237.783L202.2 207.857H200.6L188.7 190.512L173 171.546L176.1 173.357L152.3 142.86Z" stroke="url(#paint9_angular_28_6)" stroke-miterlimit="10"/>
<path d="M151 140.954L168.4 162.111L145 130.47L169.8 162.683L156.5 143.241L179.3 174.215L181.1 174.406L193.2 192.323L209.5 211.955L206.2 209.954L230.7 241.69L213.4 220.533L236.8 252.174L212 219.961L225.3 239.403L202.5 208.429L200.6 208.239L188.6 190.321L172.3 170.689L175.5 172.69L151 140.954Z" stroke="url(#paint10_angular_28_6)" stroke-miterlimit="10"/>
<path d="M149.7 139.048L167.7 161.063L143.7 128.278L169.2 161.73L155.7 141.621L179.1 173.738L181.1 173.929L193.4 192.418L210.3 212.908L206.8 210.716L232 243.596L214.1 221.676L238.1 254.366L212.5 221.009L226.1 241.023L202.7 209.001L200.7 208.715L188.4 190.226L171.5 169.831L175 171.928L149.7 139.048Z" stroke="url(#paint11_angular_28_6)" stroke-miterlimit="10"/>
<path d="M148.4 137.046L167 159.919L142.4 126.086L168.7 160.681L154.9 139.905L178.8 173.166L181.1 173.452L193.6 192.513L211.1 213.861L207.4 211.479L233.3 245.597L214.8 222.724L239.4 256.653L213.1 222.057L226.9 242.738L202.9 209.572L200.7 209.191L188.2 190.13L170.7 168.878L174.4 171.165L148.4 137.046Z" stroke="url(#paint12_angular_28_6)" stroke-miterlimit="10"/>
<path d="M147.1 135.045L166.3 158.776L141 123.704L168.1 159.633L154 138.19L178.6 172.595L181.1 172.976L193.8 192.704L211.9 214.814L207.9 212.337L234.7 247.599L215.5 223.868L240.7 258.94L213.7 223.106L227.7 244.454L203.1 210.145L200.7 209.668L187.9 190.035L169.9 167.925L173.8 170.403L147.1 135.045Z" stroke="url(#paint13_angular_28_6)" stroke-miterlimit="10"/>
<path d="M145.7 132.948L165.6 157.536L139.7 121.321L167.5 158.489L153.2 136.474L178.4 171.927L181.2 172.499L194.1 192.799L212.8 215.767L208.5 213.099L236.1 249.696L216.2 225.107L242.1 261.323L214.2 224.154L228.5 246.265L203.3 210.716L200.6 210.144L187.7 189.845L169 166.876L173.3 169.545L145.7 132.948Z" stroke="url(#paint14_angular_28_6)" stroke-miterlimit="10"/>
<path d="M144.3 130.756L164.8 156.393L138.4 118.843L167 157.346L152.5 134.663L178.2 171.356L181.2 172.118L194.3 192.99L213.7 216.911L209.1 213.957L237.4 251.888L216.9 226.346L243.4 263.801L214.8 225.298L229.3 248.076L203.5 211.288L200.5 210.621L187.4 189.654L168.1 165.828L172.7 168.687L144.3 130.756Z" stroke="url(#paint15_angular_28_6)" stroke-miterlimit="10"/>
<path d="M142.9 128.564L164.1 155.154L137 116.365L166.4 156.202L151.7 132.757L178.1 170.784L181.4 171.641L194.6 193.18L214.6 217.959L209.7 214.814L238.8 254.175L217.6 227.585L244.7 266.374L215.3 226.441L230.1 249.886L203.7 211.86L200.4 211.002L187.1 189.559L167.1 164.684L172 167.829L142.9 128.564Z" stroke="url(#paint16_angular_28_6)" stroke-miterlimit="10"/>
<path d="M141.5 126.181L163.4 153.82L135.7 113.792L165.9 155.059L151 130.947L177.9 170.117L181.5 171.165L194.9 193.371L215.6 219.103L210.4 215.767L240.3 256.462L218.4 228.824L246.1 268.947L215.9 227.585L230.8 251.697L203.8 212.527L200.3 211.479L186.8 189.368L166.2 163.541L171.4 166.876L141.5 126.181Z" stroke="url(#paint17_angular_28_6)" stroke-miterlimit="10"/>
<path d="M140.1 123.799L162.7 152.485L134.4 111.123L165.4 153.915L150.3 129.04L177.8 169.545L181.7 170.784L195.2 193.561L216.6 220.342L211 216.72L241.7 258.845L219.1 230.158L247.4 271.52L216.4 228.824L231.5 253.698L204 213.099L200.1 211.955L186.5 189.177L165.1 162.397L170.8 166.019L140.1 123.799Z" stroke="url(#paint18_angular_28_6)" stroke-miterlimit="10"/>
<path d="M138.6 121.416L162 151.151L133.1 108.36L164.9 152.676L149.7 127.039L177.7 168.878L182 170.307L195.6 193.752L217.7 221.581L211.7 217.674L243.2 261.228L219.8 231.493L248.7 274.284L216.9 230.063L232.1 255.605L204.1 213.766L199.8 212.337L186.2 188.892L164.1 161.158L170.1 164.97L138.6 121.416Z" stroke="url(#paint19_angular_28_6)" stroke-miterlimit="10"/>
<path d="M137.2 118.843L161.2 149.722L131.8 105.596L164.4 151.437L149.1 125.133L177.6 168.306L182.3 169.926L196 193.943L218.8 222.82L212.3 218.626L244.6 263.801L220.5 232.922L249.9 277.048L217.4 231.302L232.7 257.511L204.1 214.338L199.5 212.813L185.8 188.701L163 159.824L169.4 164.017L137.2 118.843Z" stroke="url(#paint20_angular_28_6)" stroke-miterlimit="10"/>
<path d="M135.7 116.27L160.5 148.387L130.6 102.832L163.9 150.103L148.5 123.132L177.6 167.639L182.6 169.449L196.3 194.229L219.9 224.249L213 219.675L246.1 266.374L221.2 234.352L251.2 279.907L217.9 232.541L233.2 259.512L204.2 215.005L199.1 213.194L185.4 188.415L161.9 158.489L168.7 162.969L135.7 116.27Z" stroke="url(#paint21_angular_28_6)" stroke-miterlimit="10"/>
<path d="M134.2 113.697L159.8 146.862L129.4 99.8774L163.5 148.864L148 121.13L177.6 167.067L183.1 169.068L196.8 194.515L221.1 225.584L213.7 220.723L247.6 269.042L221.9 235.781L252.4 282.766L218.3 233.875L233.7 261.609L204.2 215.672L198.7 213.575L185 188.129L160.7 157.06L168.1 161.92L134.2 113.697Z" stroke="url(#paint22_angular_28_6)" stroke-miterlimit="10"/>
<path d="M132.7 110.933L159.1 145.433L128.2 97.0183L163 147.53L147.6 119.034L177.6 166.4L183.6 168.782L197.2 194.8L222.3 227.109L214.4 221.867L249 271.711L222.6 237.306L253.5 285.721L218.7 235.114L234.1 263.61L204.2 216.244L198.2 213.957L184.5 187.843L159.5 155.63L167.3 160.777L132.7 110.933Z" stroke="url(#paint23_angular_28_6)" stroke-miterlimit="10"/>
<path d="M131.3 108.169L158.5 143.908L127.1 93.9685L162.7 146.195L147.3 117.032L177.7 165.733L184.1 168.401L197.7 195.086L223.6 228.538L215.1 223.01L250.5 274.57L223.3 238.831L254.7 288.675L219.1 236.448L234.5 265.707L204.1 216.911L197.6 214.242L184.1 187.557L158.2 154.105L166.6 159.633L131.3 108.169Z" stroke="url(#paint24_angular_28_6)" stroke-miterlimit="10"/>
<path d="M129.8 105.31L157.8 142.288L126.1 90.9187L162.3 144.861L147.1 114.935L177.8 165.161L184.8 168.115L198.2 195.468L224.9 230.158L215.9 224.154L252 277.429L224 240.356L255.7 291.725L219.4 237.783L234.7 267.708L204 217.483L197 214.528L183.5 187.271L156.9 152.485L165.9 158.489L129.8 105.31Z" stroke="url(#paint25_angular_28_6)" stroke-miterlimit="10"/>
<path d="M128.4 102.355L157.2 140.763L125.1 87.8691L162 143.527L146.9 112.839L177.9 164.494L185.6 167.829L198.8 195.753L226.2 231.779L216.6 225.393L253.4 280.288L224.6 241.976L256.7 294.87L219.7 239.212L234.8 269.805L203.8 218.15L196.2 214.814L183 186.89L155.5 150.865L165.2 157.346L128.4 102.355Z" stroke="url(#paint26_angular_28_6)" stroke-miterlimit="10"/>
<path d="M127 99.401L156.5 139.143L124.2 84.7241L161.8 142.097L146.9 110.742L178.1 163.922L186.4 167.639L199.4 196.23L227.6 233.494L217.3 226.632L254.8 283.338L225.2 243.501L257.6 298.015L220 240.547L234.9 271.902L203.6 218.722L195.4 215.1L182.4 186.509L154.1 149.15L164.4 156.107L127 99.401Z" stroke="url(#paint27_angular_28_6)" stroke-miterlimit="10"/>
<path d="M125.6 96.2558L156 137.522L123.4 81.4836L161.6 140.763L147 108.645L178.4 163.35L187.4 167.448L200 196.611L229.1 235.305L218.1 227.871L256.2 286.388L225.8 245.216L258.4 301.16L220.2 241.976L234.8 273.998L203.3 219.389L194.4 215.291L181.8 186.032L152.7 147.339L163.7 154.772L125.6 96.2558Z" stroke="url(#paint28_angular_28_6)" stroke-miterlimit="10"/>
<path d="M124.2 93.2061L155.4 135.807L122.7 78.3386L161.5 139.333L147.2 106.644L178.8 162.778L188.4 167.258L200.7 197.088L230.6 237.115L218.8 229.205L257.6 289.533L226.3 246.837L259.1 304.4L220.3 243.31L234.5 276.095L203 219.961L193.3 215.386L181.1 185.651L151.2 145.528L162.9 153.534L124.2 93.2061Z" stroke="url(#paint29_angular_28_6)" stroke-miterlimit="10"/>
<path d="M122.9 89.9658L154.9 134.092L122.1 75.0984L161.4 137.999L147.6 104.547L179.2 162.206L189.6 167.162L201.4 197.564L232.1 239.022L219.6 230.54L258.9 292.678L226.8 248.552L259.7 307.641L220.3 244.74L234.2 278.096L202.6 220.533L192.1 215.482L180.4 185.175L149.6 143.622L162.2 152.2L122.9 89.9658Z" stroke="url(#paint30_angular_28_6)" stroke-miterlimit="10"/>
<path d="M121.6 86.7255L154.5 132.376L121.7 71.7627L161.5 136.57L148.2 102.546L179.7 161.635L191 167.162L202.2 198.041L233.8 241.023L220.4 231.874L260.2 295.918L227.3 250.268L260.1 310.881L220.3 246.074L233.6 280.193L202.1 221.009L190.8 215.482L179.6 184.603L148 141.621L161.4 150.77L121.6 86.7255Z" stroke="url(#paint31_angular_28_6)" stroke-miterlimit="10"/>
<path d="M120.4 83.3898L154.1 130.661L121.4 68.5222L161.6 135.14L148.9 100.449L180.3 161.158L192.5 167.162L203 198.612L235.4 243.12L221.1 233.303L261.4 299.254L227.7 251.983L260.4 314.217L220.2 247.504L232.9 282.194L201.5 221.581L189.3 215.481L178.8 184.031L146.4 139.524L160.7 149.34L120.4 83.3898Z" stroke="url(#paint32_angular_28_6)" stroke-miterlimit="10"/>
<path d="M119.3 80.0541L153.8 128.945L121.3 65.1865L161.8 133.806L149.8 98.543L180.9 160.586L194.1 167.353L203.9 199.184L237.1 245.216L221.9 234.733L262.5 302.589L228 253.794L260.5 317.457L220 248.933L231.9 284.1L200.8 222.057L187.7 215.386L177.9 183.459L144.6 137.427L159.9 147.911L119.3 80.0541Z" stroke="url(#paint33_angular_28_6)" stroke-miterlimit="10"/>
<path d="M118.2 76.623L153.5 127.134L121.3 61.9463L162.1 132.376L151 96.6369L181.7 160.205L195.9 167.543L204.8 199.851L238.9 247.504L222.6 236.258L263.6 306.02L228.3 255.509L260.4 320.793L219.7 250.267L230.8 286.102L200 222.534L185.8 215.195L176.9 182.887L142.9 135.14L159.2 146.386L118.2 76.623Z" stroke="url(#paint34_angular_28_6)" stroke-miterlimit="10"/>
<path d="M117.2 73.1923L153.3 125.419L121.6 58.6108L162.6 131.042L152.4 94.731L182.6 159.729L197.9 167.829L205.8 200.519L240.8 249.791L223.4 237.783L264.5 309.547L228.5 257.32L260.2 324.033L219.2 251.602L229.3 287.913L199.1 222.915L183.8 214.91L175.9 182.125L141 132.853L158.4 144.861L117.2 73.1923Z" stroke="url(#paint35_angular_28_6)" stroke-miterlimit="10"/>
<path d="M116.4 69.666L153.2 123.608L122.1 55.3704L163.1 129.708L154.1 92.9202L183.6 159.347L200.1 168.211L206.9 201.281L242.6 252.269L224.1 239.308L265.4 312.978L228.5 259.035L259.7 327.369L218.6 252.936L227.7 289.723L198.1 223.296L181.6 214.528L174.8 181.458L139.1 130.47L157.7 143.336L116.4 69.666Z" stroke="url(#paint36_angular_28_6)" stroke-miterlimit="10"/>
<path d="M115.6 66.1398L153.2 121.797L122.9 52.1301L163.9 128.469L156.1 91.3001L184.8 159.061L202.6 168.687L208.1 202.044L244.6 254.747L224.8 240.928L266.1 316.599L228.5 260.846L258.9 330.609L217.9 254.27L225.7 291.439L197 223.582L179.2 214.052L173.7 180.6L137.2 127.992L157 141.716L115.6 66.1398Z" stroke="url(#paint37_angular_28_6)" stroke-miterlimit="10"/>
<path d="M115 62.5182L153.3 119.987L123.9 48.8896L164.7 127.134L158.4 89.6799L186.1 158.775L205.2 169.259L209.3 202.901L246.6 257.32L225.5 242.548L266.7 320.125L228.4 262.657L257.9 333.754L217 255.509L223.4 293.059L195.7 223.868L176.5 213.385L172.5 179.838L135.1 125.324L156.3 140.096L115 62.5182Z" stroke="url(#paint38_angular_28_6)" stroke-miterlimit="10"/>
<path d="M114.6 58.8965L153.6 118.271L125.3 45.7446L165.8 125.991L161 88.155L187.6 158.585L208.2 170.021L210.6 203.759L248.7 259.988L226.1 244.168L267.2 323.747L228.2 264.372L256.5 336.899L216 256.748L220.8 294.489L194.2 224.059L173.6 212.622L171.1 178.885L133.1 122.655L155.6 138.476L114.6 58.8965Z" stroke="url(#paint39_angular_28_6)" stroke-miterlimit="10"/>
<path d="M114.3 55.2751L154 116.46L127 42.6948L167 124.752L164 86.8207L189.2 158.489L211.3 170.879L212 204.712L250.9 262.752L226.8 245.884L267.5 327.369L227.8 266.183L254.8 340.044L214.8 257.892L217.7 295.823L192.6 224.154L170.4 211.765L169.7 177.932L130.9 119.891L155 136.76L114.3 55.2751Z" stroke="url(#paint40_angular_28_6)" stroke-miterlimit="10"/>
<path d="M114.2 51.6536L154.5 114.745L129 39.6453L168.5 123.704L167.5 85.6771L191 158.49L214.8 171.927L213.5 205.76L253.1 265.707L227.4 247.599L267.6 330.99L227.3 267.899L252.7 342.999L213.3 258.94L214.3 297.062L190.7 224.249L166.9 210.716L168.2 176.883L128.7 117.032L154.4 135.045L114.2 51.6536Z" stroke="url(#paint41_angular_28_6)" stroke-miterlimit="10"/>
<path d="M114.3 48.032L155.2 113.03L131.5 36.7861L170.1 122.655L171.3 84.6288L193 158.49L218.6 173.166L215.1 206.904L255.3 268.661L228 249.315L267.4 334.612L226.6 269.614L250.3 345.858L211.6 259.989L210.4 298.11L188.7 224.154L163.1 209.477L166.6 175.74L126.4 113.983L153.8 133.329L114.3 48.032Z" stroke="url(#paint42_angular_28_6)" stroke-miterlimit="10"/>
<path d="M114.7 44.4104L156 111.409L134.4 34.0222L172.1 121.702L175.7 83.771L195.3 158.68L222.8 174.596L216.8 208.048L257.7 271.806L228.5 251.125L267.1 338.233L225.8 271.33L247.4 348.621L209.7 260.942L206.1 298.873L186.5 224.059L159 208.048L164.9 174.596L124.1 110.837L153.3 131.518L114.7 44.4104Z" stroke="url(#paint43_angular_28_6)" stroke-miterlimit="10"/>
<path d="M115.3 40.7887L157.1 109.694L137.8 31.449L174.2 120.844L180.6 83.1991L197.8 158.966L227.3 176.216L218.7 209.382L260.1 275.047L228.9 252.936L266.5 341.855L224.7 272.95L243.9 351.195L207.5 261.799L201.2 299.54L184 223.773L154.5 206.428L163.1 173.357L121.7 107.692L152.8 129.803L115.3 40.7887Z" stroke="url(#paint44_angular_28_6)" stroke-miterlimit="10"/>
<path d="M116.2 37.2625L158.3 108.169L141.8 29.0664L176.7 120.177L186.1 82.8179L200.5 159.347L232.2 178.027L220.6 210.716L262.6 278.382L229.4 254.747L265.6 345.476L223.4 274.475L240 353.673L205.1 262.562L195.7 299.826L181.3 223.392L149.5 204.617L161.2 171.927L119.2 104.357L152.4 127.992L116.2 37.2625Z" stroke="url(#paint45_angular_28_6)" stroke-miterlimit="10"/>
<path d="M117.4 33.7362L159.9 106.644L146.3 26.7791L179.5 119.51L192.2 82.7226L203.5 159.824L237.6 180.124L222.7 212.146L265.1 281.813L229.7 256.558L264.3 348.907L221.9 276L235.5 355.865L202.3 263.134L189.6 299.921L178.3 222.82L144.2 202.52L159.1 170.498L116.6 100.83L152.1 126.086L117.4 33.7362Z" stroke="url(#paint46_angular_28_6)" stroke-miterlimit="10"/>
<path d="M119 30.3054L161.6 105.215L151.4 24.7778L182.6 119.034L198.9 82.9134L206.8 160.491L243.4 182.506L224.9 213.766L267.7 285.435L230 258.368L262.8 352.434L220.1 277.429L230.3 357.866L199.1 263.61L182.8 299.731L175 222.153L138.4 200.233L156.9 168.973L114 97.3043L151.8 124.275L119 30.3054Z" stroke="url(#paint47_angular_28_6)" stroke-miterlimit="10"/>
<path d="M121 26.8744L163.7 103.88L157.3 23.0623L186.1 118.748L206.4 83.4852L210.4 161.349L249.7 185.079L227.2 215.386L270.4 289.056L230.2 260.275L260.8 355.769L218.1 278.764L224.5 359.581L195.6 263.896L175.3 299.159L171.3 221.295L132.1 197.564L154.5 167.258L111.3 93.5874L151.6 122.465L121 26.8744Z" stroke="url(#paint48_angular_28_6)" stroke-miterlimit="10"/>
<path d="M123.3 23.6339L166 102.641L163.9 21.6326L190 118.652L214.7 84.4381L214.4 162.397L256.5 188.034L229.8 217.197L273.2 292.964L230.3 262.085L258.5 359.01L215.7 280.002L217.9 361.106L191.7 264.087L167 298.301L167.4 220.342L125.3 194.61L152 165.542L108.6 89.7751L151.5 120.558L123.3 23.6339Z" stroke="url(#paint49_angular_28_6)" stroke-miterlimit="10"/>
<path d="M126.1 20.489L168.7 101.498L171.3 20.489L194.4 118.652L223.9 85.7724L218.7 163.541L263.9 191.274L232.4 219.103L276 296.871L230.3 263.991L255.6 362.155L213.1 281.146L210.5 362.155L187.4 263.991L157.9 296.967L163 219.103L117.9 191.369L149.3 163.636L105.8 85.7724L151.5 118.652L126.1 20.489Z" stroke="url(#paint50_angular_28_6)" stroke-miterlimit="10"/>
<path d="M129.5 17.5344L171.8 100.544L179.5 19.7265L199.2 118.938L233.9 87.4877L223.5 164.97L271.9 194.991L235.3 221.104L278.9 300.969L230.2 265.897L252.3 365.109L210 282.099L202.2 362.917L182.6 263.705L147.9 295.156L158.3 217.673L109.9 187.748L146.5 161.539L102.9 81.6742L151.6 116.841L129.5 17.5344Z" stroke="url(#paint51_angular_28_6)" stroke-miterlimit="10"/>
<path d="M133.3 14.6753L175.2 99.6867L188.8 19.4405L204.5 119.415L245 89.7751L228.7 166.686L280.5 198.994L238.4 223.296L281.8 305.258L229.9 267.708L248.4 367.968L206.6 282.957L193 363.298L177.2 263.229L136.8 292.868L153.1 216.053L101.2 183.65L143.4 159.347L99.8999 77.4808L151.8 114.935L133.3 14.6753Z" stroke="url(#paint52_angular_28_6)" stroke-miterlimit="10"/>
<path d="M137.8 12.1023L179.1 99.0197L199 19.5361L210.4 120.273L257.1 92.6344L234.3 168.592L289.9 203.473L241.6 225.584L284.9 309.642L229.5 269.519L243.9 370.637L202.7 283.624L182.8 363.108L171.3 262.466L124.7 290.009L147.5 214.052L91.8999 179.266L140.2 157.06L96.8999 73.097L152.2 113.125L137.8 12.1023Z" stroke="url(#paint53_angular_28_6)" stroke-miterlimit="10"/>
<path d="M142.9 9.62427L183.4 98.6384L210.4 20.203L216.9 121.321L270.4 96.0652L240.5 170.784L300 208.334L245.1 228.062L287.9 314.121L229 271.33L238.8 373.019L198.4 284.1L171.4 362.441L164.9 261.323L111.4 286.578L141.3 211.86L81.7998 174.31L136.7 154.582L93.7998 68.5222L152.8 111.314L142.9 9.62427Z" stroke="url(#paint54_angular_28_6)" stroke-miterlimit="10"/>
<path d="M148.8 7.52759L188.2 98.3526L223 21.4421L224 122.75L284.9 100.163L247.1 173.262L310.9 213.766L248.8 230.73L291.1 318.791L228.3 273.141L233 375.116L193.5 284.291L158.8 361.297L157.7 259.989L96.8999 282.48L134.6 209.382L70.8999 168.878L133 151.914L90.6998 63.8525L153.5 109.503L148.8 7.52759Z" stroke="url(#paint55_angular_28_6)" stroke-miterlimit="10"/>
<path d="M155.4 5.7168L193.6 98.3525L236.8 23.2527L231.8 124.466L300.8 105.024L254.4 176.121L322.7 219.77L252.7 233.589L294.3 323.652L227.4 274.951L226.4 377.022L188.1 284.291L144.9 359.486L149.9 258.178L81.0001 277.715L127.4 206.523L59.1001 162.969L129.1 149.054L87.5001 58.9918L154.4 107.788L155.4 5.7168Z" stroke="url(#paint56_angular_28_6)" stroke-miterlimit="10"/>
<path d="M162.8 4.19189L199.6 98.6385L252.1 25.7307L240.4 126.563L318.1 110.552L262.3 179.266L335.4 226.251L256.9 236.639L297.6 328.608L226.3 276.667L219 378.547L182.2 284.1L129.6 356.913L141.4 256.081L63.6998 272.092L119.5 203.378L46.3999 156.393L124.9 146.1L84.1998 54.0361L155.5 106.072L162.8 4.19189Z" stroke="url(#paint57_angular_28_6)" stroke-miterlimit="10"/>
<path d="M171.2 3.04834L206.2 99.2103L269 29.0664L249.8 129.136L336.9 117.032L270.9 182.887L349.1 233.399L261.4 239.879L300.9 333.754L225 278.287L210.6 379.691L175.5 283.529L112.8 353.673L132 253.508L44.8003 265.612L110.9 199.756L32.7002 149.245L120.4 142.86L80.9003 48.8897L156.8 104.357L171.2 3.04834Z" stroke="url(#paint58_angular_28_6)" stroke-miterlimit="10"/>
<path d="M180.5 2.28589L213.5 100.068L287.4 33.1645L260 132.186L357.5 124.466L280.1 186.89L363.9 241.309L266.2 243.31L304.2 338.996L223.4 279.812L201.3 380.358L168.2 282.576L94.3999 349.479L121.7 250.458L24.2999 258.273L101.6 195.753L17.8999 141.43L115.6 139.429L77.4999 43.648L158.4 102.832L180.5 2.28589Z" stroke="url(#paint59_angular_28_6)" stroke-miterlimit="10"/>
<path d="M190.9 2L221.6 101.307L307.6 38.2156L271.2 135.712L379.8 132.853L290.2 191.369L379.8 249.791L271.2 246.932L307.6 344.523L221.6 281.337L190.9 380.644L160.2 281.337L74.1 344.523L110.5 246.932L2 249.791L91.6 191.369L2 132.853L110.5 135.712L74.1 38.2156L160.2 101.307L190.9 2Z" stroke="url(#paint60_angular_28_6)" stroke-miterlimit="10"/>
<defs>
<radialGradient id="paint0_angular_28_6" cx="0" cy="0" r="1" gradientUnits="userSpaceOnUse" gradientTransform="translate(190.9 191.322) rotate(90) scale(42.0768 33.7)">
<stop offset="0.140625" stop-color="#4100FB"/>
<stop offset="0.494792" stop-color="#00FCED"/>
<stop offset="0.807292" stop-color="#FF8744"/>
</radialGradient>
<radialGradient id="paint1_angular_28_6" cx="0" cy="0" r="1" gradientUnits="userSpaceOnUse" gradientTransform="translate(190.9 191.322) rotate(90) scale(43.697 34.8)">
<stop offset="0.140625" stop-color="#4100FB"/>
<stop offset="0.494792" stop-color="#00FCED"/>
<stop offset="0.807292" stop-color="#FF8744"/>
</radialGradient>
<radialGradient id="paint2_angular_28_6" cx="0" cy="0" r="1" gradientUnits="userSpaceOnUse" gradientTransform="translate(190.85 191.37) rotate(90) scale(45.3648 35.95)">
<stop offset="0.140625" stop-color="#4100FB"/>
<stop offset="0.494792" stop-color="#00FCED"/>
<stop offset="0.807292" stop-color="#FF8744"/>
</radialGradient>
<radialGradient id="paint3_angular_28_6" cx="0" cy="0" r="1" gradientUnits="userSpaceOnUse" gradientTransform="translate(190.9 191.369) rotate(90) scale(47.0803 37.1)">
<stop offset="0.140625" stop-color="#4100FB"/>
<stop offset="0.494792" stop-color="#00FCED"/>
<stop offset="0.807292" stop-color="#FF8744"/>
</radialGradient>
<radialGradient id="paint4_angular_28_6" cx="0" cy="0" r="1" gradientUnits="userSpaceOnUse" gradientTransform="translate(190.9 191.322) rotate(90) scale(48.8434 38.3)">
<stop offset="0.140625" stop-color="#4100FB"/>
<stop offset="0.494792" stop-color="#00FCED"/>
<stop offset="0.807292" stop-color="#FF8744"/>
</radialGradient>
<radialGradient id="paint5_angular_28_6" cx="0" cy="0" r="1" gradientUnits="userSpaceOnUse" gradientTransform="translate(190.9 191.322) rotate(90) scale(50.7495 39.5)">
<stop offset="0.140625" stop-color="#4100FB"/>
<stop offset="0.494792" stop-color="#00FCED"/>
<stop offset="0.807292" stop-color="#FF8744"/>
</radialGradient>
<radialGradient id="paint6_angular_28_6" cx="0" cy="0" r="1" gradientUnits="userSpaceOnUse" gradientTransform="translate(190.85 191.37) rotate(90) scale(52.608 40.75)">
<stop offset="0.140625" stop-color="#4100FB"/>
<stop offset="0.494792" stop-color="#00FCED"/>
<stop offset="0.807292" stop-color="#FF8744"/>
</radialGradient>
<radialGradient id="paint7_angular_28_6" cx="0" cy="0" r="1" gradientUnits="userSpaceOnUse" gradientTransform="translate(190.9 191.322) rotate(90) scale(54.5617 42)">
<stop offset="0.140625" stop-color="#4100FB"/>
<stop offset="0.494792" stop-color="#00FCED"/>
<stop offset="0.807292" stop-color="#FF8744"/>
</radialGradient>
<radialGradient id="paint8_angular_28_6" cx="0" cy="0" r="1" gradientUnits="userSpaceOnUse" gradientTransform="translate(190.9 191.37) rotate(90) scale(56.6107 43.3)">
<stop offset="0.140625" stop-color="#4100FB"/>
<stop offset="0.494792" stop-color="#00FCED"/>
<stop offset="0.807292" stop-color="#FF8744"/>
</radialGradient>
<radialGradient id="paint9_angular_28_6" cx="0" cy="0" r="1" gradientUnits="userSpaceOnUse" gradientTransform="translate(190.9 191.322) rotate(90) scale(58.6597 44.6)">
<stop offset="0.140625" stop-color="#4100FB"/>
<stop offset="0.494792" stop-color="#00FCED"/>
<stop offset="0.807292" stop-color="#FF8744"/>
</radialGradient>
<radialGradient id="paint10_angular_28_6" cx="0" cy="0" r="1" gradientUnits="userSpaceOnUse" gradientTransform="translate(190.9 191.322) rotate(90) scale(60.8518 45.9)">
<stop offset="0.140625" stop-color="#4100FB"/>
<stop offset="0.494792" stop-color="#00FCED"/>
<stop offset="0.807292" stop-color="#FF8744"/>
</radialGradient>
<radialGradient id="paint11_angular_28_6" cx="0" cy="0" r="1" gradientUnits="userSpaceOnUse" gradientTransform="translate(190.9 191.322) rotate(90) scale(63.0437 47.2)">
<stop offset="0.140625" stop-color="#4100FB"/>
<stop offset="0.494792" stop-color="#00FCED"/>
<stop offset="0.807292" stop-color="#FF8744"/>
</radialGradient>
<radialGradient id="paint12_angular_28_6" cx="0" cy="0" r="1" gradientUnits="userSpaceOnUse" gradientTransform="translate(190.9 191.369) rotate(90) scale(65.2834 48.5)">
<stop offset="0.140625" stop-color="#4100FB"/>
<stop offset="0.494792" stop-color="#00FCED"/>
<stop offset="0.807292" stop-color="#FF8744"/>
</radialGradient>
<radialGradient id="paint13_angular_28_6" cx="0" cy="0" r="1" gradientUnits="userSpaceOnUse" gradientTransform="translate(190.85 191.322) rotate(90) scale(67.6184 49.85)">
<stop offset="0.140625" stop-color="#4100FB"/>
<stop offset="0.494792" stop-color="#00FCED"/>
<stop offset="0.807292" stop-color="#FF8744"/>
</radialGradient>
<radialGradient id="paint14_angular_28_6" cx="0" cy="0" r="1" gradientUnits="userSpaceOnUse" gradientTransform="translate(190.9 191.322) rotate(90) scale(70.001 51.2)">
<stop offset="0.140625" stop-color="#4100FB"/>
<stop offset="0.494792" stop-color="#00FCED"/>
<stop offset="0.807292" stop-color="#FF8744"/>
</radialGradient>
<radialGradient id="paint15_angular_28_6" cx="0" cy="0" r="1" gradientUnits="userSpaceOnUse" gradientTransform="translate(190.9 191.322) rotate(90) scale(72.4789 52.5)">
<stop offset="0.140625" stop-color="#4100FB"/>
<stop offset="0.494792" stop-color="#00FCED"/>
<stop offset="0.807292" stop-color="#FF8744"/>
</radialGradient>
<radialGradient id="paint16_angular_28_6" cx="0" cy="0" r="1" gradientUnits="userSpaceOnUse" gradientTransform="translate(190.85 191.369) rotate(90) scale(75.0044 53.85)">
<stop offset="0.140625" stop-color="#4100FB"/>
<stop offset="0.494792" stop-color="#00FCED"/>
<stop offset="0.807292" stop-color="#FF8744"/>
</radialGradient>
<radialGradient id="paint17_angular_28_6" cx="0" cy="0" r="1" gradientUnits="userSpaceOnUse" gradientTransform="translate(190.9 191.369) rotate(90) scale(77.5777 55.2)">
<stop offset="0.140625" stop-color="#4100FB"/>
<stop offset="0.494792" stop-color="#00FCED"/>
<stop offset="0.807292" stop-color="#FF8744"/>
</radialGradient>
<radialGradient id="paint18_angular_28_6" cx="0" cy="0" r="1" gradientUnits="userSpaceOnUse" gradientTransform="translate(190.9 191.322) rotate(90) scale(80.1985 56.5)">
<stop offset="0.140625" stop-color="#4100FB"/>
<stop offset="0.494792" stop-color="#00FCED"/>
<stop offset="0.807292" stop-color="#FF8744"/>
</radialGradient>
<radialGradient id="paint19_angular_28_6" cx="0" cy="0" r="1" gradientUnits="userSpaceOnUse" gradientTransform="translate(190.9 191.322) rotate(90) scale(82.9623 57.8)">
<stop offset="0.140625" stop-color="#4100FB"/>
<stop offset="0.494792" stop-color="#00FCED"/>
<stop offset="0.807292" stop-color="#FF8744"/>
</radialGradient>
<radialGradient id="paint20_angular_28_6" cx="0" cy="0" r="1" gradientUnits="userSpaceOnUse" gradientTransform="translate(190.85 191.322) rotate(90) scale(85.7262 59.05)">
<stop offset="0.140625" stop-color="#4100FB"/>
<stop offset="0.494792" stop-color="#00FCED"/>
<stop offset="0.807292" stop-color="#FF8744"/>
</radialGradient>
<radialGradient id="paint21_angular_28_6" cx="0" cy="0" r="1" gradientUnits="userSpaceOnUse" gradientTransform="translate(190.9 191.369) rotate(90) scale(88.5377 60.3)">
<stop offset="0.140625" stop-color="#4100FB"/>
<stop offset="0.494792" stop-color="#00FCED"/>
<stop offset="0.807292" stop-color="#FF8744"/>
</radialGradient>
<radialGradient id="paint22_angular_28_6" cx="0" cy="0" r="1" gradientUnits="userSpaceOnUse" gradientTransform="translate(190.9 191.322) rotate(90) scale(91.4444 61.5)">
<stop offset="0.140625" stop-color="#4100FB"/>
<stop offset="0.494792" stop-color="#00FCED"/>
<stop offset="0.807292" stop-color="#FF8744"/>
</radialGradient>
<radialGradient id="paint23_angular_28_6" cx="0" cy="0" r="1" gradientUnits="userSpaceOnUse" gradientTransform="translate(190.85 191.37) rotate(90) scale(94.3512 62.65)">
<stop offset="0.140625" stop-color="#4100FB"/>
<stop offset="0.494792" stop-color="#00FCED"/>
<stop offset="0.807292" stop-color="#FF8744"/>
</radialGradient>
<radialGradient id="paint24_angular_28_6" cx="0" cy="0" r="1" gradientUnits="userSpaceOnUse" gradientTransform="translate(190.9 191.322) rotate(90) scale(97.3532 63.8)">
<stop offset="0.140625" stop-color="#4100FB"/>
<stop offset="0.494792" stop-color="#00FCED"/>
<stop offset="0.807292" stop-color="#FF8744"/>
</radialGradient>
<radialGradient id="paint25_angular_28_6" cx="0" cy="0" r="1" gradientUnits="userSpaceOnUse" gradientTransform="translate(190.9 191.322) rotate(90) scale(100.403 64.8)">
<stop offset="0.140625" stop-color="#4100FB"/>
<stop offset="0.494792" stop-color="#00FCED"/>
<stop offset="0.807292" stop-color="#FF8744"/>
</radialGradient>
<radialGradient id="paint26_angular_28_6" cx="0" cy="0" r="1" gradientUnits="userSpaceOnUse" gradientTransform="translate(190.9 191.37) rotate(90) scale(103.5 65.8)">
<stop offset="0.140625" stop-color="#4100FB"/>
<stop offset="0.494792" stop-color="#00FCED"/>
<stop offset="0.807292" stop-color="#FF8744"/>
</radialGradient>
<radialGradient id="paint27_angular_28_6" cx="0" cy="0" r="1" gradientUnits="userSpaceOnUse" gradientTransform="translate(190.9 191.37) rotate(90) scale(106.645 66.7)">
<stop offset="0.140625" stop-color="#4100FB"/>
<stop offset="0.494792" stop-color="#00FCED"/>
<stop offset="0.807292" stop-color="#FF8744"/>
</radialGradient>
<radialGradient id="paint28_angular_28_6" cx="0" cy="0" r="1" gradientUnits="userSpaceOnUse" gradientTransform="translate(190.9 191.322) rotate(90) scale(109.838 67.5)">
<stop offset="0.140625" stop-color="#4100FB"/>
<stop offset="0.494792" stop-color="#00FCED"/>
<stop offset="0.807292" stop-color="#FF8744"/>
</radialGradient>
<radialGradient id="paint29_angular_28_6" cx="0" cy="0" r="1" gradientUnits="userSpaceOnUse" gradientTransform="translate(190.9 191.369) rotate(90) scale(113.031 68.2)">
<stop offset="0.140625" stop-color="#4100FB"/>
<stop offset="0.494792" stop-color="#00FCED"/>
<stop offset="0.807292" stop-color="#FF8744"/>
</radialGradient>
<radialGradient id="paint30_angular_28_6" cx="0" cy="0" r="1" gradientUnits="userSpaceOnUse" gradientTransform="translate(190.9 191.37) rotate(90) scale(116.271 68.8)">
<stop offset="0.140625" stop-color="#4100FB"/>
<stop offset="0.494792" stop-color="#00FCED"/>
<stop offset="0.807292" stop-color="#FF8744"/>
</radialGradient>
<radialGradient id="paint31_angular_28_6" cx="0" cy="0" r="1" gradientUnits="userSpaceOnUse" gradientTransform="translate(190.9 191.322) rotate(90) scale(119.559 69.3)">
<stop offset="0.140625" stop-color="#4100FB"/>
<stop offset="0.494792" stop-color="#00FCED"/>
<stop offset="0.807292" stop-color="#FF8744"/>
</radialGradient>
<radialGradient id="paint32_angular_28_6" cx="0" cy="0" r="1" gradientUnits="userSpaceOnUse" gradientTransform="translate(190.9 191.369) rotate(90) scale(122.847 70.5)">
<stop offset="0.140625" stop-color="#4100FB"/>
<stop offset="0.494792" stop-color="#00FCED"/>
<stop offset="0.807292" stop-color="#FF8744"/>
</radialGradient>
<radialGradient id="paint33_angular_28_6" cx="0" cy="0" r="1" gradientUnits="userSpaceOnUse" gradientTransform="translate(190.9 191.322) rotate(90) scale(126.135 71.6)">
<stop offset="0.140625" stop-color="#4100FB"/>
<stop offset="0.494792" stop-color="#00FCED"/>
<stop offset="0.807292" stop-color="#FF8744"/>
</radialGradient>
<radialGradient id="paint34_angular_28_6" cx="0" cy="0" r="1" gradientUnits="userSpaceOnUse" gradientTransform="translate(190.9 191.369) rotate(90) scale(129.423 72.7)">
<stop offset="0.140625" stop-color="#4100FB"/>
<stop offset="0.494792" stop-color="#00FCED"/>
<stop offset="0.807292" stop-color="#FF8744"/>
</radialGradient>
<radialGradient id="paint35_angular_28_6" cx="0" cy="0" r="1" gradientUnits="userSpaceOnUse" gradientTransform="translate(190.85 191.322) rotate(90) scale(132.711 73.65)">
<stop offset="0.140625" stop-color="#4100FB"/>
<stop offset="0.494792" stop-color="#00FCED"/>
<stop offset="0.807292" stop-color="#FF8744"/>
</radialGradient>
<radialGradient id="paint36_angular_28_6" cx="0" cy="0" r="1" gradientUnits="userSpaceOnUse" gradientTransform="translate(190.9 191.37) rotate(90) scale(135.999 74.5)">
<stop offset="0.140625" stop-color="#4100FB"/>
<stop offset="0.494792" stop-color="#00FCED"/>
<stop offset="0.807292" stop-color="#FF8744"/>
</radialGradient>
<radialGradient id="paint37_angular_28_6" cx="0" cy="0" r="1" gradientUnits="userSpaceOnUse" gradientTransform="translate(190.85 191.37) rotate(90) scale(139.239 75.25)">
<stop offset="0.140625" stop-color="#4100FB"/>
<stop offset="0.494792" stop-color="#00FCED"/>
<stop offset="0.807292" stop-color="#FF8744"/>
</radialGradient>
<radialGradient id="paint38_angular_28_6" cx="0" cy="0" r="1" gradientUnits="userSpaceOnUse" gradientTransform="translate(190.85 191.322) rotate(90) scale(142.432 75.85)">
<stop offset="0.140625" stop-color="#4100FB"/>
<stop offset="0.494792" stop-color="#00FCED"/>
<stop offset="0.807292" stop-color="#FF8744"/>
</radialGradient>
<radialGradient id="paint39_angular_28_6" cx="0" cy="0" r="1" gradientUnits="userSpaceOnUse" gradientTransform="translate(190.9 191.322) rotate(90) scale(145.577 76.3)">
<stop offset="0.140625" stop-color="#4100FB"/>
<stop offset="0.494792" stop-color="#00FCED"/>
<stop offset="0.807292" stop-color="#FF8744"/>
</radialGradient>
<radialGradient id="paint40_angular_28_6" cx="0" cy="0" r="1" gradientUnits="userSpaceOnUse" gradientTransform="translate(190.9 191.369) rotate(90) scale(148.675 76.6)">
<stop offset="0.140625" stop-color="#4100FB"/>
<stop offset="0.494792" stop-color="#00FCED"/>
<stop offset="0.807292" stop-color="#FF8744"/>
</radialGradient>
<radialGradient id="paint41_angular_28_6" cx="0" cy="0" r="1" gradientUnits="userSpaceOnUse" gradientTransform="translate(190.9 191.322) rotate(90) scale(151.677 76.7)">
<stop offset="0.140625" stop-color="#4100FB"/>
<stop offset="0.494792" stop-color="#00FCED"/>
<stop offset="0.807292" stop-color="#FF8744"/>
</radialGradient>
<radialGradient id="paint42_angular_28_6" cx="0" cy="0" r="1" gradientUnits="userSpaceOnUse" gradientTransform="translate(190.85 191.322) rotate(90) scale(154.536 76.55)">
<stop offset="0.140625" stop-color="#4100FB"/>
<stop offset="0.494792" stop-color="#00FCED"/>
<stop offset="0.807292" stop-color="#FF8744"/>
</radialGradient>
<radialGradient id="paint43_angular_28_6" cx="0" cy="0" r="1" gradientUnits="userSpaceOnUse" gradientTransform="translate(190.9 191.322) rotate(90) scale(157.3 76.2)">
<stop offset="0.140625" stop-color="#4100FB"/>
<stop offset="0.494792" stop-color="#00FCED"/>
<stop offset="0.807292" stop-color="#FF8744"/>
</radialGradient>
<radialGradient id="paint44_angular_28_6" cx="0" cy="0" r="1" gradientUnits="userSpaceOnUse" gradientTransform="translate(190.9 191.322) rotate(90) scale(159.873 75.6)">
<stop offset="0.140625" stop-color="#4100FB"/>
<stop offset="0.494792" stop-color="#00FCED"/>
<stop offset="0.807292" stop-color="#FF8744"/>
</radialGradient>
<radialGradient id="paint45_angular_28_6" cx="0" cy="0" r="1" gradientUnits="userSpaceOnUse" gradientTransform="translate(190.9 191.37) rotate(90) scale(162.303 74.7)">
<stop offset="0.140625" stop-color="#4100FB"/>
<stop offset="0.494792" stop-color="#00FCED"/>
<stop offset="0.807292" stop-color="#FF8744"/>
</radialGradient>
<radialGradient id="paint46_angular_28_6" cx="0" cy="0" r="1" gradientUnits="userSpaceOnUse" gradientTransform="translate(190.85 191.322) rotate(90) scale(164.543 74.25)">
<stop offset="0.140625" stop-color="#4100FB"/>
<stop offset="0.494792" stop-color="#00FCED"/>
<stop offset="0.807292" stop-color="#FF8744"/>
</radialGradient>
<radialGradient id="paint47_angular_28_6" cx="0" cy="0" r="1" gradientUnits="userSpaceOnUse" gradientTransform="translate(190.85 191.322) rotate(90) scale(166.544 76.85)">
<stop offset="0.140625" stop-color="#4100FB"/>
<stop offset="0.494792" stop-color="#00FCED"/>
<stop offset="0.807292" stop-color="#FF8744"/>
</radialGradient>
<radialGradient id="paint48_angular_28_6" cx="0" cy="0" r="1" gradientUnits="userSpaceOnUse" gradientTransform="translate(190.85 191.322) rotate(90) scale(168.26 79.55)">
<stop offset="0.140625" stop-color="#4100FB"/>
<stop offset="0.494792" stop-color="#00FCED"/>
<stop offset="0.807292" stop-color="#FF8744"/>
</radialGradient>
<radialGradient id="paint49_angular_28_6" cx="0" cy="0" r="1" gradientUnits="userSpaceOnUse" gradientTransform="translate(190.9 191.369) rotate(90) scale(169.737 82.3)">
<stop offset="0.140625" stop-color="#4100FB"/>
<stop offset="0.494792" stop-color="#00FCED"/>
<stop offset="0.807292" stop-color="#FF8744"/>
</radialGradient>
<radialGradient id="paint50_angular_28_6" cx="0" cy="0" r="1" gradientUnits="userSpaceOnUse" gradientTransform="translate(190.9 191.322) rotate(90) scale(170.833 85.1)">
<stop offset="0.140625" stop-color="#4100FB"/>
<stop offset="0.494792" stop-color="#00FCED"/>
<stop offset="0.807292" stop-color="#FF8744"/>
</radialGradient>
<radialGradient id="paint51_angular_28_6" cx="0" cy="0" r="1" gradientUnits="userSpaceOnUse" gradientTransform="translate(190.9 191.322) rotate(90) scale(173.787 88)">
<stop offset="0.140625" stop-color="#4100FB"/>
<stop offset="0.494792" stop-color="#00FCED"/>
<stop offset="0.807292" stop-color="#FF8744"/>
</radialGradient>
<radialGradient id="paint52_angular_28_6" cx="0" cy="0" r="1" gradientUnits="userSpaceOnUse" gradientTransform="translate(190.85 191.322) rotate(90) scale(176.646 90.95)">
<stop offset="0.140625" stop-color="#4100FB"/>
<stop offset="0.494792" stop-color="#00FCED"/>
<stop offset="0.807292" stop-color="#FF8744"/>
</radialGradient>
<radialGradient id="paint53_angular_28_6" cx="0" cy="0" r="1" gradientUnits="userSpaceOnUse" gradientTransform="translate(190.9 191.37) rotate(90) scale(179.267 99)">
<stop offset="0.140625" stop-color="#4100FB"/>
<stop offset="0.494792" stop-color="#00FCED"/>
<stop offset="0.807292" stop-color="#FF8744"/>
</radialGradient>
<radialGradient id="paint54_angular_28_6" cx="0" cy="0" r="1" gradientUnits="userSpaceOnUse" gradientTransform="translate(190.9 191.322) rotate(90) scale(181.697 109.1)">
<stop offset="0.140625" stop-color="#4100FB"/>
<stop offset="0.494792" stop-color="#00FCED"/>
<stop offset="0.807292" stop-color="#FF8744"/>
</radialGradient>
<radialGradient id="paint55_angular_28_6" cx="0" cy="0" r="1" gradientUnits="userSpaceOnUse" gradientTransform="translate(190.9 191.322) rotate(90) scale(183.794 120)">
<stop offset="0.140625" stop-color="#4100FB"/>
<stop offset="0.494792" stop-color="#00FCED"/>
<stop offset="0.807292" stop-color="#FF8744"/>
</radialGradient>
<radialGradient id="paint56_angular_28_6" cx="0" cy="0" r="1" gradientUnits="userSpaceOnUse" gradientTransform="translate(190.9 191.369) rotate(90) scale(185.653 131.8)">
<stop offset="0.140625" stop-color="#4100FB"/>
<stop offset="0.494792" stop-color="#00FCED"/>
<stop offset="0.807292" stop-color="#FF8744"/>
</radialGradient>
<radialGradient id="paint57_angular_28_6" cx="0" cy="0" r="1" gradientUnits="userSpaceOnUse" gradientTransform="translate(190.9 191.369) rotate(90) scale(187.178 144.5)">
<stop offset="0.140625" stop-color="#4100FB"/>
<stop offset="0.494792" stop-color="#00FCED"/>
<stop offset="0.807292" stop-color="#FF8744"/>
</radialGradient>
<radialGradient id="paint58_angular_28_6" cx="0" cy="0" r="1" gradientUnits="userSpaceOnUse" gradientTransform="translate(190.9 191.369) rotate(90) scale(188.321 158.2)">
<stop offset="0.140625" stop-color="#4100FB"/>
<stop offset="0.494792" stop-color="#00FCED"/>
<stop offset="0.807292" stop-color="#FF8744"/>
</radialGradient>
<radialGradient id="paint59_angular_28_6" cx="0" cy="0" r="1" gradientUnits="userSpaceOnUse" gradientTransform="translate(190.9 191.322) rotate(90) scale(189.036 173)">
<stop offset="0.140625" stop-color="#4100FB"/>
<stop offset="0.494792" stop-color="#00FCED"/>
<stop offset="0.807292" stop-color="#FF8744"/>
</radialGradient>
<radialGradient id="paint60_angular_28_6" cx="0" cy="0" r="1" gradientUnits="userSpaceOnUse" gradientTransform="translate(190.9 191.322) rotate(90) scale(189.322 188.9)">
<stop offset="0.140625" stop-color="#4100FB"/>
<stop offset="0.494792" stop-color="#00FCED"/>
<stop offset="0.807292" stop-color="#FF8744"/>
</radialGradient>
</defs>
</svg>
